<?xml version="1.0" encoding="utf-8"?>
<!-- Generator: Adobe Illustrator 27.5.0, SVG Export Plug-In . SVG Version: 6.00 Build 0)  -->
<svg version="1.1" id="Слой_1" xmlns="http://www.w3.org/2000/svg" xmlns:xlink="http://www.w3.org/1999/xlink" x="0px" y="0px"
	 viewBox="0 0 169.89 252.92" style="enable-background:new 0 0 169.89 252.92;" xml:space="preserve">
<style type="text/css">
	.st0{fill:#8CFA3D;}
</style>
<g>
	<g>
		<g>
			<path class="st0" d="M84.88,251.7c-41.68,0-84.8-6.57-84.8-17.56c0-10.99,43.11-17.56,84.8-17.56s84.8,6.57,84.8,17.56
				C169.68,245.14,126.56,251.7,84.88,251.7z M84.88,218.23c-49.74,0-83.15,8.23-83.15,15.91c0,7.68,33.41,15.91,83.15,15.91
				s83.15-8.23,83.15-15.91C168.03,226.46,134.62,218.23,84.88,218.23z"/>
		</g>
		<g>
			<path class="st0" d="M84.88,228.47c-37.73,0-76.75-5.97-76.75-15.96s39.02-15.96,76.75-15.96s76.75,5.97,76.75,15.96
				S122.61,228.47,84.88,228.47z M84.88,198.2c-44.92,0-75.1,7.4-75.1,14.31s30.18,14.31,75.1,14.31c44.93,0,75.11-7.4,75.11-14.31
				S129.81,198.2,84.88,198.2z"/>
		</g>
		<g>
			<path class="st0" d="M84.88,205.23c-18.19,0-35.29-1.41-48.16-3.98c-9.37-1.87-20.55-5.18-20.55-10.38s11.17-8.51,20.55-10.38
				c12.87-2.57,29.98-3.98,48.16-3.98s35.29,1.41,48.16,3.98c9.37,1.87,20.55,5.18,20.55,10.38s-11.17,8.51-20.55,10.38
				C120.17,203.82,103.07,205.23,84.88,205.23z M84.88,178.17c-40.11,0-67.06,6.57-67.06,12.7s26.95,12.7,67.06,12.7
				c40.12,0,67.06-6.57,67.06-12.7S125,178.17,84.88,178.17z"/>
		</g>
		<g>
			<path class="st0" d="M84.88,181.99c-16.04,0-31.12-1.25-42.48-3.51c-8.3-1.65-18.19-4.6-18.19-9.24c0-4.64,9.89-7.59,18.19-9.24
				c11.35-2.26,26.44-3.51,42.48-3.51c16.04,0,31.12,1.25,42.48,3.51c8.3,1.65,18.19,4.6,18.19,9.24c0,4.64-9.89,7.59-18.19,9.24
				C116.01,180.75,100.92,181.99,84.88,181.99z M84.88,158.14c-34.78,0-59.02,5.85-59.02,11.1s24.24,11.1,59.02,11.1
				s59.02-5.85,59.02-11.1S119.66,158.14,84.88,158.14z"/>
		</g>
		<g>
			<path class="st0" d="M84.88,158.76c-25.51,0-52.63-3.91-52.63-11.15c0-7.24,27.11-11.15,52.63-11.15s52.63,3.91,52.63,11.15
				C137.51,154.85,110.39,158.76,84.88,158.76z M84.88,138.11c-30.04,0-50.98,5.01-50.98,9.5c0,4.49,20.94,9.5,50.98,9.5
				c30.04,0,50.98-5.01,50.98-9.5C135.86,143.12,114.92,138.11,84.88,138.11z"/>
		</g>
		<g>
			<path class="st0" d="M84.88,135.52c-21.61,0-44.58-3.34-44.58-9.54c0-6.2,22.97-9.54,44.58-9.54s44.58,3.34,44.58,9.54
				C129.47,132.17,106.5,135.52,84.88,135.52z M84.88,118.08c-29.97,0-42.93,5.23-42.93,7.9c0,2.67,12.96,7.9,42.93,7.9
				c29.97,0,42.94-5.23,42.94-7.9C127.82,123.31,114.85,118.08,84.88,118.08z"/>
		</g>
		<g>
			<path class="st0" d="M84.88,112.28c-18.16,0-36.54-2.73-36.54-7.94c0-5.21,18.38-7.94,36.54-7.94c18.16,0,36.54,2.73,36.54,7.94
				C121.42,109.56,103.04,112.28,84.88,112.28z M84.88,98.05c-21.62,0-34.89,3.67-34.89,6.29c0,2.63,13.27,6.29,34.89,6.29
				c21.62,0,34.89-3.67,34.89-6.29C119.77,101.71,106.5,98.05,84.88,98.05z"/>
		</g>
		<g>
			<path class="st0" d="M84.88,89.05c-11.46,0-28.5-1.69-28.5-6.34s17.04-6.34,28.5-6.34c11.46,0,28.5,1.69,28.5,6.34
				S96.34,89.05,84.88,89.05z M84.88,78.02c-17.63,0-26.85,3.05-26.85,4.69s9.22,4.69,26.85,4.69c17.63,0,26.85-3.05,26.85-4.69
				S102.51,78.02,84.88,78.02z"/>
		</g>
		<g>
			<path class="st0" d="M84.88,65.81c-7.08,0-20.46-0.99-20.46-4.74c0-3.75,13.38-4.74,20.46-4.74s20.46,0.99,20.46,4.74
				C105.34,64.82,91.96,65.81,84.88,65.81z M84.88,57.99c-12,0-18.62,2.01-18.81,3.09c0.18,1.07,6.81,3.08,18.81,3.08
				c11.99,0,18.61-2.01,18.81-3.09C103.49,59.99,96.87,57.99,84.88,57.99z"/>
		</g>
	</g>
	<g>
		<path class="st0" d="M85.87,39.12L85.87,39.12c-0.3,0-0.58-0.16-0.72-0.43l-6.48-11.84l-11.84-6.48
			c-0.26-0.15-0.43-0.42-0.43-0.72s0.16-0.58,0.43-0.72l11.84-6.48l6.48-11.84c0.29-0.53,1.16-0.53,1.45,0l6.48,11.84l11.84,6.48
			c0.26,0.15,0.43,0.42,0.43,0.72s-0.16,0.58-0.43,0.72l-11.84,6.48l-6.48,11.84C86.44,38.96,86.17,39.12,85.87,39.12z M68.94,19.65
			l10.73,5.87c0.14,0.08,0.25,0.19,0.33,0.33l5.87,10.73l5.87-10.73c0.08-0.14,0.19-0.25,0.33-0.33l10.73-5.87l-10.73-5.87
			c-0.14-0.08-0.25-0.19-0.33-0.33L85.87,2.72L80,13.45c-0.08,0.14-0.19,0.25-0.33,0.33L68.94,19.65z"/>
	</g>
</g>
</svg>
