<svg width="157" height="37" viewBox="0 0 157 37" fill="none" xmlns="http://www.w3.org/2000/svg">
<g clip-path="url(#clip0_4_285)">
<path d="M52.4374 18.578C52.4374 28.8818 44.007 37.1561 33.8593 36.9999C23.7117 36.8438 15.4374 28.8818 15.5935 18.4219C15.5935 7.80584 24.18 -0.156181 34.3277 -6.27507e-05C44.3193 0.156055 52.4374 8.43032 52.4374 18.578ZM40.8846 18.2658C40.8846 14.5189 37.7623 11.3966 34.0155 11.3966C30.2686 11.3966 27.1463 14.5189 27.1463 18.2658C27.1463 22.0126 30.2686 25.135 34.0155 25.135C37.7623 25.2911 40.8846 22.1687 40.8846 18.2658Z" fill="black"/>
<path d="M0.450043 5.30798C0.762279 5.30798 1.07452 5.30798 1.23063 5.30798C5.60194 5.30798 9.97325 5.30798 14.3446 5.30798C14.969 5.30798 15.2813 5.4641 15.2813 6.24469C15.2813 14.6751 15.2813 23.1055 15.2813 31.3797C15.2813 32.0042 15.1251 32.3164 14.3446 32.3164C12.6273 32.3164 11.0661 32.3164 9.34877 32.3164C8.88042 32.3164 8.56818 32.1603 8.41207 31.6919C5.91418 23.1054 3.26017 14.6751 0.606161 6.08857C0.606161 5.93246 0.606161 5.62022 0.450043 5.30798Z" fill="black"/>
<path d="M97.3994 11.7098C97.3994 11.5537 97.3994 11.5537 97.3994 11.3976C97.5555 9.99251 97.5555 9.99251 98.8045 9.99251C99.8973 9.99251 100.834 9.99251 101.927 9.99251C102.395 9.99251 102.551 10.1486 102.551 10.617C102.551 16.0811 102.551 21.3891 102.551 26.8533C102.551 27.1655 102.395 27.4777 102.083 27.4777C100.678 27.4777 99.4289 27.4777 98.0239 27.4777C97.7116 27.4777 97.3994 27.3216 97.3994 26.8533C97.3994 26.541 97.3994 26.2288 97.3994 25.9166C97.2433 25.9166 97.0872 25.9166 97.0872 26.0727C92.5598 29.6634 85.5344 27.6339 84.1294 20.9208C83.5049 17.6423 84.1294 14.5199 86.4711 12.022C89.1251 9.36803 93.9648 8.89968 96.7749 11.3976C97.0872 11.5537 97.2433 11.5537 97.3994 11.7098ZM88.6568 18.7351C88.6568 19.8279 88.969 20.9208 89.4374 21.8575C91.1547 24.8237 95.2138 24.6676 96.9311 21.8575C97.8678 20.2963 98.0239 18.579 97.3994 16.8617C96.4627 14.0516 93.6526 12.8026 91.1547 14.0516C89.4374 14.9883 88.6568 16.7056 88.6568 18.7351Z" fill="black"/>
<path d="M151.416 11.7097C151.572 9.99241 151.572 9.99241 153.134 9.99241C154.226 9.99241 155.163 9.99241 156.256 9.99241C156.256 9.99241 156.412 9.99241 156.568 10.1485C156.568 10.4608 156.568 10.6169 156.568 10.9291C156.568 16.081 156.568 21.389 156.568 26.5409C156.568 27.1654 156.412 27.4776 155.631 27.4776C154.539 27.4776 153.446 27.4776 152.197 27.4776C151.572 27.4776 151.26 27.3215 151.416 26.5409C151.416 26.3848 151.416 26.2287 151.416 25.9165C151.26 26.0726 151.104 26.0726 150.948 26.2287C146.889 29.1949 141.112 27.7899 138.927 23.2625C137.053 19.3595 137.678 14.676 140.488 12.0219C143.298 9.21182 147.982 8.89959 150.948 11.3975C151.104 11.5536 151.26 11.7097 151.416 11.7097ZM142.518 18.735C142.83 19.6717 142.986 20.6084 143.298 21.389C143.923 22.9502 145.172 23.8869 146.889 23.8869C148.762 24.043 150.167 23.2625 151.104 21.7013C152.041 19.984 152.197 18.2667 151.572 16.3933C150.792 14.0515 148.606 12.9587 146.264 13.5831C144.079 14.2076 142.674 16.2371 142.518 18.735Z" fill="black"/>
<path d="M83.3488 27.4768C81.4753 27.4768 79.758 27.4768 78.1969 27.4768C78.0407 27.4768 77.7285 27.1646 77.5724 26.8524C76.3235 25.1351 75.0745 23.5739 73.9817 21.8566C73.3572 20.9199 72.5766 20.6076 71.4838 20.9199C71.4838 21.2321 71.4838 21.5444 71.4838 21.8566C71.4838 23.5739 71.4838 25.1351 71.4838 26.8524C71.4838 27.3207 71.3277 27.633 70.7032 27.4768C69.6104 27.4768 68.5175 27.4768 67.2686 27.4768C66.6441 27.4768 66.488 27.3207 66.488 26.6963C66.488 21.2321 66.488 15.9241 66.488 10.46C66.488 8.1182 66.488 5.93254 66.488 3.59077C66.488 2.9663 66.6441 2.81018 67.2686 2.81018C68.3614 2.81018 69.4543 2.81018 70.5471 2.81018C71.1716 2.81018 71.3277 2.9663 71.3277 3.59077C71.3277 7.18149 71.3277 10.9283 71.3277 14.519C71.3277 15.1435 71.3277 15.6119 71.3277 16.2363C72.5766 16.5486 73.045 16.5486 73.5133 15.4557C74.45 13.8946 75.3867 12.3334 76.1673 10.6161C76.4796 10.1477 76.6357 9.99162 77.104 9.99162C78.5091 9.99162 80.0703 9.99162 81.6315 9.99162C81.3192 10.6161 81.007 11.0844 80.6948 11.5528C79.4458 13.5823 78.353 15.6119 77.104 17.6414C76.7918 18.1098 76.7918 18.422 77.104 19.0465C78.8213 21.5444 80.5386 23.8861 82.2559 26.384C82.8804 26.6963 83.0365 27.0085 83.3488 27.4768Z" fill="black"/>
<path d="M119.1 11.7098C118.163 12.6465 117.383 13.7393 116.602 14.5199C115.821 14.2076 115.197 13.8954 114.416 13.8954C113.948 13.8954 113.323 13.8954 112.855 14.0515C112.543 14.2076 112.231 14.676 112.231 14.9882C112.231 15.3005 112.543 15.7688 112.855 15.9249C113.636 16.2372 114.416 16.5494 115.197 16.8617C116.446 17.33 117.851 17.7984 118.788 18.8912C120.817 21.0768 120.505 24.3553 118.007 26.2287C114.572 28.8828 108.796 27.7899 106.454 24.1992C107.391 23.2625 108.484 22.3258 109.421 21.3891C109.889 21.8574 110.513 22.4819 111.138 22.7941C112.231 23.5747 113.48 23.7309 114.729 22.9503C115.041 22.7941 115.353 22.3258 115.353 22.0136C115.353 21.7013 115.041 21.233 114.729 21.0768C113.792 20.6085 112.855 20.4524 111.918 19.984C111.294 19.6718 110.513 19.5157 109.889 19.0473C106.61 17.33 107.235 12.8026 109.889 10.9292C112.231 9.36799 116.29 9.36799 118.631 11.0853C118.788 11.2414 118.944 11.3975 119.1 11.7098Z" fill="black"/>
<path d="M134.556 11.7097C133.775 12.6464 132.838 13.5831 132.058 14.5198C131.277 14.2076 130.653 13.8954 129.872 13.8954C129.404 13.7393 128.779 13.8954 128.311 14.2076C127.999 14.3637 127.686 14.8321 127.686 15.3004C127.686 15.6127 127.999 16.081 128.311 16.2371C128.935 16.5494 129.716 16.8616 130.496 17.1739C131.277 17.4861 132.214 17.7983 132.838 18.2667C136.117 20.1401 136.273 24.5114 133.15 26.6971C129.872 29.0388 124.72 28.2582 121.91 24.8236C121.754 24.6675 121.754 24.3553 121.91 24.1992C122.691 23.2625 123.627 22.4819 124.408 21.5452C125.032 22.1696 125.657 22.638 126.281 23.1063C127.374 23.8869 128.623 24.043 129.716 23.4186C130.028 23.2625 130.496 22.7941 130.496 22.4819C130.496 22.1696 130.028 21.7013 129.716 21.5452C128.935 21.0768 127.999 20.9207 127.062 20.6084C126.437 20.4523 125.969 20.1401 125.345 19.984C121.598 18.1106 122.066 13.427 124.72 11.5536C127.218 9.68018 131.589 9.8363 133.931 11.8658C134.399 11.3975 134.399 11.5536 134.556 11.7097Z" fill="black"/>
</g>
<defs>
<clipPath id="clip0_4_285">
<rect width="156.118" height="37" fill="white" transform="translate(0.450043)"/>
</clipPath>
</defs>
</svg>
