<svg width="106" height="31" viewBox="0 0 106 31" fill="none" xmlns="http://www.w3.org/2000/svg">
<path d="M45.6746 29.873H37.1362L42.4767 1.21944H51.0146L45.6746 29.873Z" fill="black"/>
<mask id="mask0_4_250" style="mask-type:luminance" maskUnits="userSpaceOnUse" x="0" y="0" width="106" height="31">
<path d="M0 0.70005H105.403V30.3H0V0.70005Z" fill="white"/>
</mask>
<g mask="url(#mask0_4_250)">
<path d="M76.6272 1.91998C74.9431 1.34015 72.2718 0.70005 68.969 0.70005C60.537 0.70005 54.5993 4.60165 54.5628 10.1796C54.4928 14.2952 58.814 16.581 62.046 17.9533C65.3495 19.3555 66.4723 20.2706 66.4723 21.5206C66.4388 23.4402 63.803 24.325 61.3448 24.325C57.9358 24.325 56.1093 23.8688 53.3334 22.8008L52.2091 22.343L51.0143 28.7751C53.0169 29.5668 56.7064 30.2693 60.537 30.3C69.4961 30.3 75.3287 26.4588 75.3978 20.5145C75.4319 17.2527 73.1501 14.7534 68.2308 12.7111C65.2444 11.3999 63.4154 10.5159 63.4154 9.17454C63.4504 7.95498 64.9623 6.70596 68.3335 6.70596C71.1092 6.64478 73.1488 7.22369 74.6937 7.80307L75.4659 8.10734L76.6272 1.91998Z" fill="black"/>
<path d="M98.5148 1.21953H91.9104C89.8738 1.21953 88.3263 1.73726 87.4476 3.59693L74.7649 29.8727H83.724C83.724 29.8727 85.1989 26.3362 85.5161 25.5745H96.4787C96.7238 26.5805 97.4974 29.8727 97.4974 29.8727H105.403L98.5148 1.21953ZM87.9752 19.7222C88.6784 18.0761 91.3842 11.705 91.3842 11.705C91.3487 11.7662 92.086 10.0286 92.5076 8.96183L93.1042 11.4308C93.1042 11.4308 94.7211 18.2895 95.0723 19.7222H87.9752Z" fill="black"/>
<path d="M30.0046 1.21962L21.6427 20.7586L20.729 16.7958C19.183 12.2233 14.3346 7.25544 8.92407 4.78521L16.5833 29.8428H25.6124L39.0333 1.21962H30.0046Z" fill="black"/>
<path d="M13.878 1.2197H0.140495L0 1.79862C10.7161 4.17638 17.8132 9.90802 20.729 16.7971L17.7427 3.62828C17.251 1.79816 15.74 1.28006 13.878 1.2197Z" fill="black"/>
</g>
</svg>
