<svg width="119" height="31" viewBox="0 0 119 31" fill="none" xmlns="http://www.w3.org/2000/svg">
<mask id="mask0_4_266" style="mask-type:luminance" maskUnits="userSpaceOnUse" x="0" y="0" width="119" height="31">
<path d="M0.899963 0.483986H118.457V30.084H0.899963V0.483986Z" fill="white"/>
</mask>
<g mask="url(#mask0_4_266)">
<path fill-rule="evenodd" clip-rule="evenodd" d="M117.542 14.5528C116.046 18.4658 111.348 21.2683 106.148 21.2683H94.9011V30.0839H84.703V14.5528H117.542ZM58.0182 0.489103V17.9429H58.8562L65.9794 3.5907C67.362 0.734802 70.309 0.489103 70.309 0.489103H80.4746V30.0839H69.7502V12.6304H68.9126L61.929 26.9823C60.5464 29.8255 57.4595 30.0839 57.4595 30.0839H47.2941V0.489103H58.0182ZM11.7709 0.489103C12.8212 0.483246 15.9421 0.223984 17.2643 4.34259C18.155 7.1171 19.5737 11.662 21.5204 17.9771H22.3133C24.4009 11.3192 25.835 6.7746 26.6155 4.34259C27.9513 0.180824 31.291 0.489103 32.6269 0.489103H42.9335V30.0839H32.4289V12.6433H31.7245L25.8684 30.0839H17.965L12.1092 12.6304H11.4045V30.0839H0.899841V0.489103H11.7709Z" fill="black"/>
</g>
<path d="M84.1683 0.489397C84.7033 7.07793 90.85 12.7185 97.2138 12.7185H118.251C119.465 7.24224 115.286 0.489397 106.64 0.489397H84.1683Z" fill="url(#paint0_linear_4_266)"/>
<defs>
<linearGradient id="paint0_linear_4_266" x1="118.457" y1="6.60372" x2="84.1684" y2="6.60372" gradientUnits="userSpaceOnUse">
<stop/>
<stop offset="0.588542"/>
<stop offset="1"/>
</linearGradient>
</defs>
</svg>
