<svg width="49" height="31" viewBox="0 0 49 31" fill="none" xmlns="http://www.w3.org/2000/svg">
<mask id="mask0_4_280" style="mask-type:luminance" maskUnits="userSpaceOnUse" x="-2" y="-11" width="53" height="53">
<path d="M50.7089 -10.6176H-1.52643V41.6177H50.7089V-10.6176Z" fill="white"/>
</mask>
<g mask="url(#mask0_4_280)">
<path d="M24.5912 3.96478C28.0736 6.79419 30.2501 11.1471 30.2501 15.5001C30.2501 20.0707 28.0736 24.4236 24.5912 27.0354C21.1089 24.206 18.9324 19.853 18.9324 15.5001C18.9324 10.9295 21.1089 6.79419 24.5912 3.96478ZM22.6324 2.6589C18.9324 5.9236 16.7559 10.4942 16.7559 15.5001C16.7559 20.506 18.9324 25.0765 22.6324 28.3412C15.4501 32.2589 6.52653 29.8648 2.39123 22.6824C-1.52642 15.7177 1.08535 6.57654 8.2677 2.6589C12.6206 0.0471321 18.2795 0.0471321 22.6324 2.6589ZM26.5501 28.3412C30.2501 25.0765 32.4265 20.506 32.4265 15.5001C32.4265 10.4942 30.2501 5.9236 26.5501 2.6589C33.7324 -1.25875 42.6559 1.13537 46.7912 8.31772C50.7089 15.5001 48.3148 24.4236 41.1324 28.5589C36.5618 30.953 30.903 30.953 26.5501 28.3412Z" fill="black"/>
</g>
</svg>
