<?xml version="1.0" encoding="utf-8"?>
<!-- Generator: Adobe Illustrator 24.1.2, SVG Export Plug-In . SVG Version: 6.00 Build 0)  -->
<svg version="1.1" id="Слой_1" xmlns="http://www.w3.org/2000/svg" xmlns:xlink="http://www.w3.org/1999/xlink" x="0px" y="0px"
	 viewBox="0 0 50 50" style="enable-background:new 0 0 50 50;" xml:space="preserve">
<style type="text/css">
	.st0{fill:#241F23;}
	.st1{fill:#3F393B;}
	.st2{fill:#666465;}
	.st3{fill:#6E6872;}
	.st4{fill:#ADADAD;}
</style>
<g>
	<path class="st0" d="M12.3,21.4c-0.6,0-1.1,0-1.7,0c0,0,0-0.1,0-0.1c0-0.5,0-1,0-1.5c-0.7,0-1.4,0-2.1,0c-0.1,0-0.1,0.1-0.2,0.1
		c-0.3,0-0.5-0.1-0.8-0.1c-0.3,0-0.6,0-0.9,0c-0.3,0-0.6,0-0.8,0c-0.3,0-0.6,0-0.8,0c0-1.1,0-2.2,0-3.2c14.4,0,28.9,0,43.3,0
		c0,0.5,0,1.1,0,1.6c0,0,0,0,0,0c0,0,0,0,0,0c-0.8,0-1.5,0-2.3,0c0,0,0,0,0,0c0,0.5,0,1,0,1.6c-1.4,0-2.8,0-4.2,0c0,0.6,0,1.1,0,1.7
		c-1.4,0-2.7,0-4.1,0c0,0,0,0,0,0c0,0,0,0,0,0c0,0.5,0,1.1,0,1.6c-7.2,0-14.4,0-21.6,0c0-0.6,0-1.1,0-1.7
		C14.7,21.4,13.5,21.4,12.3,21.4z"/>
	<path class="st1" d="M48.3,16.5c-14.4,0-28.9,0-43.3,0c-1.1,0-2.2,0-3.3,0c-0.6,0-1.1,0-1.7,0c0-0.5,0-1,0-1.5c0,0,0.1,0,0.1-0.1
		c0.5,0,1.1,0,1.6,0c2.5,0,5.1,0,7.6,0c0.6,0,1.1,0,1.7,0c0.4,0,0.9,0,1.3,0c0.9,0,1.8,0,2.7,0c2.2,0,4.4,0,6.6,0c0-0.6,0-1.1,0-1.7
		c-0.4,0-0.8,0-1.3,0c0-0.5,0-1.1,0-1.6c3.1,0,6.2,0,9.2,0c0,0,0,0,0,0c0,0,0,0,0,0c0-0.5,0-1.1,0-1.6c0.4,0,0.9,0,1.3,0
		c0,0.6,0,1.1,0,1.7c0.5,0,1,0,1.4,0c0-0.6,0-1.1,0-1.7c0.8,0,1.6,0,2.4,0c0,0,0.1,0,0.1,0c0.6,0,1.2,0,1.8,0c1.2,0,2.3,0,3.5,0
		c0.1,0,0.2-0.1,0.2,0.1c0,0-0.1,0-0.1,0.1c0,0.5,0,1,0,1.5c0,0,0,0.1,0.1,0.1c0,0,0,0,0.1,0c0,0.1,0,0.1,0.1,0.1c0.7,0,1.4,0,2.2,0
		c0.5,0,1,0,1.6,0c0,0.1,0,0.2,0,0.3c0,0.4,0,0.7,0,1.1c0,0.1,0.1,0.2,0.2,0.2c0.1,0,0.1,0,0.2,0c1.1,0,2.2,0,3.3,0
		c0.1,0,0.2,0,0.3,0c0,0.3,0,0.6,0,0.9c0,0.2,0,0.4,0,0.5c0,0.1,0.1,0.1,0.1,0.1c0.5,0,1,0,1.5,0c0,0.5,0,1,0,1.4c0,0,0,0.1,0.1,0.1
		c0,0.1-0.1,0.1-0.1,0.1C49.3,16.5,48.8,16.5,48.3,16.5z M24.3,14.8c0-0.5,0-1,0-1.5c0-0.1-0.1-0.2-0.2-0.2c-0.3,0-0.7,0-1,0
		c-0.2,0-0.2,0-0.2,0.2c0,0.4,0,0.8,0,1.3c0,0.1,0.1,0.2,0.2,0.2C23.5,14.8,23.9,14.8,24.3,14.8z M27,14c0,0.2,0,0.4,0,0.7
		c0,0.1,0.1,0.2,0.2,0.2c0.4,0,0.7,0,1.1,0c0.1,0,0.2-0.1,0.2-0.2c0-0.4,0-0.9,0-1.3c0-0.1-0.1-0.2-0.2-0.2c-0.3,0-0.7,0-1,0
		c-0.1,0-0.2,0.1-0.2,0.2C27,13.6,27,13.8,27,14z"/>
	<path class="st2" d="M9.3,14.8c-2.5,0-5.1,0-7.6,0c0-0.5,0-1,0-1.5c1.1,0,2.2,0,3.3,0c0.1,0,0.2,0,0.3,0c0.1,0,0-0.1,0.1-0.1
		c0-0.5,0-1.1,0-1.6c0,0,0,0,0,0c0,0,0,0,0,0c1.9,0,3.7,0,5.6,0c0-0.6,0-1.1,0-1.7c0.8,0,1.6,0,2.3,0c0.1-0.1,0-0.2,0-0.3
		c0-0.9,0-1.9,0-2.8c0-0.1-0.1-0.2,0.1-0.2c0,0.1,0.1,0.1,0.1,0.1c0.5,0,1,0,1.5,0c0,1.1,0,2.1,0,3.2c4.9,0,9.8,0,14.6,0
		c0,0.5,0,1.1,0,1.6c0,0,0,0,0,0c0,0,0,0,0,0c-3.1,0-6.1,0-9.2,0c0,0.5,0,1.1,0,1.6c0.4,0,0.8,0,1.3,0c0,0.6,0,1.1,0,1.7
		c-2.2,0-4.4,0-6.6,0c0.1-0.2-0.1-0.3-0.1-0.5c0-0.2,0-0.4,0-0.5c0-0.2,0-0.4,0-0.7c0,0,0-0.1-0.1-0.1c-0.8,0-1.7,0-2.5,0
		c0,0-0.1,0-0.1,0.1c0,0.6,0,1.1,0,1.7c-0.4,0-0.9,0-1.3,0c0-0.6,0-1.1,0-1.7c0,0,0-0.1-0.1-0.1c-0.5,0-1,0-1.5,0c0,0-0.1,0-0.1,0.1
		c-0.1,0-0.1,0.1-0.1,0.2C9.3,13.8,9.3,14.3,9.3,14.8z"/>
	<path class="st2" d="M20,1.6c0-0.5,0-1.1,0-1.6c0.3-0.1,8.8-0.1,10,0c0,0.5,0,1.1,0,1.6c0,0,0,0-0.1,0C26.7,1.6,23.3,1.6,20,1.6z"
		/>
	<path class="st2" d="M36.7,9.9c-0.6,0-1.2,0-1.8,0c0-0.9,0-1.9,0-2.8c0-0.1,0-0.1,0-0.2c0-0.2-0.1-0.2-0.2-0.2c-0.4,0-0.7,0-1.1,0
		c0,0,0-0.1-0.1-0.1c0-0.5,0-1,0-1.5c0,0,0-0.1-0.1-0.1c-0.2,0-0.4,0-0.7,0c0,0,0,0-0.1,0c0-0.1-0.1-0.2-0.1-0.3c0-0.1,0-0.2,0-0.3
		c0-0.4,0-0.7,0-1.1c-0.9,0-1.7,0-2.6,0c0-0.5,0-1.1,0-1.6c0.9,0,1.7,0,2.6,0c0,0.5,0,1.1,0,1.6c0.3,0,0.6,0,0.9,0
		c0,0.5,0,1.1,0,1.6c0.5,0,0.9,0.1,1.3,0.1c0,0.5,0,1,0,1.5c0,0,0,0,0,0c0,0,0,0,0,0c0.5,0,1.1,0,1.6,0C36.7,7.6,36.7,8.7,36.7,9.9z
		"/>
	<path class="st3" d="M1.7,16.5c1.1,0,2.2,0,3.3,0c0,1.1,0,2.2,0,3.2c0,0,0,0.1-0.1,0.1c-0.2,0-0.4,0-0.6,0c0-0.6,0-1.1,0-1.7
		c-0.9,0-1.7,0-2.6,0C1.7,17.5,1.7,17,1.7,16.5z"/>
	<path class="st2" d="M12.3,21.4c1.2,0,2.4,0,3.6,0c0,0.6,0,1.1,0,1.7c-1.2,0-2.4,0-3.6,0C12.3,22.5,12.3,21.9,12.3,21.4z"/>
	<path class="st2" d="M17.7,3.3c0-0.5,0-1.1,0-1.6c0.8,0,1.6,0,2.4,0c0,0.5,0,1.1,0,1.6C19.2,3.3,18.4,3.3,17.7,3.3z"/>
	<path class="st3" d="M8.4,19.8c0.1,0,0.1-0.1,0.2-0.1c0.7,0,1.4,0,2.1,0c0,0.5,0,1,0,1.5c-0.8,0-1.5,0-2.3,0c0-0.4,0-0.9,0-1.3
		c0,0,0.1,0,0.1,0C8.4,19.8,8.4,19.8,8.4,19.8C8.4,19.8,8.4,19.8,8.4,19.8z"/>
	<path class="st2" d="M15,6.6c0-0.1,0.1-0.1,0-0.2c-0.1-0.1-0.1-0.2,0-0.4c0.1-0.3,0-0.5,0.1-0.8c0-0.2,0.1-0.3,0.3-0.3
		c0.2,0,0.3,0,0.5,0c0-0.6,0-1.1,0-1.7c0.6,0,1.2,0,1.8,0c0,0.6,0,1.1,0,1.7c-0.4,0-0.8,0-1.2,0c-0.1,0-0.3,0-0.4,0
		c-0.1,0,0,0.1-0.1,0.1c-0.3,0-0.6,0-0.9,0c0,0.5,0,0.9,0,1.4c0.2,0,0.5,0,0.7,0c0,0,0.1,0,0.1,0.1c-0.1,0-0.2,0-0.4,0.1
		c-0.1,0.1-0.3,0.1-0.3,0C15.1,6.5,15.1,6.7,15,6.6C15,6.6,15,6.6,15,6.6z"/>
	<path class="st0" d="M48.4,14.8c-0.1,0-0.1,0-0.1-0.1c0-0.2,0-0.4,0-0.5c0-0.3,0-0.6,0-0.9c-0.1,0-0.2,0-0.3,0c-1.1,0-2.2,0-3.3,0
		c-0.1,0-0.1,0-0.2,0c-0.1,0-0.2-0.1-0.2-0.2c0-0.4,0-0.7,0-1.1c0-0.1,0-0.2,0-0.3c-0.5,0-1,0-1.6,0c-0.7,0-1.4,0-2.2,0
		c-0.1,0-0.1,0-0.1-0.1c0.4,0,0.7,0,1.1,0c1,0,1.9,0.1,2.9,0.1c0,0.5,0,1,0,1.6c0.2,0,0.3,0,0.5,0c1.1,0,2.1,0,3.2,0
		c0.1,0,0.1,0,0.2,0c0.1,0,0.2,0.1,0.2,0.2C48.4,13.9,48.4,14.3,48.4,14.8z"/>
	<path class="st1" d="M5.3,13.2c0,0,0,0.1-0.1,0.1c-0.1,0-0.2,0-0.3,0c-1.1,0-2.2,0-3.3,0c0,0,0-0.1,0.1-0.1c0.1,0,0.2,0,0.3,0
		C3.1,13.2,4.2,13.2,5.3,13.2z"/>
	<path class="st2" d="M8.4,21.2c0.8,0,1.5,0,2.3,0c0,0,0,0.1,0,0.1c-0.6,0-1.3,0-1.9,0C8.6,21.4,8.4,21.4,8.4,21.2z"/>
	<path class="st0" d="M49.9,16.4c-0.1,0-0.1-0.1-0.1-0.1c0-0.5,0-1,0-1.4c0.1,0,0.1,0,0.1,0.1c0,0.3,0,0.7,0,1
		C50,16.1,50,16.2,49.9,16.4C50,16.4,50,16.4,49.9,16.4z"/>
	<path class="st1" d="M15,6.6C15,6.6,15,6.6,15,6.6C15,6.6,15,6.7,15,6.6c-0.4,0.1-0.9,0.1-1.4,0.1c0,0-0.1,0-0.1-0.1
		C13.9,6.6,14.4,6.6,15,6.6z"/>
	<path class="st0" d="M40.3,11.5C40.3,11.5,40.2,11.5,40.3,11.5c-0.1-0.6-0.1-1.1-0.1-1.6c0,0,0-0.1,0.1-0.1
		C40.3,10.5,40.3,11,40.3,11.5z"/>
	<path class="st0" d="M0.1,14.8C0.1,14.9,0,14.9,0.1,14.8C0,14.9,0,14.8,0.1,14.8z"/>
	<path class="st2" d="M8.4,19.8C8.4,19.8,8.4,19.8,8.4,19.8C8.4,19.9,8.4,19.9,8.4,19.8C8.4,19.9,8.4,19.8,8.4,19.8z"/>
	<path class="st4" d="M15,6.7C15,6.7,15,6.6,15,6.7c0.1,0,0.1-0.2,0.2-0.1c0.1,0.1,0.3,0.1,0.3,0c0.1-0.1,0.3,0,0.4-0.1
		C16,6.6,16,6.5,16,6.4c0-0.5,0-0.9,0-1.4c0,0,0-0.1,0.1-0.1c0.1,0,0.3,0,0.4,0c0.4,0,0.8,0,1.2,0c0-0.6,0-1.1,0-1.7
		c0.8,0,1.6,0,2.4,0c0-0.5,0-1.1,0-1.6c3.3,0,6.6,0,10,0c0,0.5,0,1,0,1.5c0,0,0,0.1,0.1,0.1c0.8,0,1.7,0,2.6,0c0,0.4,0,0.7,0,1.1
		c0,0.1,0,0.2,0,0.3c0,0.1,0.1,0.2,0.1,0.3c0,0,0,0.1,0,0.1c0,0,0,0,0-0.1c0.2,0,0.4,0,0.7,0c0,0.5,0,1,0,1.5c0,0,0,0.1,0.1,0.1
		c0,0,0.1,0,0.1,0.1c0,0.1,0.1,0.1,0.1,0.1c0.4,0,0.7,0,1.1,0c0,1.1,0,2.1,0,3.2c-0.8,0-1.6,0-2.4,0c-0.5,0-0.9,0-1.4,0
		c-0.4,0-0.9,0-1.3,0c-4.9,0-9.7,0-14.6,0C15,8.8,15,7.7,15,6.7z M21.6,5c0.4,0,0.7,0,1,0c0-0.5,0-1.1,0-1.6c-0.8,0-1.5,0-2.3,0
		c0,0.5,0,1,0,1.5c-0.5,0-0.9,0-1.4,0c0,0.5,0,1,0,1.5c0,0.2,0,0.2,0.2,0.2c0.6,0,1.1,0,1.7,0c0.2,0,0.5,0,0.7,0
		C21.6,6.1,21.6,5.5,21.6,5z M24.3,6.6c0.4,0,0.7,0,1.1,0c0.2,0,0.2,0,0.2-0.2c0-0.4,0-0.8,0-1.2c0-0.1,0-0.2,0-0.3
		c-0.4,0-0.8,0-1.3,0C24.3,5.6,24.3,6.1,24.3,6.6z"/>
	<path class="st2" d="M30.9,9.9c0.5,0,0.9,0,1.4,0c0,0.5,0,1.1,0,1.7c-0.5,0-0.9,0-1.4,0C30.9,11,30.9,10.4,30.9,9.9z"/>
	<path class="st2" d="M24.3,14.8c-0.4,0-0.8,0-1.2,0c-0.1,0-0.2-0.1-0.2-0.2c0-0.4,0-0.8,0-1.3c0-0.2,0-0.2,0.2-0.2c0.3,0,0.7,0,1,0
		c0.1,0,0.2,0.1,0.2,0.2C24.3,13.8,24.3,14.3,24.3,14.8z"/>
	<path class="st2" d="M27,14c0-0.2,0-0.4,0-0.6c0-0.1,0.1-0.2,0.2-0.2c0.3,0,0.7,0,1,0c0.1,0,0.2,0.1,0.2,0.2c0,0.4,0,0.9,0,1.3
		c0,0.1-0.1,0.2-0.2,0.2c-0.4,0-0.7,0-1.1,0c-0.1,0-0.2-0.1-0.2-0.2C27,14.4,27,14.2,27,14z"/>
	<path class="st1" d="M15,13.2c-0.9,0-1.8,0-2.6,0c0,0,0-0.1,0.1-0.1C13.2,13.1,14.1,13.1,15,13.2C14.9,13.1,15,13.1,15,13.2z"/>
	<path class="st1" d="M11,13.2c-0.5,0-1.1,0-1.6,0c0,0,0-0.1,0.1-0.1C9.9,13.1,10.4,13.1,11,13.2C11,13.1,11,13.1,11,13.2z"/>
	<path class="st3" d="M16,5.1c0,0.5,0,0.9,0,1.4c0,0,0,0.1-0.1,0.1c0-0.1,0-0.1-0.1-0.1c-0.2,0-0.5,0-0.7,0c0-0.5,0-0.9,0-1.4
		C15.4,5.1,15.7,5.1,16,5.1z"/>
</g>
</svg>
