<?xml version="1.0" encoding="utf-8"?>
<!-- Generator: Adobe Illustrator 24.1.2, SVG Export Plug-In . SVG Version: 6.00 Build 0)  -->
<svg version="1.1" id="Layer_1" xmlns="http://www.w3.org/2000/svg" xmlns:xlink="http://www.w3.org/1999/xlink" x="0px" y="0px"
	 viewBox="0 0 198.4 239.7" style="enable-background:new 0 0 198.4 239.7;" xml:space="preserve">
<style type="text/css">
	.st0{fill:#010202;}
</style>
<g>
	<g>
		<path class="st0" d="M0,0v198.4h198.4V0H0z M2,196.4V2h194.4v194.4H2z"/>
		<path class="st0" d="M156.8,149c-0.4,0-0.6,0.3-0.7,0.6c-0.7,8.9-2.4,15.5-4.9,19.9c-2.6,4.5-6.8,6.8-12.7,6.8H97.7
			c-1,0-1.5-1.1-1-1.9l60.2-86.1c0.1-0.2,0.2-0.4,0.2-0.7v-0.7c0-0.6-0.5-1.2-1.2-1.2h-46.5L84.6,16.2h-0.7l-28,84.6
			c-1.2,3.2-3.3,5.4-6.1,6.5c-2.7,1.1-6.7,1.9-11.9,2.5c-0.3,0-0.6,0.3-0.6,0.7v0c0,0.4,0.3,0.7,0.7,0.7h31.8c0.4,0,0.7-0.3,0.7-0.7
			v0c0-0.4-0.3-0.6-0.6-0.7c-5.1-0.5-8.4-1.3-10.1-2.4c-1.8-1.1-2.1-3.3-0.9-6.6l4.1-12.1c0.1-0.3,0.4-0.5,0.6-0.5h37.1
			c0.3,0,0.5,0.2,0.6,0.4l4.6,12.3c1.2,3.2,0.8,5.3-1,6.4c-1.7,1.1-5.1,1.9-9.9,2.4c-0.3,0-0.6,0.3-0.6,0.7v0c0,0.4,0.3,0.7,0.7,0.7
			h5.7h29.7l-45.5,65c-0.1,0.2-0.2,0.4-0.2,0.7v0.7c0,0.6,0.5,1.2,1.2,1.2h69.8c0.6,0,1.2-0.5,1.2-1.2l0.5-27.9
			C157.5,149.3,157.2,149,156.8,149z M99.4,85.7H65c-0.5,0-0.8-0.5-0.6-0.9l16.6-49c0.2-0.6,1.1-0.6,1.3,0l17.9,49
			C100.2,85.3,99.9,85.7,99.4,85.7z M120.9,107.3c-0.4-0.2-0.8-0.4-1.1-0.6c-1.8-1.2-3.3-2.6-4.5-4.8c-0.2-0.4-0.4-0.7-0.5-1.1l0,0
			l-4.5-12.6h34.1c1,0,1.5,1.1,1,1.9l-13.7,19.6C127,109.1,123.4,108.3,120.9,107.3z"/>
	</g>
	<g>
		<path class="st0" d="M0,239.6V221h5.5c1.6,0,3,0.5,3.9,1.4s1.5,2.1,1.5,3.6c0,0.7-0.1,1.3-0.3,1.8c-0.2,0.5-0.6,1-1.3,1.5
			c0.9,0.2,1.7,0.7,2.3,1.5c0.6,0.8,0.9,1.9,0.9,3.1c0,2.1-0.5,3.5-1.6,4.4c-1,0.9-2.7,1.3-4.9,1.3H0z M3.3,236.6h2.9
			c0.6,0,1.2-0.1,1.6-0.2c0.4-0.1,0.7-0.3,0.9-0.5c0.2-0.2,0.3-0.5,0.4-0.8c0.1-0.3,0.1-0.7,0.1-1.2c0-1-0.2-1.7-0.6-2.1
			c-0.4-0.4-1.2-0.6-2.4-0.6H3.3V236.6z M3.3,228.1h2.2c0.7,0,1.2-0.2,1.5-0.6c0.3-0.4,0.5-0.9,0.5-1.6c0-0.6-0.2-1.1-0.5-1.5
			s-0.8-0.6-1.6-0.6H3.3V228.1z"/>
		<path class="st0" d="M12.7,221h3.6l1.5,3.4l1.4,4l1.3-4.1l1.4-3.3h3.6l-4.7,10.8v7.8h-3.3v-7.8L12.7,221z"/>
		<path class="st0" d="M29.9,239.6l5.2-18.6h3.3l5.1,18.6H40l-0.9-3.3h-4.8l-1,3.3H29.9z M35.2,233h3.1l-1.5-6.9L35.2,233z"/>
		<path class="st0" d="M45.4,239.6V221h3.3v15.6h7.2v3H45.4z"/>
		<path class="st0" d="M58.2,239.6V221h3.3v18.6H58.2z"/>
		<path class="st0" d="M64.9,239.6V221h3.3l5.5,12.2l-0.4-7.8V221h3.3v18.6h-3.2l-5.2-11.8v7.1v4.7H64.9z"/>
		<path class="st0" d="M78.5,239.6l5.2-18.6h3.3l5.1,18.6h-3.4l-0.9-3.3h-4.8l-1,3.3H78.5z M83.7,233h3.1l-1.5-6.9L83.7,233z"/>
		<path class="st0" d="M97.9,239.6l7.3-15.7h-6.3v-3H110l-7.2,15.7h6.7v3H97.9z"/>
		<path class="st0" d="M110.5,239.6l5.2-18.6h3.3l5.1,18.6h-3.4l-0.9-3.3h-4.8l-1,3.3H110.5z M115.7,233h3.1l-1.5-6.9L115.7,233z"/>
		<path class="st0" d="M125.6,233.9v-7.5c0-1.9,0.5-3.3,1.5-4.2c1-0.9,2.6-1.3,4.8-1.3c2.3,0,3.9,0.4,4.9,1.3c1,0.9,1.5,2.3,1.5,4.3
			h-3.3c0-0.5,0-0.9-0.1-1.2c-0.1-0.3-0.2-0.6-0.4-0.8c-0.2-0.2-0.5-0.4-1-0.5c-0.4-0.1-1-0.2-1.6-0.2c-0.6,0-1.1,0.1-1.5,0.2
			c-0.4,0.1-0.7,0.3-0.9,0.6s-0.4,0.5-0.4,0.9c-0.1,0.3-0.1,0.7-0.1,1.2v7.3c0,0.5,0,0.9,0.1,1.2c0.1,0.3,0.2,0.6,0.4,0.8
			c0.2,0.3,0.5,0.4,0.9,0.6c0.4,0.1,0.9,0.2,1.5,0.2c1.1,0,1.9-0.2,2.4-0.7c0.5-0.5,0.7-1.2,0.7-2.1V232h-3v-3h6.3v4.8
			c0,2-0.5,3.5-1.5,4.4c-1,0.9-2.7,1.4-4.9,1.4c-2.2,0-3.8-0.5-4.8-1.4C126.1,237.4,125.6,235.9,125.6,233.9z"/>
		<path class="st0" d="M141.2,239.6V221h3.3v18.6H141.2z"/>
		<path class="st0" d="M146.4,224v-3h11v3h-3.8v15.6h-3.3V224H146.4z"/>
		<path class="st0" d="M158.4,234.2v-7.9c0-2,0.5-3.4,1.4-4.3c0.9-0.9,2.5-1.3,4.8-1.3c2.2,0,3.9,0.4,4.8,1.3c1,0.9,1.5,2.3,1.5,4.3
			v7.9c0,1.9-0.5,3.3-1.5,4.2c-1,0.9-2.6,1.3-4.8,1.3c-2.2,0-3.8-0.4-4.7-1.3C158.9,237.5,158.4,236.1,158.4,234.2z M161.7,234
			c0,0.5,0,0.9,0.1,1.2c0.1,0.3,0.2,0.6,0.4,0.8c0.2,0.3,0.5,0.4,0.9,0.6c0.4,0.1,0.9,0.2,1.5,0.2c0.6,0,1.1-0.1,1.5-0.2
			c0.4-0.1,0.7-0.3,0.9-0.5c0.2-0.2,0.4-0.5,0.5-0.9c0.1-0.3,0.1-0.7,0.1-1.2v-7.5c0-0.5,0-0.8-0.1-1.2c-0.1-0.3-0.2-0.6-0.4-0.9
			c-0.2-0.3-0.5-0.5-0.9-0.6s-0.9-0.2-1.6-0.2c-0.6,0-1.1,0.1-1.5,0.2c-0.4,0.1-0.7,0.3-0.9,0.6c-0.2,0.3-0.3,0.5-0.4,0.9
			c-0.1,0.3-0.1,0.7-0.1,1.2V234z"/>
		<path class="st0" d="M172.1,221h3.3l1.6,5.7l1.7,8.7l1.7-8.8l1.6-5.6h3.3l-4.9,18.6H177L172.1,221z"/>
		<path class="st0" d="M184.9,239.6L190,221h3.3l5.1,18.6H195l-0.9-3.3h-4.8l-1,3.3H184.9z M190.1,233h3.1l-1.5-6.9L190.1,233z"/>
	</g>
</g>
</svg>
