<svg width="696" height="550" viewBox="0 0 696 550" fill="none" xmlns="http://www.w3.org/2000/svg">
<path d="M150.775 66.6579C150.022 66.0824 149.253 65.4304 148.472 64.7592C140.184 70.3953 132.177 76.3089 124.449 82.5002L130.724 81.2824C137.223 76.21 143.907 71.3351 150.775 66.6579Z" fill="url(#paint0_linear_346_820)"/>
<path d="M297.035 11.0146C313.085 7.90117 329.284 5.66151 345.513 4.31195C344.492 3.59178 343.644 2.73248 343.001 1.76809C312.719 4.45143 282.629 10.1971 253.477 18.8627C253.58 19.7809 253.678 20.7147 253.793 21.645C267.996 17.4012 282.438 13.8507 297.035 11.0146Z" fill="url(#paint1_linear_346_820)"/>
<path d="M240.994 25.71C240.193 24.9668 239.305 24.2867 238.339 23.6774C217.789 30.59 197.927 38.9641 179.017 48.6886C179.013 49.772 179.009 50.8553 178.973 51.8656C198.691 41.6175 219.467 32.8559 240.994 25.71Z" fill="url(#paint2_linear_346_820)"/>
<path d="M365.635 3.08424C409.095 1.46637 451.745 6.46639 491.267 17.8126L497.541 16.5948C457.909 4.63566 414.998 -0.943469 371.141 0.160596C370.309 0.986329 369.279 1.67829 368.122 2.19021C367.314 2.52985 366.483 2.82851 365.635 3.08424Z" fill="url(#paint3_linear_346_820)"/>
<path d="M32.4802 405.939C31.9547 407.449 31.487 409.166 31.0938 410.686C41.9682 429.074 68.5003 457.5 68.5003 457.5C68.5003 457.5 72.0003 457 73.0003 457C73.0003 457 43.0906 424.593 32.4802 405.939Z" fill="url(#paint4_linear_346_820)"/>
<path d="M515.086 499.07C515.271 500.023 515.551 500.943 515.787 501.872C528.359 495.48 540.485 488.505 552.091 480.989C552.436 479.532 552.904 478.086 553.493 476.661C541.261 484.759 528.43 492.246 515.086 499.07Z" fill="url(#paint5_linear_346_820)"/>
<path d="M480.163 516.48C480.074 516.021 479.912 515.569 479.777 515.112C477.326 516.092 474.853 517.056 472.374 517.992L479.743 518.099C484.286 516.303 488.779 514.437 493.222 512.502C490.592 511.028 486.748 512.647 480.163 516.48Z" fill="url(#paint6_linear_346_820)"/>
<path d="M512.888 22.9702C512.893 23.5684 512.906 24.1648 512.965 24.7526L514.22 25.2307C513.752 24.4505 513.308 23.697 512.888 22.9702Z" fill="url(#paint7_linear_346_820)"/>
<path d="M399.447 538.657C378.366 542.748 357.039 545.327 335.733 546.361C335.727 547.286 335.711 548.213 335.693 549.126C357.187 548.082 378.703 545.478 399.97 541.349C405.464 540.282 410.91 539.11 416.322 537.857C415.907 537.014 415.501 536.169 415.087 535.325C409.905 536.519 404.7 537.637 399.447 538.657Z" fill="url(#paint8_linear_346_820)"/>
<path d="M215.939 534.779C215.247 535.615 214.419 536.381 213.479 537.054L213.379 537.117C244.72 545.208 277.864 549.427 311.721 549.635C311.045 548.691 310.366 547.733 309.69 546.839C277.439 546.454 245.868 542.393 215.939 534.779Z" fill="url(#paint9_linear_346_820)"/>
<path d="M144.062 508.044C129.811 500.839 116.987 493.448 104.5 484.5C102.078 483.726 100.637 483.796 98.0003 483.5C112.038 494.028 125.608 502.148 141.974 510.42C149.421 514.186 157.031 517.679 164.806 520.9C165.055 519.884 165.348 518.904 165.598 517.989C158.274 514.916 151.095 511.601 144.062 508.044Z" fill="url(#paint10_linear_346_820)"/>
<path d="M512.965 24.7526C512.906 24.1648 512.893 23.5684 512.888 22.9702C512.562 22.3911 512.237 21.8191 511.929 21.2365C507.195 19.5954 502.408 18.0464 497.568 16.5896L491.294 17.8074C498.627 19.9062 505.851 22.2213 512.965 24.7526Z" fill="url(#paint11_linear_346_820)"/>
<path d="M597.482 69.4605C598.618 69.0617 599.602 68.4041 600.298 67.5787C595.471 63.954 590.482 60.4522 585.331 57.0733C587.037 59.8241 588.524 62.1194 589.836 63.9435C592.425 65.7506 594.974 67.5896 597.482 69.4605Z" fill="url(#paint12_linear_346_820)"/>
<path d="M512.888 22.9702C513.311 23.7109 513.765 24.4528 514.25 25.1959C527.506 29.9629 540.271 35.4419 552.461 41.5978C559.367 45.0693 566.05 48.7547 572.512 52.654C572.681 52.5201 572.858 52.3775 573.038 52.2488C573.82 51.6867 574.719 51.2401 575.684 50.9339C568.885 46.8259 561.837 42.9226 554.54 39.2239C541.682 32.7404 528.194 27.0025 514.17 22.0502L512.869 22.2016C512.881 22.452 512.899 22.7372 512.888 22.9702Z" fill="url(#paint13_linear_346_820)"/>
<path d="M20.0274 218.625C20.2645 213.426 22.5177 207.496 25.0387 204.718C25.5528 204.157 26.0916 203.626 26.6345 203.117C46.4016 160.943 78.2083 122.159 119.414 89.9867L113.14 91.2045C96.8278 104.293 81.9823 118.463 68.8029 133.524C31.7946 175.603 8.93584 223.749 2.63725 272.885C3.63362 274.568 4.59377 276.352 5.5329 278.22C7.58654 258.201 12.4481 238.212 20.0274 218.625Z" fill="url(#paint14_linear_346_820)"/>
<path d="M583.272 454.749C583.765 455.575 584.371 456.35 585.079 457.062C588.428 454.347 591.719 451.579 594.954 448.757C594.585 447.768 594.191 446.791 593.806 445.812C590.348 448.86 586.837 451.839 583.272 454.749Z" fill="url(#paint15_linear_346_820)"/>
<path d="M688.212 208.85C689.697 216.501 690.727 224.204 691.367 231.911C692.877 232.405 694.004 233.565 695.188 235.688C693.287 205.092 684.888 175.452 670.334 147.988C669.858 147.308 669.376 146.594 668.903 145.834C668.391 144.99 667.988 144.101 667.699 143.18C655.559 121.646 639.614 101.797 620.298 84.1734C619.891 85.3351 619.459 86.415 618.989 87.394C655.643 121.404 679.5 163.263 688.212 208.85Z" fill="url(#paint16_linear_346_820)"/>
<path d="M640.63 395.178C641.637 395.596 642.731 395.888 643.877 396.042C647.264 391.482 650.487 386.875 653.546 382.22C653.299 380.349 653.26 378.449 653.429 376.541C649.459 382.826 645.193 389.038 640.63 395.178Z" fill="url(#paint17_linear_346_820)"/>
<path d="M667.421 351.588C664.756 357.027 661.858 362.428 658.725 367.79C660.186 367.02 661.777 366.438 663.432 366.068C665.539 362.353 667.542 358.618 669.442 354.862C669.415 354.723 669.325 354.596 669.262 354.464C668.754 353.459 668.138 352.497 667.421 351.588Z" fill="url(#paint18_linear_346_820)"/>
<path d="M677.087 329.509L680.5 329.509C680.5 329.509 683.091 322.858 684.515 318.468C684.059 315.307 683.848 312.108 683.883 308.89C681.925 315.795 677.087 329.509 677.087 329.509Z" fill="url(#paint19_linear_346_820)"/>
<path d="M4.40531 302.936C3.17394 302.391 1.99371 301.784 0.871389 301.117C0.913519 311.289 1.66768 321.398 3.13044 331.397C4.35605 331.578 5.5781 331.788 6.79437 332.064C5.33809 322.445 4.54061 312.722 4.40531 302.936Z" fill="url(#paint20_linear_346_820)"/>
<path d="M15.4967 368.131C15.2959 367.528 15.0875 366.933 14.8867 366.33C13.6078 363.287 11.0948 360.115 9.12318 359.206L9.04067 359.164C10.6326 364.778 12.4449 370.314 14.4775 375.77C15.4716 373.387 15.8495 370.913 15.5876 368.503C15.5633 368.378 15.5354 368.282 15.4967 368.131Z" fill="url(#paint21_linear_346_820)"/>
<defs>
<linearGradient id="paint0_linear_346_820" x1="533.5" y1="507" x2="109.5" y2="20.0002" gradientUnits="userSpaceOnUse">
<stop stop-color="#99FF00"/>
<stop offset="1" stop-color="#CAC7C7"/>
</linearGradient>
<linearGradient id="paint1_linear_346_820" x1="533.5" y1="507" x2="109.5" y2="20.0002" gradientUnits="userSpaceOnUse">
<stop stop-color="#99FF00"/>
<stop offset="1" stop-color="#CAC7C7"/>
</linearGradient>
<linearGradient id="paint2_linear_346_820" x1="533.5" y1="507" x2="109.5" y2="20.0002" gradientUnits="userSpaceOnUse">
<stop stop-color="#99FF00"/>
<stop offset="1" stop-color="#CAC7C7"/>
</linearGradient>
<linearGradient id="paint3_linear_346_820" x1="533.5" y1="507" x2="109.5" y2="20.0002" gradientUnits="userSpaceOnUse">
<stop stop-color="#99FF00"/>
<stop offset="1" stop-color="#CAC7C7"/>
</linearGradient>
<linearGradient id="paint4_linear_346_820" x1="533.5" y1="507" x2="109.5" y2="20.0002" gradientUnits="userSpaceOnUse">
<stop stop-color="#99FF00"/>
<stop offset="1" stop-color="#CAC7C7"/>
</linearGradient>
<linearGradient id="paint5_linear_346_820" x1="533.5" y1="507" x2="109.5" y2="20.0002" gradientUnits="userSpaceOnUse">
<stop stop-color="#99FF00"/>
<stop offset="1" stop-color="#CAC7C7"/>
</linearGradient>
<linearGradient id="paint6_linear_346_820" x1="533.5" y1="507" x2="109.5" y2="20.0002" gradientUnits="userSpaceOnUse">
<stop stop-color="#99FF00"/>
<stop offset="1" stop-color="#CAC7C7"/>
</linearGradient>
<linearGradient id="paint7_linear_346_820" x1="533.5" y1="507" x2="109.5" y2="20.0002" gradientUnits="userSpaceOnUse">
<stop stop-color="#99FF00"/>
<stop offset="1" stop-color="#CAC7C7"/>
</linearGradient>
<linearGradient id="paint8_linear_346_820" x1="533.5" y1="507" x2="109.5" y2="20.0002" gradientUnits="userSpaceOnUse">
<stop stop-color="#99FF00"/>
<stop offset="1" stop-color="#CAC7C7"/>
</linearGradient>
<linearGradient id="paint9_linear_346_820" x1="533.5" y1="507" x2="109.5" y2="20.0002" gradientUnits="userSpaceOnUse">
<stop stop-color="#99FF00"/>
<stop offset="1" stop-color="#CAC7C7"/>
</linearGradient>
<linearGradient id="paint10_linear_346_820" x1="533.5" y1="507" x2="109.5" y2="20.0002" gradientUnits="userSpaceOnUse">
<stop stop-color="#99FF00"/>
<stop offset="1" stop-color="#CAC7C7"/>
</linearGradient>
<linearGradient id="paint11_linear_346_820" x1="533.5" y1="507" x2="109.5" y2="20.0002" gradientUnits="userSpaceOnUse">
<stop stop-color="#99FF00"/>
<stop offset="1" stop-color="#CAC7C7"/>
</linearGradient>
<linearGradient id="paint12_linear_346_820" x1="533.5" y1="507" x2="109.5" y2="20.0002" gradientUnits="userSpaceOnUse">
<stop stop-color="#99FF00"/>
<stop offset="1" stop-color="#CAC7C7"/>
</linearGradient>
<linearGradient id="paint13_linear_346_820" x1="533.5" y1="507" x2="109.5" y2="20.0002" gradientUnits="userSpaceOnUse">
<stop stop-color="#99FF00"/>
<stop offset="1" stop-color="#CAC7C7"/>
</linearGradient>
<linearGradient id="paint14_linear_346_820" x1="533.5" y1="507" x2="109.5" y2="20.0002" gradientUnits="userSpaceOnUse">
<stop stop-color="#99FF00"/>
<stop offset="1" stop-color="#CAC7C7"/>
</linearGradient>
<linearGradient id="paint15_linear_346_820" x1="533.5" y1="507" x2="109.5" y2="20.0002" gradientUnits="userSpaceOnUse">
<stop stop-color="#99FF00"/>
<stop offset="1" stop-color="#CAC7C7"/>
</linearGradient>
<linearGradient id="paint16_linear_346_820" x1="533.5" y1="507" x2="109.5" y2="20.0002" gradientUnits="userSpaceOnUse">
<stop stop-color="#99FF00"/>
<stop offset="1" stop-color="#CAC7C7"/>
</linearGradient>
<linearGradient id="paint17_linear_346_820" x1="533.5" y1="507" x2="109.5" y2="20.0002" gradientUnits="userSpaceOnUse">
<stop stop-color="#99FF00"/>
<stop offset="1" stop-color="#CAC7C7"/>
</linearGradient>
<linearGradient id="paint18_linear_346_820" x1="533.5" y1="507" x2="109.5" y2="20.0002" gradientUnits="userSpaceOnUse">
<stop stop-color="#99FF00"/>
<stop offset="1" stop-color="#CAC7C7"/>
</linearGradient>
<linearGradient id="paint19_linear_346_820" x1="533.5" y1="507" x2="109.5" y2="20.0002" gradientUnits="userSpaceOnUse">
<stop stop-color="#99FF00"/>
<stop offset="1" stop-color="#CAC7C7"/>
</linearGradient>
<linearGradient id="paint20_linear_346_820" x1="533.5" y1="507" x2="109.5" y2="20.0002" gradientUnits="userSpaceOnUse">
<stop stop-color="#99FF00"/>
<stop offset="1" stop-color="#CAC7C7"/>
</linearGradient>
<linearGradient id="paint21_linear_346_820" x1="533.5" y1="507" x2="109.5" y2="20.0002" gradientUnits="userSpaceOnUse">
<stop stop-color="#99FF00"/>
<stop offset="1" stop-color="#CAC7C7"/>
</linearGradient>
</defs>
</svg>
