<?xml version="1.0" encoding="utf-8"?>
<!-- Generator: Adobe Illustrator 24.1.2, SVG Export Plug-In . SVG Version: 6.00 Build 0)  -->
<svg version="1.1" id="Слой_1" xmlns="http://www.w3.org/2000/svg" xmlns:xlink="http://www.w3.org/1999/xlink" x="0px" y="0px"
	 viewBox="0 0 1314.4 278.3" style="enable-background:new 0 0 1314.4 278.3;" xml:space="preserve">
<style type="text/css">
	.st0{fill:none;}
	.st1{fill:#CAC7C7;}
	.st2{fill:#FFFFFF;}
	.st3{fill:none;stroke:#CAC7C7;stroke-width:1.5;}
</style>
<g>
	<polygon class="st0" points="733,153 733,154.9 736.5,150.1 785.5,81.5 785.5,76.3 736.5,7.9 733,3.1 733,5 733,34.4 733,39.4 
		728,39.4 661,39.4 661,59.2 717.5,59.2 722.5,59.2 722.5,64.2 722.5,93.6 722.5,98.6 717.5,98.6 661,98.6 661,118.6 728,118.6 
		733,118.6 733,123.6 	"/>
	<polygon class="st1" points="115.9,5 84.2,66.7 84.2,85.6 75.8,85.6 75.8,66.7 44.3,5 8.4,5 63.2,105.4 63.2,153.1 96.8,153.1 
		96.8,105.4 151.8,5 	"/>
	<path class="st2" d="M160.3,0h-8.4H116h-3.1l-1.4,2.7L80,63.9L48.8,2.7L47.4,0h-3.1H8.4H0l4,7.4l54.2,99.3v46.4v5h5h33.6h5v-5
		v-46.4l54.4-99.3L160.3,0z M96.8,153.1H63.2v-47.7L8.4,5h35.9l31.5,61.7v18.9h8.4V66.7L115.9,5h35.9l-55,100.4V153.1z"/>
	<path class="st1" d="M285.6,153.1L242.8,5h-69.3l-42.6,148h34l13.2-47.5h60.1l13.4,47.5v0.1H285.6z M186.3,76.1l17.6-62.7h8.4
		L230,76.1H186.3z"/>
	<path class="st2" d="M290.4,151.7L247.6,3.6l-1-3.6h-76.8l-1,3.6l-42.6,148l-1.8,6.4h44.4l1-3.7l12.2-43.8h52.5l12.2,43.2v4.4h45.6
		L290.4,151.7z M251.6,153.1L251.6,153.1l-13.4-47.6h-60.1L164.9,153h-34L173.5,5h69.3l42.8,148.1H251.6z"/>
	<path class="st2" d="M212.3,13.4h-8.4l-17.6,62.7H230L212.3,13.4z M207.7,18.4h0.8l14.9,52.7h-30.5L207.7,18.4z"/>
	<polygon class="st1" points="413.3,123.7 419.6,144.7 411.2,144.7 366.5,5 300.4,5 300.4,153 300.4,153.1 334,153.1 334,34.4 
		327.7,13.4 336.1,13.4 380.8,153.1 446.9,153.1 446.9,5 413.3,5 	"/>
	<path class="st2" d="M413.3,0h-5v5v114.2l-37-115.8L370.2,0h-3.6h-66.1h-5v5v148v0.1v5h5H334h5v-5V38.9l37,115.8l1.1,3.5h3.6h66.1
		h5v-5V5V0h-5H413.3z M446.9,153.1h-66.1L336.1,13.4h-8.4l6.3,21v118.7h-33.6V153V5h66.1l44.7,139.7h8.4l-6.3-21V5h33.6L446.9,153.1
		L446.9,153.1z"/>
	<path class="st1" d="M522.8,5h-54.6v148h54.6c1,0,2,0,3,0h0.2c0.9,0,1.7,0,2.6-0.1c0.8,0,1.6,0,2.5-0.1c0.3,0,0.7,0,1,0
		c0.8,0,1.5-0.1,2.3-0.1l0,0c0.5,0,0.9,0,1.4-0.1c0.2,0,0.4,0,0.6,0c0.4,0,0.8-0.1,1.2-0.1l0,0c0.8-0.1,1.5-0.1,2.3-0.2
		c0,0,0,0,0.1,0s0.1,0,0.2,0c0.6-0.1,1.2-0.1,1.8-0.2c0.3,0,0.7-0.1,1.1-0.1c0.1,0,0.1,0,0.2,0c0.7-0.1,1.5-0.2,2.2-0.3
		c0.5-0.1,0.9-0.1,1.4-0.2c0.5-0.1,0.9-0.2,1.4-0.2h0.2c0.3,0,0.6-0.1,0.9-0.2c0.5-0.1,1-0.2,1.4-0.3c0.1,0,0.2,0,0.3-0.1
		c0.1,0,0.1,0,0.2,0c0.3-0.1,0.6-0.1,0.9-0.2c0.1,0,0.1,0,0.2,0c0.5-0.1,1-0.2,1.6-0.3c0.5-0.1,1-0.2,1.4-0.3c0.2,0,0.4-0.1,0.7-0.2
		h0.1h0.1c0.1,0,0.2,0,0.3-0.1c2-0.5,4-1.1,5.9-1.8c0.5-0.2,1.1-0.4,1.6-0.6c0.5-0.2,0.9-0.3,1.4-0.5c0.3-0.1,0.6-0.2,0.9-0.4
		c0.1,0,0.2-0.1,0.2-0.1c0.1,0,0.2-0.1,0.2-0.1c0.3-0.1,0.6-0.2,0.9-0.4c0.4-0.2,0.7-0.3,1.1-0.5c0.4-0.1,0.7-0.3,1-0.5
		c0,0,0,0,0.1,0c0.3-0.2,0.7-0.3,1-0.5c0.4-0.2,0.9-0.5,1.3-0.7c0.1,0,0.2-0.1,0.3-0.1s0.1-0.1,0.2-0.1c0.3-0.2,0.6-0.3,1-0.5
		c0.9-0.5,1.8-1,2.6-1.6l0,0c0.3-0.2,0.5-0.3,0.8-0.5c0.5-0.3,1-0.7,1.5-1c0.1-0.1,0.2-0.2,0.3-0.2c0.3-0.2,0.7-0.5,1-0.7
		c0.2-0.2,0.5-0.3,0.7-0.5c0.1-0.1,0.3-0.2,0.4-0.3c0.3-0.2,0.5-0.4,0.8-0.6c0,0,0.1,0,0.1-0.1c0.5-0.4,0.9-0.8,1.4-1.2
		c0.3-0.3,0.6-0.5,0.9-0.8c0.5-0.5,1.1-1,1.6-1.5c0.3-0.3,0.5-0.5,0.8-0.8c0,0,0-0.1,0.1-0.1c0.3-0.4,0.7-0.7,1-1.1
		c0.3-0.4,0.7-0.8,1-1.2s0.6-0.8,0.9-1.1c0.3-0.3,0.6-0.7,0.8-1.1c0.2-0.3,0.4-0.6,0.7-0.9c0,0,0,0,0-0.1c0.2-0.3,0.5-0.7,0.7-1
		c0.1-0.1,0.1-0.2,0.2-0.3c0.3-0.4,0.5-0.8,0.8-1.2c0.3-0.4,0.5-0.9,0.8-1.3c0.2-0.3,0.4-0.6,0.5-0.9c0.6-1,1.1-2,1.6-3
		c0.2-0.4,0.4-0.8,0.6-1.2c0.2-0.4,0.4-0.8,0.6-1.2c0.2-0.5,0.4-1,0.6-1.4v-0.1c0.2-0.5,0.4-1,0.6-1.5c0.1-0.3,0.2-0.5,0.3-0.8l0,0
		c0.9-2.4,1.7-5,2.4-7.7c0.1-0.3,0.2-0.7,0.3-1.1s0.2-0.8,0.3-1.2c0.1-0.3,0.1-0.6,0.2-0.9c0.1-0.6,0.3-1.3,0.4-2
		c0.1-0.6,0.2-1.2,0.3-1.9c0.1-0.4,0.1-0.8,0.2-1.2v-0.1c0-0.1,0-0.2,0-0.3c0.1-0.5,0.2-1,0.2-1.5c0.2-1.5,0.4-3,0.5-4.6l0,0
		c0-0.4,0.1-0.9,0.1-1.3c0-0.1,0-0.2,0-0.3c0-0.3,0-0.6,0.1-0.9c0,0,0-0.1,0-0.2c0-0.4,0.1-0.8,0.1-1.3c0,0,0-0.1,0-0.2
		c0-0.3,0.1-0.7,0.1-1.1c0-0.2,0-0.4,0-0.6s0-0.4,0-0.6c0-0.1,0-0.1,0-0.2c0-0.7,0.1-1.3,0.1-2c0-0.1,0-0.3,0-0.5c0-0.9,0-1.9,0-2.9
		C603.4,15.3,562.3,5,522.8,5z M522.8,123.6L522.8,123.6l-21,0.1V34.4h21c26.2,0,47,2.1,47,44.5
		C569.8,121.5,549.1,123.6,522.8,123.6z"/>
	<path class="st2" d="M580.8,14c-13.8-9.5-32.2-14-58-14h-59.6v158h59.6c5,0,9.7-0.2,14.2-0.5l0,0c1.8-0.1,3.6-0.3,5.3-0.5
		c15.9-1.8,28.4-6.1,38.4-13c18.4-12.7,27.7-34.6,27.7-65.1C608.4,48.5,599.1,26.7,580.8,14z M603.4,82.2c0,0.7,0,1.3-0.1,2
		c0,0.1,0,0.1,0,0.2c0,0.2,0,0.4,0,0.6s0,0.4,0,0.6c0,0.4,0,0.7-0.1,1.1c0,0.1,0,0.1,0,0.2c0,0.4,0,0.9-0.1,1.3c0,0,0,0.1,0,0.2
		c0,0.3,0,0.6-0.1,0.9c0,0.1,0,0.2,0,0.3c0,0.5-0.1,0.9-0.1,1.3l0,0c-0.1,1.6-0.3,3.1-0.5,4.6c-0.1,0.5-0.1,1-0.2,1.5
		c0,0.1,0,0.2,0,0.3v0.1c0,0.4-0.1,0.8-0.2,1.2c-0.1,0.6-0.2,1.3-0.3,1.9c-0.1,0.7-0.3,1.3-0.4,2c-0.1,0.3-0.1,0.6-0.2,0.9
		c-0.1,0.4-0.2,0.8-0.3,1.2c-0.1,0.4-0.2,0.7-0.3,1.1c-0.7,2.7-1.5,5.3-2.4,7.7l0,0c-0.1,0.3-0.2,0.5-0.3,0.8
		c-0.2,0.5-0.4,1-0.6,1.5v0.1c-0.2,0.5-0.4,1-0.6,1.4c-0.2,0.4-0.4,0.8-0.6,1.2c-0.2,0.4-0.4,0.8-0.6,1.2c-0.5,1-1.1,2.1-1.6,3
		c-0.2,0.3-0.3,0.6-0.5,0.9c-0.3,0.4-0.5,0.9-0.8,1.3s-0.5,0.8-0.8,1.2c-0.1,0.1-0.1,0.2-0.2,0.3c-0.2,0.3-0.5,0.7-0.7,1
		c0,0,0,0,0,0.1c-0.2,0.3-0.4,0.6-0.7,0.9c-0.3,0.4-0.5,0.7-0.8,1.1c-0.3,0.4-0.6,0.8-0.9,1.1c-0.3,0.4-0.7,0.8-1,1.2
		s-0.7,0.7-1,1.1c0,0,0,0.1-0.1,0.1c-0.3,0.3-0.5,0.5-0.8,0.8c-0.5,0.5-1,1-1.6,1.5c-0.3,0.3-0.6,0.6-0.9,0.8
		c-0.5,0.4-0.9,0.8-1.4,1.2c0,0-0.1,0-0.1,0.1c-0.3,0.2-0.5,0.4-0.8,0.6c-0.1,0.1-0.3,0.2-0.4,0.3c-0.2,0.2-0.5,0.4-0.7,0.5
		c-0.3,0.3-0.7,0.5-1,0.7c-0.1,0.1-0.2,0.2-0.3,0.2c-0.5,0.3-1,0.7-1.5,1c-0.3,0.2-0.5,0.3-0.8,0.5l0,0c-0.9,0.5-1.7,1.1-2.6,1.6
		c-0.3,0.2-0.6,0.4-1,0.5c-0.1,0-0.1,0.1-0.2,0.1c-0.1,0-0.2,0.1-0.3,0.1c-0.4,0.2-0.9,0.5-1.3,0.7c-0.3,0.2-0.7,0.3-1,0.5
		c0,0,0,0-0.1,0c-0.3,0.2-0.7,0.3-1,0.5c-0.4,0.2-0.7,0.3-1.1,0.5c-0.3,0.1-0.6,0.3-0.9,0.4c-0.1,0-0.2,0.1-0.2,0.1
		c-0.1,0-0.2,0.1-0.2,0.1c-0.3,0.1-0.6,0.2-0.9,0.4c-0.5,0.2-0.9,0.4-1.4,0.5c-0.5,0.2-1,0.4-1.6,0.6c-1.9,0.7-3.9,1.3-5.9,1.8
		c-0.1,0-0.2,0-0.3,0.1c0,0,0,0-0.1,0h-0.1c-0.2,0.1-0.4,0.1-0.7,0.2c-0.5,0.1-1,0.2-1.4,0.3c-0.5,0.1-1,0.2-1.6,0.3
		c-0.1,0-0.1,0-0.2,0c-0.3,0.1-0.6,0.1-0.9,0.2c-0.1,0-0.1,0-0.2,0c-0.1,0-0.2,0-0.3,0.1c-0.5,0.1-1,0.2-1.4,0.3
		c-0.3,0.1-0.6,0.1-0.9,0.2H548c-0.5,0.1-0.9,0.2-1.4,0.2c-0.5,0.1-0.9,0.2-1.4,0.2c-0.7,0.1-1.5,0.2-2.2,0.3c0,0-0.1,0-0.2,0
		c-0.4,0-0.7,0.1-1.1,0.1c-0.6,0.1-1.2,0.1-1.8,0.2c-0.1,0-0.1,0-0.2,0c0,0,0,0-0.1,0c-0.8,0.1-1.5,0.1-2.3,0.2l0,0
		c-0.4,0-0.8,0.1-1.2,0.1c-0.2,0-0.4,0-0.6,0c-0.5,0-0.9,0.1-1.4,0.1l0,0c-0.8,0-1.5,0.1-2.3,0.1c-0.3,0-0.7,0-1,0
		c-0.8,0-1.6,0.1-2.5,0.1c-0.8,0-1.7,0-2.6,0.1h-0.2c-1,0-2,0-3,0h-54.6V5h54.6c39.5,0,80.6,10.3,80.6,73.9c0,1,0,1.9,0,2.9
		C603.4,81.9,603.4,82.1,603.4,82.2z"/>
	<path class="st2" d="M522.8,34.4h-21v89.3h21v-0.1c26.3,0,47-2.1,47-44.7C569.8,36.5,549,34.4,522.8,34.4z M522.8,118.6h-5v0.1h-11
		V39.4h16c26,0,42,1.9,42,39.5C564.8,116.7,548.9,118.6,522.8,118.6z"/>
	<polygon class="st1" points="656,93.6 717.5,93.6 717.5,64.2 656,64.2 656,34.4 728,34.4 728,5 622.4,5 622.4,153 728,153 
		728,123.6 656,123.6 	"/>
	<polygon class="st1" points="847.6,74.7 897.8,5 859.2,5 819.1,61.7 779.2,5 740.5,5 790.5,74.7 790.5,83.1 740.5,153 779.2,153 
		819.1,96.1 859.2,153 897.8,153 847.6,83.1 	"/>
	<path class="st2" d="M852.6,81.5v-5.2l49.3-68.4l5.7-7.9h-9.8h-38.6h-2.6l-1.5,2.1l-36,50.9L783.3,2.1L781.8,0h-2.6h-38.7H733h-2.2
		H728H622.4h-5v5v148v5h5H728h2.8h2.2h7.5h38.7h2.6l1.5-2.1l35.8-51.1l36,51.1l1.5,2.1h2.6h38.6h9.7l-5.7-7.9L852.6,81.5z
		 M859.2,153l-40.1-56.9L779.2,153h-38.7l50-69.9v-8.4L740.5,5h38.7l39.9,56.7L859.2,5h38.6l-50.2,69.7v8.4l50.2,69.9H859.2z
		 M728,153H622.4V5H728v29.4h-72v29.8h61.5v29.4H656v30h72V153z M728,118.6h-67v-20h56.5h5v-5V64.2v-5h-5H661V39.4h67h5v-5V5V3.1
		l3.4,4.8l49.1,68.4v5.2l-49.1,68.6l-3.4,4.8V153v-29.4v-5H728z"/>
</g>
<path class="st2" d="M206.2,216l-4,2l-4-2l4-2L206.2,216z"/>
<path class="st3" d="M202.7,216.1h0.1h0.2H202.7z M205.9,215.8l-0.8-0.4l-2.8-1.4l-4,2l0.2,0.1l1.4,0.7l0.4,0.2l2,1l2.5-1.2l0,0
	l0.7-0.4l0.6-0.3l0.2-0.1L205.9,215.8z M203.5,216.1l-0.4-0.1l-1.2-0.2l0.8,0.3h0.3h-0.2l-0.9,0.3l1.2-0.2l0.7-0.1h0.3H203.5z
	 M1313.6,152.4V123H1208v148h105.6v-29.4h-72v-30h61.5v-29.4h-61.5v-29.8L1313.6,152.4L1313.6,152.4z M1119.1,243.8V123h-33.6v132.5
	c0,0.4,0,0.8,0,1.1c0,0.2,0,0.4,0,0.5v0.1c0,0.2,0,0.3,0,0.5c0,0.3,0,0.5,0.1,0.7c0.1,0.7,0.2,1.3,0.3,1.9c0.1,0.3,0.1,0.6,0.2,0.9
	c0,0.1,0.1,0.3,0.1,0.4c0.1,0.2,0.1,0.5,0.2,0.7s0.1,0.4,0.2,0.6c0.1,0.3,0.2,0.7,0.4,1c0,0.1,0.1,0.2,0.1,0.3
	c0.1,0.3,0.3,0.6,0.4,0.9c0.6,1.1,1.2,2,2,2.8c0.5,0.6,1.1,1.2,1.8,1.7c0.2,0.2,0.4,0.3,0.6,0.4c0.2,0.2,0.4,0.3,0.7,0.4
	c0.2,0.1,0.4,0.3,0.6,0.4c0.3,0.1,0.5,0.3,0.8,0.4s0.6,0.3,0.9,0.4c0.1,0.1,0.2,0.1,0.3,0.1c0.3,0.1,0.6,0.2,0.9,0.3
	c0.2,0.1,0.4,0.1,0.6,0.2s0.4,0.1,0.7,0.2c0.2,0,0.4,0.1,0.6,0.1s0.4,0.1,0.7,0.1c0.4,0.1,0.8,0.1,1.3,0.2c0.1,0,0.3,0,0.4,0
	c0.2,0,0.4,0,0.6,0c0.6,0.1,1.3,0.1,2,0.1h0.6l5.2-0.1l82.3-1.9v-29.4L1119.1,243.8z M1068.9,205.2c0-0.2,0-0.4,0-0.5v-0.1
	c0-0.2,0-0.4,0-0.6c0-0.5-0.1-1-0.2-1.5c0-0.1,0-0.2,0-0.3c-0.1-0.6-0.2-1.2-0.3-1.7c-0.1-0.3-0.1-0.5-0.2-0.8
	c-0.1-0.5-0.3-0.9-0.4-1.3c0-0.2-0.1-0.3-0.2-0.5l0,0c0-0.1-0.1-0.1-0.1-0.2c-0.1-0.2-0.1-0.4-0.2-0.5c0,0,0-0.1-0.1-0.1
	c0,0,0-0.1-0.1-0.1c-0.1-0.1-0.1-0.2-0.2-0.3s-0.1-0.3-0.2-0.4c0-0.1,0-0.1-0.1-0.2c-0.1-0.2-0.2-0.4-0.3-0.5
	c-0.1-0.2-0.2-0.4-0.3-0.5c-0.2-0.3-0.4-0.6-0.6-0.8s-0.4-0.5-0.6-0.7c-0.1-0.2-0.3-0.3-0.4-0.4c-0.2-0.2-0.4-0.4-0.6-0.5
	c-0.2-0.2-0.4-0.3-0.6-0.5c-0.2-0.1-0.3-0.3-0.5-0.4c-0.1,0-0.1-0.1-0.2-0.1c0,0-0.1-0.1-0.2-0.1s-0.1-0.1-0.2-0.1
	c-0.1-0.1-0.2-0.2-0.4-0.2c0,0-0.1,0-0.1-0.1c0,0,0,0-0.1,0s-0.1-0.1-0.2-0.1c0,0,0,0-0.1,0s-0.2-0.1-0.3-0.2
	c-0.3-0.1-0.5-0.3-0.8-0.4h-0.1c-0.1-0.1-0.3-0.1-0.4-0.2c-0.1,0-0.2-0.1-0.2-0.1c-0.1,0-0.1-0.1-0.2-0.1s-0.2-0.1-0.4-0.1
	c-0.1,0-0.2-0.1-0.3-0.1c-0.1,0-0.2-0.1-0.3-0.1c-0.2-0.1-0.3-0.1-0.5-0.1c-0.1,0-0.2-0.1-0.3-0.1c-0.1,0-0.1,0-0.2,0
	s-0.3-0.1-0.4-0.1s-0.1,0-0.1,0c-0.2-0.1-0.5-0.1-0.7-0.2h-0.1c-0.2-0.1-0.5-0.1-0.7-0.1c-0.1,0-0.2,0-0.2,0c-0.6-0.1-1.3-0.2-2-0.2
	s-1.3-0.1-2-0.1h-77.3v25.2h34.2c0,0.6,0,1.2,0,1.8s0,1.1-0.1,1.7c0,0.1,0,0.2,0,0.3c0,0.4-0.1,0.9-0.1,1.3c0,0.3-0.1,0.7-0.1,1
	c0,0.2-0.1,0.5-0.1,0.7c-0.1,0.5-0.2,0.9-0.3,1.4c0,0.2-0.1,0.5-0.1,0.7c-0.1,0.4-0.2,0.8-0.3,1.2c-0.1,0.2-0.1,0.4-0.2,0.6
	c0,0.1-0.1,0.2-0.1,0.3v0.1c0,0.1,0,0.1-0.1,0.2l0,0c0,0.2-0.1,0.3-0.2,0.5c0,0.1,0,0.1,0,0.2c-0.1,0.2-0.1,0.4-0.2,0.6
	c0,0.1,0,0.1-0.1,0.2c-0.1,0.3-0.2,0.5-0.3,0.8c-0.2,0.4-0.3,0.8-0.5,1.2c-0.1,0.3-0.3,0.6-0.5,0.9c0,0.1-0.1,0.1-0.1,0.2
	c-0.1,0.2-0.2,0.4-0.3,0.5c-0.2,0.3-0.3,0.6-0.5,0.9c-0.4,0.7-0.9,1.4-1.5,2.1c-0.1,0.1-0.1,0.2-0.2,0.3l-0.1,0.1
	c-0.1,0.2-0.3,0.3-0.4,0.5l0,0c-0.2,0.2-0.4,0.4-0.6,0.6c0,0,0,0.1-0.1,0.1c-0.2,0.2-0.4,0.4-0.6,0.6c-0.3,0.3-0.5,0.5-0.8,0.7
	c-0.2,0.2-0.3,0.3-0.5,0.4c-0.3,0.3-0.6,0.5-1,0.8c-0.7,0.5-1.3,1-2.1,1.4c-0.1,0.1-0.3,0.1-0.4,0.2c-0.1,0.1-0.3,0.2-0.4,0.3
	c-0.3,0.2-0.6,0.3-0.9,0.5c-0.2,0.1-0.4,0.2-0.5,0.3c-0.2,0.1-0.4,0.2-0.6,0.3c-0.1,0-0.1,0.1-0.2,0.1c-0.3,0.2-0.6,0.3-0.9,0.4
	c-0.2,0.1-0.4,0.2-0.5,0.2c-0.3,0.1-0.6,0.3-1,0.4c-0.1,0-0.2,0-0.2,0.1c-0.1,0-0.1,0-0.2,0.1c-0.4,0.1-0.7,0.3-1.1,0.4
	c-0.1,0-0.1,0-0.2,0.1h-0.1c-0.4,0.1-0.9,0.3-1.3,0.4c-0.4,0.1-0.9,0.2-1.3,0.3l0,0c-0.1,0-0.2,0-0.3,0.1l0,0h-0.1
	c-0.1,0-0.1,0-0.2,0c-0.4,0.1-0.8,0.2-1.1,0.2c-0.1,0-0.2,0-0.3,0h-0.1l0,0c-1,0.2-2,0.3-3.1,0.4h-0.1c-0.2,0-0.3,0-0.5,0
	c-0.1,0-0.2,0-0.3,0c-0.4,0-0.7,0.1-1.1,0.1c-1.2,0.1-2.4,0.1-3.6,0.1c-1.1,0-2.3,0-3.3-0.1c-0.5,0-1.1-0.1-1.6-0.1s-1-0.1-1.6-0.2
	h-0.1c-0.3,0-0.6-0.1-0.9-0.1c-0.3,0-0.7-0.1-1-0.2c-1-0.2-2-0.4-2.9-0.6c-0.5-0.1-1.1-0.3-1.6-0.4c-0.4-0.1-0.7-0.2-1-0.3
	c-0.5-0.2-1.1-0.4-1.6-0.6c-0.2-0.1-0.5-0.2-0.7-0.3c-0.7-0.3-1.4-0.6-2.1-1c-0.3-0.1-0.5-0.3-0.8-0.4c-0.2-0.1-0.4-0.2-0.5-0.3
	c-0.2-0.1-0.4-0.2-0.6-0.3l0,0c-0.2-0.1-0.4-0.2-0.5-0.3c-0.5-0.3-0.9-0.6-1.3-0.9c-0.4-0.3-0.7-0.5-1-0.8c-0.2-0.2-0.5-0.4-0.7-0.6
	c-0.3-0.2-0.6-0.5-0.8-0.8c-0.5-0.5-1-0.9-1.4-1.4c-0.2-0.2-0.4-0.5-0.6-0.7c-0.3-0.3-0.5-0.6-0.8-0.9c-0.3-0.3-0.5-0.6-0.7-1
	c-0.3-0.3-0.5-0.7-0.7-1.1c-0.2-0.3-0.3-0.5-0.5-0.8c-0.8-1.4-1.6-2.8-2.3-4.4c-0.1-0.3-0.3-0.6-0.4-0.9c-0.1-0.3-0.3-0.7-0.4-1
	c-0.3-0.6-0.5-1.3-0.7-2s-0.4-1.4-0.6-2.2c-0.2-0.6-0.3-1.2-0.5-1.8c0-0.1,0-0.1,0-0.2c-0.1-0.3-0.2-0.6-0.2-1
	c-0.1-0.5-0.2-0.9-0.3-1.4s-0.2-0.9-0.3-1.4c-0.2-1.3-0.4-2.7-0.6-4.1c0-0.4-0.1-0.8-0.1-1.2c-0.1-0.8-0.2-1.6-0.2-2.5
	c0-0.4-0.1-0.8-0.1-1.2c0-0.2,0-0.3,0-0.5c-0.1-0.9-0.1-1.7-0.1-2.6c0-0.2,0-0.3,0-0.5c0-0.8-0.1-1.6-0.1-2.4c0-0.5,0-1,0-1.6
	c0-0.4,0-0.8,0-1.2c0-0.2,0-0.4,0-0.6c0-0.5,0-1.1,0-1.6c0-0.6,0-1.1,0.1-1.7c0-0.7,0.1-1.3,0.1-1.9c0-0.4,0.1-0.9,0.1-1.3
	c0-0.4,0.1-0.8,0.1-1.2c0.1-0.6,0.1-1.3,0.2-1.9c0.1-0.5,0.1-1,0.2-1.5c0.2-1.2,0.4-2.4,0.7-3.5c0.1-0.4,0.2-0.8,0.3-1.3
	s0.3-1,0.4-1.5c0.2-0.7,0.4-1.4,0.6-2c0.2-0.7,0.4-1.3,0.7-1.9c0.1-0.4,0.3-0.8,0.5-1.2c0.1-0.2,0.2-0.4,0.3-0.6
	c0.2-0.4,0.3-0.8,0.5-1.2c0.4-0.9,0.8-1.8,1.3-2.6c0.2-0.3,0.4-0.6,0.6-1c0.1-0.2,0.3-0.4,0.4-0.6c0.3-0.5,0.5-0.9,0.8-1.3
	c0.1-0.2,0.2-0.3,0.3-0.5c0,0,0-0.1,0.1-0.1c0.2-0.3,0.4-0.6,0.6-0.8c0.6-0.8,1.3-1.6,2-2.4c0.2-0.2,0.4-0.5,0.7-0.7
	c0.4-0.4,0.8-0.8,1.3-1.2c0.3-0.3,0.5-0.5,0.8-0.7s0.5-0.4,0.8-0.6c0.4-0.3,0.8-0.6,1.1-0.9c0.2-0.1,0.4-0.3,0.6-0.4
	c0.2-0.1,0.4-0.3,0.6-0.4c0.2-0.2,0.5-0.3,0.7-0.5c3.4-2.1,7.4-3.6,11.7-4.6c0.4-0.1,0.9-0.2,1.3-0.3c0.4-0.1,0.9-0.2,1.3-0.2
	c0.5-0.1,1.1-0.1,1.6-0.2c0.7-0.1,1.4-0.2,2-0.2c0.3,0,0.6,0,0.9-0.1c0.4,0,0.7,0,1.1-0.1c0.2,0,0.3,0,0.5,0c0.1,0,0.1,0,0.2,0l0,0
	c0.1,0,0.3,0,0.4,0c0.2,0,0.3,0,0.5,0c0.1,0,0.2,0,0.4,0c0.5,0,1.1,0,1.6,0c1.4,0,2.7,0,4,0.1c0.3,0,0.6,0,0.9,0.1l0,0h0.1l0,0l0,0
	h0.1c0.2,0,0.5,0,0.7,0.1c0,0,0.1,0,0.2,0c0.1,0,0.3,0,0.4,0c0.4,0,0.7,0,1.1,0.1c0.1,0,0.2,0,0.2,0h0.1c0.2,0,0.4,0,0.7,0.1
	c0.2,0,0.4,0.1,0.7,0.1l0,0c0.3,0,0.5,0.1,0.8,0.1c0.1,0,0.2,0,0.3,0c0.2,0,0.3,0,0.5,0.1c0.1,0,0.2,0,0.3,0s0.3,0,0.4,0.1
	c0.2,0,0.4,0,0.5,0.1c0.3,0,0.6,0.1,0.9,0.2c0.4,0.1,0.7,0.1,1.1,0.2c0.1,0,0.1,0,0.2,0c0.5,0.1,0.9,0.2,1.4,0.4
	c0.7,0.2,1.4,0.4,2.1,0.6c0.1,0,0.1,0,0.2,0.1c0.8,0.3,1.7,0.6,2.4,0.9c0.2,0.1,0.5,0.2,0.7,0.3c0.3,0.1,0.5,0.2,0.7,0.3
	s0.4,0.2,0.5,0.3c0.3,0.2,0.7,0.4,1,0.6c0.4,0.2,0.9,0.5,1.3,0.8c0.4,0.3,0.8,0.5,1.2,0.8c0.3,0.2,0.5,0.4,0.8,0.6
	c0.2,0.1,0.4,0.3,0.5,0.4c0.3,0.2,0.5,0.4,0.8,0.6c0.3,0.2,0.5,0.4,0.7,0.7c0.2,0.1,0.3,0.3,0.4,0.4c0.2,0.2,0.3,0.3,0.5,0.5
	c0.1,0.2,0.3,0.3,0.4,0.5c0.2,0.2,0.4,0.4,0.5,0.7c0.1,0.1,0.2,0.3,0.3,0.4c0.2,0.2,0.3,0.4,0.5,0.7c0.1,0.2,0.3,0.4,0.4,0.5
	c0.1,0.1,0.2,0.3,0.3,0.4c0.1,0.2,0.2,0.3,0.3,0.5c0.4,0.6,0.8,1.3,1.1,1.9c0.1,0.2,0.2,0.3,0.3,0.5l0,0c0,0,0,0.1,0.1,0.1
	c0.1,0.2,0.2,0.4,0.3,0.7c0.1,0.2,0.2,0.3,0.2,0.5c0.1,0.3,0.3,0.6,0.4,0.8c0.1,0.2,0.2,0.5,0.3,0.7c0.2,0.4,0.3,0.8,0.5,1.2
	c0.2,0.5,0.3,0.9,0.5,1.4c0.1,0.4,0.3,0.9,0.4,1.3c0.1,0.5,0.3,1,0.4,1.5c0,0,0,0,0,0.1c0.1,0.5,0.2,1.1,0.3,1.6h33.6
	c-0.1-0.6-0.2-1.3-0.3-1.9c0-0.1,0-0.2-0.1-0.3c-0.1-0.6-0.2-1.3-0.4-1.9c-0.1-0.5-0.2-0.9-0.3-1.4c-0.1-0.3-0.1-0.6-0.2-0.9
	c-0.1-0.4-0.2-0.9-0.3-1.3c-0.1-0.3-0.2-0.7-0.3-1c-0.1-0.4-0.2-0.8-0.4-1.3c-0.1-0.3-0.2-0.5-0.3-0.8c-0.3-0.8-0.5-1.5-0.8-2.3
	c-0.1-0.4-0.3-0.8-0.5-1.2c-0.2-0.5-0.4-1-0.6-1.5c-0.2-0.4-0.4-0.9-0.6-1.3c-0.4-0.9-0.8-1.8-1.3-2.6c-0.3-0.6-0.6-1.2-0.9-1.7
	l-0.1-0.1c-0.3-0.6-0.7-1.2-1-1.8c-0.3-0.5-0.6-0.9-0.9-1.4c-0.7-1.1-1.4-2.1-2.2-3.2c-0.3-0.4-0.5-0.7-0.8-1.1
	c-0.4-0.5-0.8-1-1.2-1.5c-0.7-0.8-1.4-1.6-2.1-2.4c-0.3-0.3-0.5-0.5-0.8-0.8c-0.4-0.4-0.8-0.8-1.1-1.1c-0.3-0.3-0.7-0.7-1.1-1
	s-0.7-0.7-1.1-1c-0.7-0.7-1.5-1.3-2.2-1.9c-1.1-0.9-2.3-1.8-3.5-2.7c-0.8-0.6-1.6-1.1-2.5-1.7c-0.7-0.5-1.4-0.9-2.1-1.3
	c-0.3-0.2-0.6-0.4-0.9-0.5c-0.3-0.2-0.7-0.4-1-0.6c-0.4-0.2-0.8-0.5-1.3-0.7c-1.7-0.9-3.5-1.8-5.3-2.5c-0.2-0.1-0.5-0.2-0.7-0.3
	c-0.2-0.1-0.5-0.2-0.7-0.3c-0.5-0.2-0.9-0.4-1.4-0.5c-0.2-0.1-0.5-0.2-0.7-0.3c-0.2-0.1-0.5-0.2-0.7-0.3c-0.4-0.1-0.7-0.3-1.1-0.4
	c-0.6-0.2-1.2-0.4-1.8-0.6c-0.5-0.2-1-0.3-1.5-0.4c-1-0.3-1.9-0.6-2.9-0.8c-0.5-0.1-1-0.3-1.5-0.4c-0.3-0.1-0.6-0.1-0.9-0.2
	c-0.5-0.1-1.1-0.2-1.6-0.3c-0.2,0-0.3-0.1-0.5-0.1c-0.5-0.1-1-0.2-1.5-0.3c-0.4-0.1-0.7-0.1-1-0.2c-0.1,0-0.3,0-0.4-0.1
	c-0.3,0-0.6-0.1-0.8-0.1c-0.3-0.1-0.6-0.1-0.9-0.1c-0.5-0.1-0.9-0.1-1.4-0.2c-0.6-0.1-1.1-0.1-1.7-0.2c0,0-0.1,0-0.2,0
	c-0.2,0-0.5,0-0.7-0.1c-0.1,0-0.1,0-0.2,0c-0.2,0-0.5,0-0.7-0.1c-0.5,0-1.1-0.1-1.6-0.1c-0.7,0-1.4-0.1-2.1-0.1l0,0h-0.1
	c-0.2,0-0.4,0-0.5,0s-0.2,0-0.2,0c-0.1,0-0.1,0-0.2,0c-0.1,0-0.2,0-0.3,0c-0.5,0-1.1,0-1.6,0c-1.3,0-2.7,0-4,0.1
	c-2.6,0.1-5.2,0.4-7.8,0.7c-0.4,0-0.8,0.1-1.1,0.2c0,0-0.1,0-0.2,0c-0.2,0-0.4,0.1-0.6,0.1c-0.1,0-0.2,0-0.2,0c-0.1,0-0.1,0-0.2,0
	c-0.4,0.1-0.8,0.1-1.1,0.2c-0.4,0.1-0.7,0.1-1.1,0.2l0,0h-0.1c-0.1,0-0.2,0-0.3,0.1h-0.1c-0.3,0.1-0.6,0.1-0.8,0.2
	c-1.1,0.2-2.2,0.5-3.3,0.8c-0.8,0.2-1.6,0.5-2.5,0.7s-1.6,0.5-2.4,0.8c-0.4,0.1-0.8,0.3-1.2,0.4c-0.8,0.3-1.6,0.6-2.4,0.9
	c-0.4,0.2-0.8,0.3-1.2,0.5c-0.6,0.3-1.2,0.5-1.8,0.8s-1.2,0.5-1.8,0.8s-1.2,0.6-1.8,0.9c-0.6,0.3-1.2,0.6-1.7,0.9
	c-0.5,0.3-1,0.6-1.5,0.8c-0.5,0.3-1,0.6-1.5,0.9c-0.5,0.3-1,0.6-1.4,0.9c-1.7,1.1-3.4,2.3-5,3.6c-9.3,7.3-16.6,16.9-21.3,28.3
	c-0.8,2-1.6,4-2.2,6.1c-0.2,0.5-0.3,1-0.5,1.6c-0.1,0.4-0.2,0.8-0.3,1.1c-0.3,0.9-0.5,1.8-0.7,2.7c-0.1,0.4-0.2,0.8-0.3,1.1
	c-0.1,0.4-0.2,0.7-0.2,1.1c0,0.1,0,0.3-0.1,0.4c-0.1,0.7-0.3,1.4-0.4,2.2c-0.1,0.5-0.2,0.9-0.2,1.4c-0.1,0.5-0.2,1-0.2,1.4
	c-0.1,0.8-0.2,1.5-0.3,2.3c0,0.3-0.1,0.7-0.1,1c-0.1,0.6-0.1,1.3-0.2,2c0,0.4-0.1,0.8-0.1,1.3c0,0.6-0.1,1.2-0.1,1.9
	c0,0.8-0.1,1.5-0.1,2.3s0,1.6,0,2.4c0,0.7,0,1.4,0,2.1c0,0.9,0,1.7,0.1,2.6c0,0.3,0,0.5,0,0.8c0,0.7,0.1,1.4,0.1,2.1
	c0,0.5,0.1,1,0.1,1.5c0,0.6,0.1,1.2,0.2,1.8c0.3,2.9,0.7,5.8,1.2,8.6c0.1,0.4,0.2,0.8,0.2,1.2c0.1,0.4,0.1,0.7,0.2,1.1
	c0.1,0.6,0.2,1.1,0.4,1.7c0.1,0.5,0.2,1,0.4,1.5c0.1,0.5,0.2,1,0.4,1.5c0.1,0.5,0.3,1,0.4,1.5c0.1,0.3,0.1,0.5,0.2,0.7
	c0.2,0.5,0.3,1.1,0.5,1.6c0.2,0.6,0.4,1.2,0.6,1.8c0.1,0.3,0.2,0.7,0.3,1c0.2,0.6,0.4,1.2,0.6,1.8c0.2,0.6,0.4,1.2,0.7,1.7
	c0.2,0.6,0.5,1.2,0.7,1.7s0.5,1.1,0.7,1.6c0.4,1,0.9,1.9,1.4,2.8c0.2,0.5,0.5,1,0.8,1.4c0,0,0,0.1,0.1,0.1c0.2,0.4,0.4,0.8,0.6,1.1
	c1.2,2.1,2.5,4.1,3.9,6c0.6,0.9,1.3,1.8,2,2.6c4.4,5.4,9.6,9.9,15.7,13.5c0.4,0.2,0.7,0.4,1.1,0.6c0.9,0.5,1.8,1,2.7,1.4
	c1,0.5,2,0.9,3,1.4c0,0,0,0,0.1,0c0.5,0.2,1.1,0.4,1.6,0.6c0.6,0.3,1.3,0.5,1.9,0.7c7.7,2.8,16.4,4.2,26,4.3
	c26.1,0,43-12.3,51.8-33.3c0.4-1,0.8-2.1,1.2-3.1c0.4-1.1,0.8-2.2,1.1-3.3c0.5-1.7,1-3.4,1.5-5.1c0.3-1.2,0.6-2.4,0.8-3.5
	c0.5-2.4,1-4.8,1.3-7.4c0.3-2,0.5-4.1,0.7-6.2c0-0.5,0.1-0.9,0.1-1.4c0.1-0.6,0.1-1.2,0.2-1.9c0.1-0.9,0.1-1.8,0.2-2.7
	c0.2-2.7,0.2-5.5,0.3-8.3h8.4l-6.3,23.1v51h33.6v-64.7C1068.9,206,1068.9,205.6,1068.9,205.2z M889,179.4c-0.5-2.4-1.1-4.8-1.7-7.1
	c-0.1-0.4-0.3-0.9-0.4-1.3c0-0.1-0.1-0.3-0.1-0.4c-0.1-0.3-0.2-0.6-0.3-0.9c-0.1-0.3-0.2-0.6-0.3-0.9c0-0.1-0.1-0.3-0.1-0.4
	c-0.2-0.4-0.3-0.8-0.5-1.3c0-0.1-0.1-0.2-0.1-0.3v-0.1c-0.1-0.2-0.2-0.5-0.3-0.7c-0.1-0.3-0.3-0.6-0.4-0.9c-0.2-0.4-0.3-0.8-0.5-1.2
	c-0.2-0.5-0.4-0.9-0.6-1.3c0-0.1-0.1-0.2-0.1-0.3c-0.1-0.3-0.2-0.5-0.4-0.8c-0.2-0.4-0.3-0.7-0.5-1.1c-0.1-0.2-0.2-0.3-0.2-0.5
	c0-0.1-0.1-0.2-0.1-0.3c-0.2-0.4-0.4-0.8-0.6-1.2c-0.1-0.1-0.1-0.3-0.2-0.4c-0.1-0.2-0.2-0.3-0.3-0.5s-0.3-0.5-0.4-0.7
	c-0.3-0.5-0.5-0.9-0.8-1.4c0-0.1-0.1-0.1-0.1-0.2c-0.1-0.1-0.1-0.2-0.2-0.3c-0.1-0.3-0.3-0.5-0.5-0.8c-0.2-0.4-0.5-0.8-0.7-1.1
	c-8.9-13.8-22.4-24.1-39.7-29l0,0c-1.6-0.5-3.3-0.9-4.9-1.2c-0.7-0.1-1.4-0.3-2.1-0.4c-0.1,0-0.2,0-0.2,0c-1-0.2-1.9-0.3-2.9-0.5
	c-0.6-0.1-1.2-0.2-1.7-0.2c-0.3,0-0.5-0.1-0.8-0.1c-0.7-0.1-1.5-0.2-2.2-0.2c-1.4-0.1-2.8-0.2-4.2-0.3c-1.4-0.1-2.9-0.1-4.3-0.1
	c-1.2,0-2.5,0-3.7,0.1c-0.3,0-0.7,0-1,0c-0.4,0-0.7,0-1.1,0.1c-0.6,0-1.3,0.1-1.9,0.1c-0.6,0-1.1,0.1-1.7,0.1
	c-0.6,0-1.1,0.1-1.7,0.2c-1.1,0.1-2.2,0.3-3.3,0.4c-21.9,3.4-38.8,14.8-49.2,31c-0.3,0.5-0.6,1-0.9,1.5c-0.4,0.7-0.8,1.4-1.2,2.1
	c0,0.1-0.1,0.1-0.1,0.2c-0.2,0.4-0.5,0.8-0.7,1.3c-0.8,1.4-1.5,2.8-2.1,4.3c-0.3,0.6-0.5,1.1-0.7,1.7c-0.4,0.8-0.7,1.7-1,2.6
	c-0.1,0.3-0.2,0.6-0.3,1c-0.1,0.3-0.2,0.6-0.3,0.9c-0.1,0.3-0.2,0.5-0.3,0.8c-0.1,0.2-0.1,0.3-0.2,0.5c-0.1,0.4-0.3,0.8-0.4,1.2
	c-0.1,0.3-0.2,0.7-0.3,1c-0.5,1.6-0.9,3.2-1.3,4.8c-0.1,0.5-0.2,0.9-0.3,1.4c-0.1,0.3-0.1,0.6-0.2,0.8c0,0.1-0.1,0.3-0.1,0.4
	c-0.1,0.5-0.2,1-0.3,1.5c-0.1,0.3-0.1,0.6-0.2,0.9c-0.1,0.6-0.2,1.3-0.3,1.9c-0.1,0.8-0.2,1.6-0.3,2.3c0,0.2,0,0.4-0.1,0.6
	c-0.1,0.6-0.1,1.1-0.2,1.7c0,0.3-0.1,0.6-0.1,0.9c-0.1,0.8-0.1,1.6-0.2,2.5c0,0.8-0.1,1.7-0.1,2.5c0,0.9,0,1.8,0,2.7
	c0,3.6,0.2,7,0.6,10.5c0.1,0.9,0.2,1.7,0.3,2.5c0.2,1.3,0.4,2.5,0.6,3.7c0.1,0.3,0.1,0.5,0.2,0.8l0,0c0,0.2,0.1,0.4,0.1,0.5
	c0.2,1,0.4,2,0.7,3c0.1,0.4,0.2,0.8,0.3,1.1c0.3,1,0.5,2,0.8,3c0.1,0.5,0.3,0.9,0.4,1.4c0.3,0.9,0.6,1.9,1,2.8
	c0.2,0.5,0.4,0.9,0.5,1.4c0.3,0.8,0.6,1.5,0.9,2.3c0.1,0.3,0.2,0.5,0.3,0.8c0.2,0.4,0.4,0.9,0.6,1.3c0.1,0.2,0.2,0.5,0.3,0.7
	s0.2,0.4,0.3,0.6c0.2,0.4,0.4,0.8,0.6,1.2c0.1,0.2,0.2,0.5,0.4,0.7c0.3,0.5,0.6,1.1,0.8,1.6c0.2,0.4,0.5,0.8,0.7,1.3
	c0.2,0.4,0.4,0.8,0.7,1.1c0.4,0.6,0.7,1.2,1.1,1.8c0.1,0.1,0.1,0.2,0.2,0.3c0.5,0.7,0.9,1.4,1.4,2.1c0.4,0.6,0.9,1.2,1.3,1.8
	c0.2,0.2,0.3,0.4,0.5,0.6c0.2,0.3,0.4,0.5,0.6,0.8c2.4,3,5,5.8,7.9,8.3c0.9,0.8,1.8,1.5,2.7,2.3l0,0c0.5,0.4,0.9,0.7,1.4,1.1
	c1.6,1.2,3.2,2.3,4.9,3.4c0.9,0.5,1.8,1.1,2.6,1.6c0.6,0.3,1.2,0.6,1.8,1c0.2,0.1,0.4,0.2,0.6,0.3c0.3,0.2,0.6,0.3,0.9,0.5
	c0.2,0.1,0.4,0.2,0.5,0.3c0.2,0.1,0.4,0.2,0.5,0.3c0.1,0.1,0.3,0.1,0.4,0.2c0.5,0.3,1.1,0.5,1.6,0.8c0.4,0.2,0.9,0.4,1.3,0.5
	c0.5,0.2,1,0.4,1.5,0.6s1,0.4,1.5,0.6c0.2,0.1,0.5,0.2,0.7,0.3c0.1,0,0.3,0.1,0.4,0.2c0.2,0.1,0.5,0.2,0.7,0.2
	c0.4,0.1,0.8,0.3,1.1,0.4c0.1,0,0.3,0.1,0.4,0.1c0.5,0.2,1,0.3,1.4,0.4c0.5,0.1,1,0.3,1.5,0.4c0.1,0,0.3,0.1,0.4,0.1
	c0.6,0.2,1.3,0.3,1.9,0.5c0.7,0.1,1.3,0.3,1.9,0.4c3.4,0.7,6.8,1.2,10.4,1.5c1.3,0.1,2.5,0.2,3.8,0.3c1.5,0.1,3,0.1,4.5,0.1
	s2.9,0,4.3-0.1c1.4-0.1,2.8-0.2,4.2-0.3c3.5-0.3,6.8-0.8,10.1-1.5c0.6-0.1,1.3-0.3,1.9-0.4c0.6-0.2,1.3-0.3,1.9-0.5
	c0.6-0.2,1.3-0.3,1.9-0.5c0.6-0.2,1.2-0.4,1.8-0.6c0.8-0.3,1.6-0.5,2.4-0.8c0.8-0.3,1.6-0.6,2.3-0.9c0.8-0.3,1.5-0.6,2.3-0.9
	s1.5-0.7,2.2-1c0.8-0.4,1.5-0.7,2.3-1.1c0.6-0.3,1.2-0.6,1.7-0.9c0.9-0.5,1.7-1,2.6-1.5c0.9-0.5,1.7-1.1,2.6-1.7
	c0.8-0.5,1.5-1.1,2.3-1.6c5.5-4.1,10.3-8.9,14.2-14.4c1-1.4,2-2.9,2.9-4.3c0.2-0.3,0.4-0.7,0.6-1c0.6-1,1.2-2,1.7-3
	c0.3-0.5,0.5-1,0.8-1.5s0.5-1,0.7-1.5c0.3-0.7,0.7-1.4,1-2.2c0.2-0.6,0.5-1.1,0.7-1.7c0.1-0.3,0.3-0.7,0.4-1
	c0.1-0.3,0.2-0.6,0.3-0.8c0.2-0.4,0.3-0.8,0.5-1.3c1.3-3.7,2.4-7.5,3.1-11.5c1.1-5.6,1.7-11.5,1.7-17.6
	C890.6,190.8,890.1,185,889,179.4z M815.2,243.7c-2.2,0-4.3-0.1-6.3-0.3c-1.2-0.1-2.4-0.3-3.5-0.5c-0.4-0.1-0.8-0.1-1.1-0.2
	c-0.5-0.1-1-0.2-1.6-0.4c-0.7-0.2-1.3-0.3-2-0.5c-0.2-0.1-0.5-0.1-0.7-0.2c-0.1,0-0.2-0.1-0.4-0.1c-0.3-0.1-0.7-0.2-1-0.3
	c-0.1,0-0.3-0.1-0.4-0.1c-0.1,0-0.2-0.1-0.3-0.1c-0.4-0.1-0.7-0.3-1.1-0.4c-0.4-0.2-0.9-0.4-1.3-0.6c0,0-0.1,0-0.1-0.1
	c-0.4-0.2-0.8-0.4-1.3-0.6c-0.4-0.2-0.7-0.3-1-0.5c-0.2-0.1-0.5-0.3-0.7-0.4c-0.1-0.1-0.2-0.1-0.4-0.2c-0.2-0.1-0.4-0.3-0.6-0.4
	c-0.4-0.2-0.7-0.4-1.1-0.7c-0.2-0.1-0.4-0.3-0.5-0.4c-0.2-0.1-0.3-0.2-0.5-0.4c-0.4-0.3-0.7-0.5-1.1-0.8c-0.2-0.1-0.3-0.2-0.5-0.4
	s-0.5-0.4-0.7-0.6c-0.6-0.5-1.3-1.1-1.9-1.8c-0.2-0.2-0.3-0.3-0.5-0.5c-0.3-0.3-0.5-0.5-0.8-0.8c-0.4-0.5-0.8-1-1.3-1.5
	c-0.2-0.2-0.3-0.4-0.5-0.6l-0.1-0.1c0-0.1-0.1-0.1-0.2-0.2c-0.2-0.2-0.3-0.4-0.5-0.6c-0.4-0.5-0.8-1.1-1.1-1.7
	c-0.1-0.2-0.3-0.4-0.4-0.6c-0.1-0.2-0.2-0.3-0.3-0.5c0,0,0-0.1-0.1-0.1c-0.1-0.2-0.2-0.3-0.3-0.5c-0.1-0.1-0.2-0.3-0.2-0.4
	c0-0.1-0.1-0.2-0.1-0.2c-0.1-0.2-0.2-0.4-0.3-0.6c-0.1-0.2-0.2-0.4-0.3-0.6c0-0.1-0.1-0.1-0.1-0.2c-0.2-0.5-0.4-0.9-0.6-1.4
	c-0.1-0.1-0.1-0.2-0.2-0.3c0-0.1-0.1-0.2-0.2-0.4c0-0.1-0.1-0.2-0.1-0.4c-0.1-0.1-0.1-0.3-0.2-0.4c0-0.1-0.1-0.3-0.1-0.4
	c-0.1-0.2-0.1-0.3-0.2-0.5c0-0.1-0.1-0.2-0.1-0.3c-0.1-0.3-0.2-0.6-0.3-0.8c-0.1-0.3-0.2-0.6-0.3-0.9c0-0.1-0.1-0.2-0.1-0.3
	c-0.1-0.3-0.2-0.6-0.3-1c0-0.1-0.1-0.2-0.1-0.3c-0.3-1-0.6-2-0.8-3.1c-0.3-1.1-0.5-2.1-0.7-3.3c-0.7-3.9-1-8.1-1-12.6
	c0-2.7,0.1-5.2,0.4-7.7c0.1-0.8,0.2-1.6,0.3-2.4c0.1-0.8,0.2-1.6,0.4-2.4c0.2-1.1,0.4-2.2,0.7-3.2c3-12.9,10-22.4,21.1-27.2
	c0.4-0.2,0.7-0.3,1.1-0.5c0.4-0.2,0.8-0.3,1.1-0.4c0.9-0.4,1.9-0.7,2.9-1s2-0.5,3.1-0.8c0.4-0.1,0.8-0.2,1.1-0.2
	c1.1-0.2,2.3-0.4,3.5-0.5c2-0.2,4.1-0.3,6.3-0.3s4.3,0.1,6.3,0.3c1.2,0.1,2.4,0.3,3.5,0.5c0.4,0.1,0.8,0.1,1.1,0.2
	c1.1,0.2,2.2,0.5,3.3,0.8c0.4,0.1,0.7,0.2,1.1,0.3c0.9,0.3,1.8,0.6,2.6,0.9c0.4,0.1,0.7,0.3,1.1,0.5c0.1,0,0.2,0.1,0.3,0.1
	c0.3,0.1,0.5,0.2,0.8,0.4c0.1,0,0.2,0.1,0.3,0.2c0.3,0.1,0.5,0.2,0.8,0.4c0.1,0,0.1,0.1,0.2,0.1c0.2,0.1,0.4,0.2,0.6,0.3
	c0.1,0,0.1,0.1,0.2,0.1c0.1,0,0.1,0,0.1,0.1c0,0,0,0,0.1,0s0.2,0.1,0.3,0.2c0.1,0.1,0.2,0.1,0.3,0.2c0.1,0,0.1,0.1,0.2,0.1
	c0.2,0.1,0.5,0.3,0.7,0.4c0.1,0,0.2,0.1,0.3,0.2c0.2,0.1,0.3,0.2,0.5,0.3c0.1,0.1,0.3,0.2,0.5,0.3c0.1,0.1,0.2,0.1,0.3,0.2
	c0.2,0.1,0.3,0.3,0.5,0.4l0.1,0.1c0.3,0.2,0.6,0.5,0.9,0.7l0,0c0.2,0.1,0.4,0.3,0.5,0.4c0.2,0.2,0.4,0.3,0.6,0.5
	c0.1,0.1,0.2,0.2,0.3,0.3s0.3,0.2,0.4,0.4c0.1,0,0.1,0.1,0.2,0.1l0.1,0.1c0.2,0.2,0.4,0.4,0.6,0.6c0.1,0.1,0.2,0.2,0.3,0.3l0.1,0.1
	c0.5,0.5,1.1,1.1,1.6,1.7c0.1,0.1,0.1,0.2,0.2,0.2c0,0,0,0,0.1,0.1c0.4,0.5,0.8,1,1.2,1.5c0,0.1,0.1,0.1,0.1,0.2
	c0.3,0.4,0.5,0.7,0.8,1.1c0.1,0.1,0.2,0.3,0.3,0.5s0.3,0.4,0.4,0.7c0,0,0.1,0.1,0.1,0.2c0.1,0.1,0.2,0.3,0.3,0.4
	c0.1,0.2,0.3,0.4,0.4,0.7c0.1,0.2,0.2,0.4,0.3,0.6c0.1,0.1,0.1,0.2,0.2,0.3c0.2,0.3,0.3,0.6,0.5,1c0.1,0.2,0.2,0.3,0.3,0.5
	c0,0,0,0.1,0.1,0.1c0.2,0.3,0.3,0.7,0.5,1v0.1c0,0.1,0.1,0.2,0.1,0.4l0.1,0.1c0.1,0.2,0.2,0.4,0.3,0.6c0.1,0.4,0.3,0.7,0.4,1.1
	c0,0.1,0.1,0.2,0.1,0.3c0.1,0.3,0.2,0.5,0.3,0.8c0.1,0.2,0.2,0.5,0.2,0.7c0.1,0.1,0.1,0.3,0.2,0.5c0.1,0.2,0.1,0.5,0.2,0.7
	c0.1,0.2,0.2,0.5,0.2,0.7c0.1,0.2,0.1,0.4,0.2,0.6c0,0.1,0.1,0.3,0.1,0.4c0.1,0.3,0.2,0.7,0.3,1c0,0.1,0,0.1,0,0.2
	c0.1,0.4,0.2,0.8,0.3,1.3c0.2,1,0.4,2,0.6,3c0.7,3.9,1,8.1,1,12.5C857,225.4,843.1,243.7,815.2,243.7z M666.2,153
	c-0.1,0-0.3-0.1-0.4-0.1c-0.3-0.1-0.7-0.2-1-0.3c-0.4-0.1-0.7-0.2-1-0.3c-0.5-0.1-1.1-0.3-1.6-0.4c-0.5-0.1-1.1-0.3-1.7-0.4
	c-0.4-0.1-0.8-0.2-1.1-0.2c-0.4-0.1-0.8-0.1-1.2-0.2c-0.1,0-0.2,0-0.3-0.1c-0.2,0-0.4-0.1-0.5-0.1c-0.5-0.1-1-0.1-1.5-0.2
	c-0.5-0.1-1-0.1-1.5-0.1c-0.6,0-1.2-0.1-1.8-0.1c-0.4,0-0.9,0-1.3,0l0,0c-0.5,0-1.1,0-1.6,0s-1.1,0-1.6,0H648c-0.4,0-0.8,0-1.2,0
	c-0.2,0-0.5,0-0.7,0c-0.4,0-0.8,0-1.2,0.1c-0.4,0-0.8,0.1-1.2,0.1c-0.5,0-1,0.1-1.5,0.2c-0.4,0.1-0.8,0.1-1.2,0.2
	c-1.2,0.2-2.3,0.4-3.4,0.7c-0.4,0.1-0.7,0.2-1.1,0.3c-0.4,0.1-0.7,0.2-1.1,0.3c-0.9,0.2-1.8,0.5-2.6,0.8L666.2,153L666.2,153z
	 M724.9,195c0-0.5,0-1,0-1.5c0-0.4,0-0.7,0-1c0-1.1-0.1-2.2-0.2-3.3c0-0.3,0-0.6-0.1-0.8c0-0.5-0.1-1-0.1-1.4
	c-0.1-0.6-0.1-1.2-0.2-1.8c-0.1-1.1-0.3-2.3-0.5-3.4c-0.1-0.4-0.1-0.8-0.2-1.1c-0.3-1.5-0.6-3.1-1-4.6c-0.1-0.5-0.2-0.9-0.3-1.4
	s-0.2-0.9-0.4-1.4c-0.5-1.7-1-3.3-1.5-5c-0.1-0.3-0.3-0.7-0.4-1c-0.5-1.4-1-2.7-1.6-4c-0.2-0.4-0.3-0.8-0.5-1.1
	c-0.5-1.1-1-2.2-1.6-3.2c-0.2-0.3-0.3-0.6-0.5-0.9c0,0,0,0,0-0.1c0,0,0,0,0-0.1c-0.1-0.1-0.1-0.2-0.2-0.4c-0.2-0.3-0.4-0.7-0.6-1
	c-0.4-0.8-0.9-1.6-1.4-2.4c-0.2-0.4-0.5-0.8-0.7-1.2c-0.3-0.5-0.6-0.9-0.9-1.3c-0.3-0.4-0.6-0.9-0.9-1.3c-0.3-0.4-0.6-0.9-0.9-1.3
	c-0.3-0.4-0.6-0.8-1-1.3c-1.3-1.7-2.7-3.3-4.1-4.8c-0.3-0.3-0.5-0.5-0.8-0.8s-0.6-0.6-0.9-0.9c-0.3-0.3-0.7-0.7-1-1s-0.6-0.6-1-0.9
	c-0.3-0.3-0.5-0.5-0.8-0.7c-0.3-0.3-0.7-0.6-1.1-0.9c-0.4-0.3-0.7-0.6-1.1-0.9c-1-0.8-2-1.6-3.1-2.3c-0.5-0.3-1-0.7-1.5-1
	s-1-0.7-1.5-1c-1.3-0.8-2.5-1.6-3.8-2.3c-0.4-0.2-0.8-0.5-1.2-0.7c-3.5-1.8-7.3-3.4-11.2-4.7c-0.3-0.1-0.7-0.2-1-0.3
	c-0.8-0.3-1.6-0.5-2.4-0.7c-0.4-0.1-0.8-0.2-1.2-0.3c-0.7-0.2-1.4-0.4-2.1-0.5c-0.5-0.1-1-0.2-1.6-0.4c-0.8-0.2-1.6-0.3-2.4-0.5
	c-0.5-0.1-0.9-0.2-1.4-0.2c-0.7-0.1-1.4-0.2-2.1-0.3c-1.3-0.2-2.5-0.3-3.8-0.4c-0.7-0.1-1.4-0.1-2.1-0.2l0,0c-0.7,0-1.4-0.1-2.1-0.1
	c-0.6,0-1.3,0-1.9-0.1c-0.1,0-0.3,0-0.4,0c-0.7,0-1.3,0-2,0c-0.6,0-1.2,0-1.8,0c-0.5,0-0.9,0-1.3,0c-0.4,0-0.8,0-1.2,0
	c-0.7,0-1.4,0.1-2.1,0.1c-0.6,0-1.2,0.1-1.7,0.1c-0.4,0-0.8,0.1-1.3,0.1c-1,0.1-2,0.2-3,0.3c-0.6,0.1-1.1,0.2-1.7,0.3
	c-0.6,0.1-1.1,0.2-1.7,0.3c-0.5,0.1-1.1,0.2-1.6,0.3h-0.1c-0.5,0.1-1.1,0.2-1.6,0.3c-0.5,0.1-1.1,0.2-1.6,0.4
	c-0.6,0.1-1.2,0.3-1.7,0.4s-1,0.3-1.5,0.4c-0.4,0.1-0.8,0.2-1.2,0.4c-0.1,0-0.3,0.1-0.4,0.1c-0.4,0.1-0.8,0.2-1.1,0.4
	c-0.1,0-0.2,0.1-0.3,0.1c-1,0.3-1.9,0.6-2.8,1c-0.6,0.2-1.1,0.4-1.7,0.7c-0.2,0.1-0.3,0.1-0.5,0.2s-0.5,0.2-0.7,0.3
	c-0.3,0.1-0.6,0.3-0.9,0.4c-0.4,0.2-0.9,0.4-1.3,0.6c-0.3,0.1-0.5,0.2-0.8,0.4c-0.8,0.4-1.5,0.7-2.3,1.1c-0.3,0.2-0.6,0.3-0.9,0.5
	c-1.5,0.8-2.9,1.7-4.3,2.5c-0.5,0.3-0.9,0.6-1.3,0.9c-1,0.7-2,1.4-2.9,2.1c-0.4,0.3-0.8,0.6-1.3,1c-0.1,0-0.1,0.1-0.2,0.1
	c-0.5,0.4-0.9,0.8-1.4,1.1c-0.5,0.4-0.9,0.8-1.3,1.2c-0.5,0.4-0.9,0.8-1.3,1.2c-0.4,0.4-0.9,0.8-1.3,1.2c-0.4,0.4-0.8,0.8-1.1,1.1
	c-0.5,0.5-0.9,0.9-1.3,1.4c-0.8,0.9-1.6,1.8-2.3,2.7c-0.4,0.5-0.8,1-1.1,1.4c-0.3,0.5-0.7,0.9-1,1.4s-0.7,0.9-1,1.4
	c0,0,0,0.1-0.1,0.1c-0.3,0.5-0.7,1-1,1.5s-0.6,0.9-0.9,1.4c-1,1.6-1.9,3.2-2.8,4.9c-0.3,0.5-0.5,1-0.7,1.5c-0.3,0.5-0.5,1.1-0.8,1.6
	c-0.2,0.5-0.4,0.9-0.6,1.4c-0.3,0.7-0.6,1.5-0.9,2.2c-0.2,0.4-0.3,0.8-0.5,1.3c-0.6,1.6-1.2,3.3-1.7,5c-0.1,0.4-0.2,0.7-0.3,1.1
	c-0.1,0.5-0.3,0.9-0.4,1.4c-0.1,0.5-0.3,0.9-0.4,1.4c-0.1,0.4-0.2,0.7-0.3,1.1c-0.1,0.4-0.2,0.8-0.3,1.1c-0.1,0.4-0.2,0.8-0.3,1.2
	c-0.4,2-0.7,4-1,6c-0.1,0.6-0.2,1.2-0.2,1.7c-0.2,1.8-0.3,3.6-0.4,5.4c0,0.4,0,0.8,0,1.2c0,0.5,0,1-0.1,1.5c0,0.7,0,1.3,0,2
	c0,0.9,0,1.8,0,2.7c0,0.7,0,1.4,0.1,2.1l0,0c0,0.4,0,0.8,0.1,1.2c0,0.8,0.1,1.5,0.2,2.3c0.1,0.8,0.1,1.5,0.2,2.3
	c0,0.4,0.1,0.9,0.1,1.3c0,0.4,0.1,0.7,0.1,1.1c0,0.1,0,0.2,0,0.2c0.1,0.5,0.1,0.9,0.2,1.4c0.1,0.4,0.1,0.9,0.2,1.3c0,0,0,0,0,0.1
	c0.1,0.3,0.1,0.7,0.2,1c0,0.2,0.1,0.3,0.1,0.5v0.1l0,0c0,0.1,0,0.1,0,0.2l0,0c0.1,0.3,0.1,0.6,0.2,0.9c0.1,0.4,0.2,0.9,0.3,1.3
	c0.2,0.8,0.4,1.6,0.6,2.4c0.2,0.7,0.3,1.3,0.5,1.9c0.1,0.3,0.2,0.6,0.3,0.9c0.1,0.3,0.2,0.6,0.3,0.9c0.2,0.8,0.5,1.6,0.8,2.4
	c0,0.1,0,0.1,0.1,0.2c0.1,0.3,0.2,0.5,0.3,0.8s0.2,0.5,0.3,0.8c0.2,0.6,0.4,1.1,0.7,1.7l0,0c0,0.1,0,0.1,0.1,0.2
	c0,0.1,0,0.1,0.1,0.2c0,0,0,0.1,0.1,0.1c0,0.1,0,0.1,0.1,0.2c0,0.1,0.1,0.3,0.2,0.4c0.1,0.3,0.3,0.6,0.4,0.9
	c0.1,0.2,0.2,0.5,0.3,0.7s0.2,0.4,0.3,0.7c0.6,1.4,1.3,2.7,2,4c0.1,0.3,0.3,0.5,0.4,0.8c0.3,0.5,0.6,1,0.9,1.6
	c0.9,1.5,1.8,3,2.8,4.5c0.1,0.1,0.1,0.2,0.2,0.3c0.3,0.4,0.5,0.8,0.8,1.1c0,0,0,0,0,0.1l0,0c0,0.1,0.1,0.1,0.1,0.2
	c0.1,0.1,0.2,0.2,0.3,0.3c0.2,0.3,0.4,0.6,0.6,0.9c0.2,0.3,0.4,0.5,0.6,0.8c0.2,0.2,0.3,0.5,0.5,0.7c0.1,0.1,0.1,0.2,0.2,0.2
	c0,0.1,0.1,0.1,0.2,0.2c0.1,0.2,0.3,0.3,0.4,0.5c0.1,0.1,0.2,0.3,0.4,0.4c1.3,1.5,2.7,3,4.2,4.4c0.1,0.1,0.1,0.1,0.2,0.2
	c0.1,0.1,0.3,0.3,0.4,0.4l0,0c0.4,0.4,0.9,0.8,1.3,1.2c0.9,0.8,1.8,1.5,2.7,2.3l0,0c0.5,0.4,0.9,0.7,1.4,1.1
	c0.2,0.2,0.5,0.4,0.7,0.5c0.2,0.2,0.4,0.3,0.6,0.5c0.3,0.3,0.7,0.5,1.1,0.8c0.1,0,0.1,0.1,0.2,0.1c0,0,0.1,0.1,0.2,0.1
	c0.3,0.2,0.5,0.4,0.8,0.5c0.6,0.4,1.1,0.7,1.7,1.1c0.3,0.2,0.6,0.4,0.9,0.6c0.5,0.3,0.9,0.5,1.3,0.8c1.1,0.6,2.2,1.2,3.3,1.8
	c0.3,0.1,0.5,0.3,0.8,0.4s0.5,0.3,0.8,0.4l0,0c0.3,0.1,0.6,0.3,0.9,0.4c0.3,0.2,0.6,0.3,1,0.4c0.5,0.2,0.9,0.4,1.3,0.6
	c0.1,0,0.1,0,0.2,0.1c0.1,0,0.2,0.1,0.3,0.1c0.5,0.2,0.9,0.4,1.4,0.5c0.1,0,0.2,0.1,0.3,0.1c0.5,0.2,1,0.4,1.5,0.5l0,0
	c0.6,0.2,1.2,0.4,1.8,0.6s1.2,0.4,1.8,0.6s1.3,0.4,1.9,0.5c0.4,0.1,0.7,0.2,1.1,0.3c0.3,0.1,0.7,0.2,1.1,0.3
	c0.6,0.1,1.1,0.3,1.7,0.4c0.6,0.1,1.1,0.2,1.7,0.3c0.1,0,0.2,0,0.3,0c0.6,0.1,1.2,0.2,1.8,0.3c0.1,0,0.3,0,0.4,0.1
	c0.5,0.1,1.1,0.2,1.7,0.3c0.6,0.1,1.2,0.2,1.9,0.2c0.3,0,0.6,0.1,0.9,0.1c0.3,0,0.6,0.1,0.9,0.1c0.3,0,0.6,0.1,0.9,0.1
	c0.5,0,0.9,0.1,1.4,0.1c0.2,0,0.3,0,0.5,0c0.6,0,1.3,0.1,1.9,0.1c1.5,0.1,3,0.1,4.5,0.1s2.9,0,4.3-0.1c1.4-0.1,2.8-0.2,4.2-0.3
	c0.8-0.1,1.6-0.1,2.4-0.3c0.7-0.1,1.4-0.2,2.1-0.3c0.4-0.1,0.8-0.1,1.2-0.2c0.6-0.1,1.2-0.2,1.7-0.3c0.1,0,0.3,0,0.4-0.1
	c0.8-0.1,1.6-0.3,2.3-0.5c1.3-0.3,2.6-0.6,3.8-0.9c0.6-0.2,1.3-0.3,1.9-0.5c0.6-0.2,1.2-0.4,1.8-0.6s1.2-0.4,1.9-0.6
	c0.2,0,0.3-0.1,0.5-0.2c0.1,0,0.1,0,0.2-0.1c0.2-0.1,0.5-0.2,0.7-0.3c0.3-0.1,0.6-0.2,0.9-0.3c0.1,0,0.2-0.1,0.2-0.1
	c0.3-0.1,0.5-0.2,0.8-0.3c0.1,0,0.2-0.1,0.3-0.1l0,0c0.2-0.1,0.3-0.1,0.5-0.2c0.4-0.2,0.8-0.3,1.1-0.5h0.1c0.6-0.3,1.1-0.5,1.7-0.8
	c0.1,0,0.2-0.1,0.3-0.1s0.2-0.1,0.3-0.1c0.3-0.1,0.5-0.3,0.8-0.4c0.1,0,0.2-0.1,0.3-0.1s0.1-0.1,0.2-0.1c0.2-0.1,0.3-0.2,0.5-0.3
	c0.1,0,0.2-0.1,0.4-0.2c0.1-0.1,0.3-0.1,0.4-0.2c0.1,0,0.1-0.1,0.2-0.1c0.2-0.1,0.5-0.2,0.7-0.4c0.2-0.1,0.5-0.3,0.7-0.4
	c0.6-0.3,1.2-0.7,1.8-1c0.3-0.1,0.5-0.3,0.8-0.5c0.4-0.3,0.8-0.5,1.2-0.8c0.2-0.1,0.4-0.3,0.7-0.4c0.4-0.2,0.7-0.5,1.1-0.8
	c0.8-0.5,1.5-1,2.2-1.6c0.5-0.4,0.9-0.7,1.4-1.1s0.9-0.8,1.4-1.1c0.4-0.4,0.9-0.7,1.3-1.1c0.1-0.1,0.2-0.1,0.2-0.2
	c0.7-0.6,1.4-1.3,2.1-2c0.3-0.3,0.7-0.7,1-1c0.4-0.4,0.8-0.9,1.3-1.3c0.1-0.1,0.1-0.1,0.2-0.2c0.5-0.5,0.9-1,1.4-1.6
	c0.5-0.5,0.9-1,1.3-1.6c0.2-0.2,0.4-0.5,0.5-0.7c0.3-0.4,0.6-0.8,0.9-1.2c1-1.3,1.9-2.6,2.7-3.9c0.2-0.3,0.4-0.6,0.5-0.9
	c0.3-0.5,0.7-1.1,1-1.6s0.6-1.1,0.9-1.6c0.1-0.1,0.1-0.2,0.2-0.3c0.4-0.6,0.7-1.3,1-1.9c0.3-0.6,0.6-1.2,0.9-1.8
	c0.1-0.2,0.2-0.4,0.3-0.7c0.3-0.6,0.6-1.2,0.8-1.9c0.3-0.7,0.6-1.3,0.8-2c0-0.1,0.1-0.3,0.1-0.4c0.2-0.4,0.4-0.9,0.5-1.4
	c0.1-0.2,0.1-0.3,0.2-0.5c0.1-0.2,0.1-0.3,0.2-0.4c0.1-0.3,0.2-0.5,0.3-0.8c0.1-0.2,0.1-0.4,0.2-0.6c0.1-0.2,0.2-0.5,0.2-0.7
	s0.1-0.3,0.1-0.5c0.2-0.6,0.4-1.2,0.6-1.9c0.2-0.6,0.3-1.2,0.5-1.8c0.1-0.2,0.1-0.4,0.2-0.6c0-0.2,0.1-0.3,0.1-0.5
	c0.2-0.6,0.3-1.2,0.4-1.8l0,0l0,0v-0.1c0-0.1,0-0.1,0-0.2c0.1-0.3,0.2-0.7,0.3-1.1c0.1-0.4,0.2-0.8,0.2-1.2c0.1-0.6,0.2-1.3,0.3-1.9
	c0-0.1,0-0.2,0-0.2c0-0.1,0-0.1,0-0.2c0.1-0.6,0.2-1.2,0.3-1.7s0.2-1.1,0.2-1.6l0,0c0.1-0.5,0.1-1,0.2-1.6c0-0.3,0.1-0.6,0.1-0.9
	c0-0.2,0.1-0.5,0.1-0.7v-0.1c0-0.5,0.1-1,0.1-1.5c0-0.1,0-0.2,0-0.3c0-0.4,0.1-0.9,0.1-1.3c0-0.4,0.1-0.8,0.1-1.2c0-0.7,0-1.3,0.1-2
	c0-0.8,0-1.5,0-2.3C724.9,196.3,724.9,195.6,724.9,195z M649.5,243.7c-0.5,0-1.1,0-1.6,0c-0.4,0-0.9,0-1.3,0c-0.6,0-1.2-0.1-1.8-0.1
	c-0.5,0-1-0.1-1.5-0.1c-0.2,0-0.4,0-0.6-0.1c-0.2,0-0.4,0-0.6-0.1c-0.1,0-0.2,0-0.4,0c-0.1,0-0.2,0-0.2,0c-0.1,0-0.2,0-0.2,0
	c-0.5-0.1-1-0.2-1.5-0.3c-0.4-0.1-0.8-0.1-1.1-0.2c-0.4-0.1-0.8-0.2-1.2-0.3h-0.1c-0.1,0-0.2,0-0.3-0.1c-0.1,0-0.2,0-0.2-0.1
	c-0.1,0-0.2-0.1-0.3-0.1h-0.1c-0.1,0-0.1,0-0.2,0c-0.2,0-0.4-0.1-0.5-0.1s-0.2-0.1-0.4-0.1c-0.4-0.1-0.7-0.2-1-0.3
	c-0.2,0-0.4-0.1-0.6-0.2c-0.1,0-0.3-0.1-0.5-0.2c-0.2,0-0.3-0.1-0.5-0.2c-0.1,0-0.1,0-0.2-0.1c-0.1,0-0.2-0.1-0.3-0.1
	c-0.3-0.1-0.7-0.3-1-0.4l-0.5-0.2c-0.2-0.1-0.3-0.1-0.5-0.2c-0.1,0-0.2-0.1-0.3-0.2c-0.1,0-0.2-0.1-0.3-0.2c0,0-0.1,0-0.1-0.1
	c-0.1,0-0.2-0.1-0.3-0.2c-0.2-0.1-0.3-0.2-0.5-0.3c0,0-0.1,0-0.2-0.1c-0.3-0.2-0.6-0.3-0.9-0.5c-0.1,0-0.1-0.1-0.2-0.1l0,0
	c-0.2-0.1-0.3-0.2-0.5-0.3c-0.1,0-0.1-0.1-0.2-0.1c-0.2-0.1-0.4-0.2-0.6-0.3c-0.4-0.2-0.8-0.5-1.1-0.7l0,0c-0.4-0.3-0.8-0.5-1.2-0.8
	s-0.8-0.6-1.1-0.8l-0.1-0.1c-0.3-0.3-0.7-0.5-1-0.8c-0.1-0.1-0.1-0.1-0.2-0.2c-0.3-0.2-0.5-0.5-0.8-0.7c-0.3-0.3-0.6-0.6-0.9-0.9
	c-0.1-0.1-0.2-0.2-0.2-0.2c-0.3-0.3-0.5-0.6-0.8-0.9l0,0c-0.6-0.6-1.1-1.3-1.6-1.9c-0.4-0.5-0.7-1-1.1-1.5c-0.2-0.3-0.5-0.7-0.7-1
	l-0.1-0.1c-0.2-0.4-0.5-0.8-0.7-1.1c-0.5-0.9-1-1.8-1.5-2.7c-0.1-0.1-0.1-0.3-0.2-0.4c0-0.1,0-0.1-0.1-0.2c-0.1-0.1-0.1-0.2-0.2-0.3
	l-0.2-0.4c-0.2-0.5-0.4-0.9-0.6-1.4c-0.2-0.4-0.3-0.8-0.5-1.2c-0.2-0.6-0.4-1.2-0.6-1.8c-0.1-0.2-0.1-0.4-0.2-0.5
	c-0.1-0.2-0.1-0.4-0.2-0.5c0-0.1-0.1-0.2-0.1-0.4c-0.1-0.2-0.1-0.5-0.2-0.7c-0.1-0.2-0.1-0.3-0.2-0.5c0-0.2-0.1-0.4-0.1-0.6
	c-0.1-0.4-0.2-0.7-0.3-1.1l0,0c0-0.1,0-0.1,0-0.2c0-0.1-0.1-0.3-0.1-0.4c-0.1-0.3-0.2-0.7-0.2-1.1c0-0.1,0-0.2-0.1-0.3v-0.1
	c0-0.1,0-0.1,0-0.1l0,0c-0.1-0.4-0.1-0.8-0.2-1.1c0-0.2-0.1-0.4-0.1-0.6c0-0.2-0.1-0.4-0.1-0.6c0-0.1,0-0.2,0-0.3
	c0-0.3-0.1-0.6-0.1-0.9c0,0,0,0,0-0.1c0-0.4-0.1-0.8-0.1-1.2l0,0c0-0.4-0.1-0.7-0.1-1.1c-0.1-1.3-0.2-2.7-0.3-4.1c0-0.3,0-0.5,0-0.8
	c0-0.4,0-0.8,0-1.3s0-1.1,0-1.7c0-0.5,0-1.1,0-1.6c0-0.3,0-0.5,0-0.8c0-0.5,0-1.1,0.1-1.6c0-0.6,0.1-1.2,0.1-1.8
	c0-0.7,0.1-1.3,0.2-1.9c0.1-0.8,0.2-1.6,0.3-2.4c0.1-0.6,0.2-1.3,0.3-1.9c0-0.2,0.1-0.4,0.1-0.5c0.1-0.8,0.3-1.5,0.5-2.3
	c0.1-0.4,0.2-0.8,0.3-1.1c0.2-0.9,0.4-1.7,0.7-2.6c0.1-0.4,0.2-0.8,0.4-1.2c2.5-8.1,6.9-14.6,13-19.2c2.8-2.1,5.9-3.8,9.3-5h33.6
	h0.1c0.2,0.1,0.3,0.1,0.5,0.2c0.2,0.1,0.4,0.2,0.6,0.2c0.1,0,0.2,0.1,0.3,0.1c0.3,0.1,0.6,0.3,1,0.4c0,0,0,0,0.1,0
	c0,0,0.1,0,0.1,0.1c0.3,0.1,0.6,0.3,0.9,0.4c0.5,0.2,1,0.5,1.5,0.8c0.1,0.1,0.3,0.1,0.4,0.2h0.1c0.1,0,0.1,0.1,0.2,0.1
	c0.1,0,0.1,0.1,0.2,0.1c0,0,0,0,0.1,0s0.1,0,0.2,0.1c0.1,0,0.1,0.1,0.2,0.1c0.2,0.1,0.5,0.3,0.7,0.4c0.1,0.1,0.2,0.1,0.3,0.2
	c0.4,0.3,0.8,0.5,1.2,0.8c0.3,0.2,0.5,0.4,0.8,0.6l0,0l0.1,0.1c0.3,0.2,0.6,0.4,0.9,0.7c0,0,0.1,0,0.1,0.1c0,0,0.1,0,0.1,0.1
	c0.1,0.1,0.2,0.2,0.4,0.3c0,0,0,0,0.1,0.1l0,0c0.3,0.2,0.5,0.4,0.8,0.7c0,0,0.1,0.1,0.2,0.1l0,0c0.3,0.3,0.6,0.5,0.8,0.8
	c0.1,0.1,0.1,0.1,0.2,0.2l0,0c0.1,0,0.1,0.1,0.2,0.2c0.1,0.1,0.2,0.2,0.3,0.3s0.3,0.3,0.4,0.4c0,0,0,0,0.1,0.1
	c0.2,0.2,0.3,0.4,0.5,0.5c0,0,0.1,0.1,0.1,0.2l0,0l0.1,0.1l0.1,0.1c0,0,0.1,0.1,0.1,0.2c0.1,0.2,0.3,0.3,0.4,0.5l0.1,0.1
	c0.1,0.1,0.2,0.2,0.3,0.3c0,0.1,0.1,0.1,0.1,0.2l0.1,0.1l0.1,0.1c0,0.1,0.1,0.1,0.1,0.2c0.2,0.2,0.3,0.4,0.5,0.6
	c0.1,0.1,0.1,0.2,0.2,0.3c0,0.1,0.1,0.1,0.1,0.2c0.2,0.3,0.3,0.5,0.5,0.8l0,0c0.1,0.2,0.3,0.4,0.4,0.6l0.1,0.1l0.1,0.1l0.1,0.1
	c0.1,0.1,0.1,0.2,0.2,0.3c0,0.1,0.1,0.1,0.1,0.2c0.1,0.1,0.2,0.3,0.2,0.4c0.1,0.1,0.1,0.2,0.2,0.3c0.1,0.2,0.2,0.4,0.3,0.6
	c0,0.1,0.1,0.1,0.1,0.2c0,0,0,0,0,0.1c0.1,0.1,0.1,0.3,0.2,0.4c0.1,0.1,0.1,0.3,0.2,0.4c0,0,0,0.1,0.1,0.1c0,0,0,0.1,0.1,0.1
	c0,0.1,0.1,0.2,0.1,0.3c0.1,0.3,0.3,0.5,0.4,0.8c0.1,0.2,0.2,0.4,0.3,0.6c0.1,0.3,0.3,0.7,0.4,1c0.1,0.2,0.2,0.5,0.3,0.7
	c0.1,0.3,0.2,0.5,0.3,0.8c0.1,0.1,0.1,0.3,0.2,0.4c0.1,0.3,0.2,0.6,0.3,0.9c0.1,0.2,0.1,0.3,0.2,0.5c0.1,0.2,0.1,0.4,0.2,0.6
	c0,0.1,0.1,0.2,0.1,0.3s0,0.1,0,0.2l0,0c0.3,0.8,0.5,1.6,0.7,2.5c0,0.1,0,0.2,0.1,0.3c0.1,0.3,0.1,0.5,0.2,0.8c0,0.1,0,0.1,0,0.2
	c0.1,0.5,0.2,0.9,0.3,1.4c0,0.2,0.1,0.5,0.1,0.7c0.1,0.6,0.2,1.2,0.3,1.9l0,0c0,0.1,0,0.2,0,0.3s0,0.3,0.1,0.4c0,0.1,0,0.3,0,0.4
	v0.1c0,0.1,0,0.2,0,0.3c0,0.3,0.1,0.6,0.1,0.9c0,0.3,0.1,0.6,0.1,0.9c0,0.1,0,0.2,0,0.3l0,0c0.1,0.8,0.2,1.7,0.2,2.5
	c0,0.4,0,0.9,0.1,1.3c0,0.1,0,0.1,0,0.2c0,0.3,0,0.5,0,0.8c0,0.4,0,0.8,0,1.3s0,1.1,0,1.6C691.3,225.4,677.4,243.7,649.5,243.7z
	 M561.4,205.3c0-0.2,0-0.4,0-0.7c0-0.4-0.1-0.7-0.1-1.1c0-0.2,0-0.5-0.1-0.7c0-0.5-0.1-0.9-0.2-1.4c0-0.1-0.1-0.3-0.1-0.4
	c0-0.2-0.1-0.5-0.2-0.7c-0.1-0.3-0.1-0.6-0.2-0.9l0,0c-0.1-0.3-0.2-0.6-0.3-0.8c-0.2-0.6-0.4-1.1-0.7-1.6c-0.1-0.3-0.2-0.5-0.4-0.7
	c-0.1-0.2-0.2-0.4-0.3-0.6c-0.1-0.2-0.2-0.3-0.3-0.5c-0.2-0.3-0.4-0.5-0.6-0.8c-0.1-0.2-0.3-0.4-0.5-0.6c-0.4-0.5-0.9-1-1.4-1.4
	c-0.3-0.3-0.7-0.6-1.1-0.8c-0.1-0.1-0.2-0.2-0.3-0.2c-0.2-0.1-0.4-0.3-0.6-0.4c-0.2-0.1-0.3-0.2-0.5-0.3c-0.1-0.1-0.3-0.2-0.4-0.2
	c-0.3-0.2-0.7-0.3-1-0.5c-0.3-0.1-0.5-0.2-0.8-0.3c-0.2-0.1-0.4-0.2-0.6-0.2c-0.2-0.1-0.4-0.1-0.5-0.1h-0.1
	c-0.5-0.1-0.9-0.3-1.4-0.3c-0.1,0-0.2,0-0.3-0.1h-0.1c-0.1,0-0.2,0-0.3,0c-0.2,0-0.4-0.1-0.5-0.1c-0.4,0-0.7-0.1-1.1-0.1
	c-0.3,0-0.6,0-0.9-0.1c-0.7,0-1.3-0.1-2-0.1h-77.3v25.2h34.2c0,0.5,0,1.1,0,1.6c0,0.1,0,0.2,0,0.3c0,0.5,0,1.1-0.1,1.6
	c0,0,0,0.1,0,0.2v0.1c0,0.1,0,0.3,0,0.4c0,0.3-0.1,0.6-0.1,0.9c0,0.2,0,0.4-0.1,0.6c0,0.1,0,0.1,0,0.2c0,0.3-0.1,0.5-0.1,0.8
	c0,0.1,0,0.3-0.1,0.4c0,0.1,0,0.1,0,0.2c0,0,0,0,0,0.1c0,0,0,0,0,0.1c0,0,0,0,0,0.1c0,0.2-0.1,0.4-0.1,0.6l0,0
	c0,0.2-0.1,0.4-0.1,0.5c-0.1,0.4-0.2,0.8-0.3,1.1c0,0.1,0,0.2-0.1,0.3v0.1c0,0.1-0.1,0.3-0.1,0.4c0,0.1,0,0.1-0.1,0.2c0,0,0,0,0,0.1
	s0,0.1,0,0.2l0,0c-0.1,0.2-0.1,0.5-0.2,0.7c0,0.1,0,0.2-0.1,0.2c-0.1,0.3-0.2,0.5-0.3,0.7c-0.1,0.4-0.3,0.8-0.5,1.3
	s-0.4,0.9-0.6,1.3c-0.2,0.4-0.5,0.9-0.7,1.3c-0.1,0.1-0.1,0.2-0.2,0.3s-0.1,0.2-0.2,0.4c-0.2,0.3-0.3,0.5-0.5,0.8
	c-0.1,0.1-0.2,0.2-0.2,0.3s-0.1,0.1-0.1,0.2c-0.2,0.3-0.3,0.5-0.5,0.7c-0.1,0.1-0.2,0.3-0.3,0.4c-0.2,0.3-0.5,0.6-0.8,0.9
	c-0.3,0.4-0.6,0.7-1,1c-0.3,0.3-0.7,0.7-1,1s-0.7,0.6-1.1,0.9c-0.3,0.3-0.6,0.5-1,0.7c-0.1,0-0.1,0.1-0.2,0.1l0,0
	c-0.3,0.2-0.6,0.4-1,0.6c-0.7,0.5-1.5,0.9-2.3,1.3c-0.2,0.1-0.4,0.2-0.6,0.3l0,0c-0.2,0.1-0.3,0.2-0.5,0.3c-1,0.5-2,0.8-3.1,1.2
	c-0.2,0-0.3,0.1-0.5,0.1c-0.2,0.1-0.4,0.1-0.6,0.2c-0.8,0.2-1.6,0.4-2.4,0.6h-0.1c-0.2,0-0.3,0.1-0.5,0.1s-0.4,0.1-0.6,0.1
	s-0.3,0.1-0.5,0.1l0,0c-0.5,0.1-1.1,0.2-1.7,0.3c-1.1,0.2-2.3,0.3-3.5,0.4c-1.2,0.1-2.4,0.1-3.7,0.1c-0.5,0-1,0-1.5,0s-0.9,0-1.4,0
	c-0.1,0-0.2,0-0.3,0c-0.3,0-0.6,0-0.9-0.1c-0.2,0-0.4,0-0.6,0s-0.4,0-0.5-0.1c-0.1,0-0.3,0-0.4,0s-0.2,0-0.2,0c-0.3,0-0.5,0-0.8-0.1
	c-0.1,0-0.2,0-0.2,0c-0.1,0-0.2,0-0.2,0c-0.3,0-0.7-0.1-1-0.1c-0.2,0-0.4-0.1-0.6-0.1l0,0c-0.2,0-0.3-0.1-0.5-0.1
	c-0.5-0.1-1-0.2-1.5-0.3c-0.6-0.1-1.2-0.3-1.8-0.5c-0.6-0.2-1.2-0.4-1.8-0.5c-0.5-0.2-0.9-0.3-1.4-0.5c-0.3-0.1-0.6-0.2-0.9-0.4
	c-0.3-0.1-0.5-0.2-0.8-0.4c-0.1,0-0.2-0.1-0.3-0.1c-0.2-0.1-0.5-0.2-0.7-0.4h-0.1c-0.3-0.1-0.5-0.3-0.8-0.4
	c-0.1-0.1-0.3-0.2-0.4-0.3c-0.3-0.2-0.6-0.3-0.8-0.5c-0.1,0-0.1-0.1-0.2-0.1s-0.2-0.1-0.2-0.1c-0.1-0.1-0.2-0.1-0.3-0.2
	c-0.1,0-0.1-0.1-0.2-0.1c-0.3-0.2-0.5-0.4-0.8-0.6c0,0-0.1,0-0.1-0.1l0,0c0,0,0,0-0.1,0l-0.1-0.1c-0.4-0.3-0.7-0.5-1-0.8
	c-0.5-0.4-0.9-0.8-1.4-1.2c-0.2-0.2-0.4-0.4-0.6-0.6l0,0c0,0,0,0-0.1-0.1s-0.1-0.1-0.2-0.2c-0.2-0.2-0.3-0.4-0.5-0.5l-0.1-0.1
	l-0.1-0.1l-0.1-0.1c-0.1-0.1-0.1-0.1-0.2-0.2l0,0c-0.2-0.2-0.4-0.4-0.5-0.7c-0.8-1-1.5-2-2.1-3c-0.2-0.3-0.3-0.5-0.5-0.8
	s-0.3-0.6-0.5-0.8c0-0.1-0.1-0.2-0.1-0.3c-0.2-0.4-0.4-0.8-0.6-1.2c0-0.1-0.1-0.2-0.2-0.3l0,0v-0.1c-0.1-0.3-0.2-0.5-0.3-0.8
	c-0.1-0.3-0.2-0.5-0.3-0.8c-0.1-0.2-0.1-0.4-0.2-0.5c-0.1-0.2-0.2-0.4-0.2-0.6c-0.1-0.3-0.3-0.7-0.4-1l0,0v-0.1
	c0-0.1-0.1-0.3-0.1-0.4c-0.1-0.3-0.2-0.6-0.3-1c0-0.1,0-0.1-0.1-0.2c-0.1-0.2-0.1-0.4-0.2-0.6c-0.1-0.3-0.2-0.6-0.2-0.9
	c-0.1-0.3-0.2-0.7-0.3-1c0-0.2-0.1-0.3-0.1-0.5c-0.1-0.3-0.1-0.5-0.2-0.8c0-0.1-0.1-0.3-0.1-0.4c-0.2-1-0.4-2-0.6-3.1
	c-0.1-0.4-0.1-0.8-0.2-1.2l0,0c0-0.2-0.1-0.5-0.1-0.7s-0.1-0.5-0.1-0.7s0-0.4-0.1-0.5s0-0.4-0.1-0.6c0-0.3-0.1-0.5-0.1-0.7
	s0-0.4-0.1-0.6c0-0.4-0.1-0.9-0.1-1.3c0-0.2,0-0.4-0.1-0.7c0-0.3,0-0.6-0.1-0.9c0-0.4-0.1-0.9-0.1-1.3c0-0.4,0-0.8-0.1-1.3
	c0-0.7-0.1-1.4-0.1-2.2c0-0.2,0-0.5,0-0.7c0-0.1,0-0.1,0-0.2c0-0.4,0-0.9,0-1.3c0-0.5,0-1,0-1.5c0-1,0-1.9,0-2.8c0-0.4,0-0.9,0-1.3
	c0-0.5,0-0.9,0.1-1.4c0-0.5,0-1,0.1-1.4c0-0.4,0.1-0.8,0.1-1.2s0.1-0.9,0.1-1.3c0-0.5,0.1-0.9,0.2-1.4s0.1-1,0.2-1.6
	c0-0.3,0.1-0.6,0.1-0.9c0.2-1.2,0.4-2.4,0.7-3.6c0.1-0.4,0.1-0.7,0.2-1.1c0.1-0.4,0.2-0.7,0.3-1.1c0.1-0.5,0.2-0.9,0.4-1.3
	c0.1-0.3,0.2-0.6,0.3-0.9c0.3-0.8,0.5-1.6,0.8-2.4c0.1-0.4,0.3-0.8,0.4-1.2c0,0,0-0.1,0.1-0.2c0.2-0.4,0.4-0.8,0.5-1.3
	c0.6-1.3,1.2-2.5,1.9-3.7c0.2-0.3,0.4-0.6,0.5-0.9c0.2-0.3,0.3-0.5,0.5-0.8c0-0.1,0-0.1,0.1-0.1c0.2-0.3,0.3-0.5,0.5-0.8
	s0.4-0.5,0.6-0.8s0.4-0.5,0.6-0.8c0.1-0.2,0.2-0.3,0.4-0.5l0.1-0.1c0.1-0.1,0.1-0.2,0.2-0.3c0.4-0.5,0.8-0.9,1.2-1.3
	c0.4-0.4,0.8-0.8,1.2-1.1c0.6-0.5,1.1-1,1.8-1.5c0.2-0.2,0.5-0.4,0.7-0.5c0.3-0.2,0.5-0.4,0.8-0.6c0.5-0.3,0.9-0.6,1.4-0.9
	c0.8-0.5,1.7-1,2.6-1.4c0.2-0.1,0.4-0.2,0.7-0.3c0,0,0.1,0,0.2-0.1c0.4-0.2,0.8-0.4,1.2-0.5c0.5-0.2,1-0.4,1.6-0.6
	c1.1-0.4,2.2-0.8,3.4-1.1c0.6-0.2,1.3-0.3,1.9-0.5c0.7-0.2,1.4-0.3,2.1-0.4c0.4-0.1,0.8-0.1,1.2-0.2c0.3-0.1,0.6-0.1,1-0.1
	c0.6-0.1,1.2-0.2,1.8-0.2c0.1,0,0.3,0,0.4,0c0.6-0.1,1.2-0.1,1.8-0.1c0,0,0,0,0.1,0l0,0c0.3,0,0.6,0,0.9,0c0.4,0,0.7,0,1.1,0
	c0.7,0,1.3,0,2,0c0.5,0,1.1,0,1.6,0c0.2,0,0.4,0,0.7,0c0.6,0,1.2,0,1.8,0.1c0.6,0,1.2,0.1,1.8,0.1h0.1c0.6,0,1.3,0.1,1.9,0.2
	c0.4,0,0.9,0.1,1.3,0.1c0.3,0,0.5,0.1,0.8,0.1c0.4,0.1,0.9,0.1,1.3,0.2c0.3,0,0.5,0.1,0.8,0.1c0.4,0.1,0.7,0.1,1.1,0.2
	c0.5,0.1,1,0.2,1.4,0.3c0.3,0.1,0.7,0.2,1,0.3s0.6,0.2,0.9,0.3c0.4,0.1,0.7,0.2,1.1,0.3c0.2,0.1,0.5,0.2,0.7,0.2
	c0.1,0,0.2,0.1,0.3,0.1l0,0l0,0c0.3,0.1,0.6,0.2,0.9,0.3s0.7,0.3,1,0.4c0.3,0.1,0.6,0.3,0.8,0.4c0.3,0.1,0.6,0.3,0.9,0.4
	s0.6,0.3,0.8,0.5c0.3,0.1,0.6,0.3,0.8,0.5c0.3,0.2,0.5,0.3,0.8,0.5s0.5,0.3,0.8,0.5s0.5,0.3,0.7,0.5s0.4,0.3,0.6,0.5
	s0.4,0.3,0.6,0.5l0,0c0.1,0.1,0.1,0.1,0.2,0.2c0.2,0.2,0.4,0.4,0.7,0.6c0.2,0.2,0.4,0.4,0.7,0.6c0.4,0.4,0.8,0.9,1.2,1.3
	c0.2,0.2,0.4,0.4,0.5,0.7c0.4,0.5,0.8,1.1,1.2,1.7c0.2,0.3,0.4,0.6,0.6,1c0.1,0.1,0.1,0.2,0.2,0.3c0.2,0.3,0.3,0.6,0.5,0.9
	c0.2,0.4,0.4,0.7,0.6,1.1c0.1,0.2,0.2,0.5,0.3,0.7c0.2,0.4,0.4,0.8,0.5,1.2c0.4,1,0.8,2.1,1.2,3.3c0,0.1,0,0.1,0.1,0.2
	c0.1,0.4,0.2,0.7,0.3,1.1c0.1,0.4,0.2,0.9,0.3,1.3c0,0.2,0.1,0.4,0.1,0.5c0.1,0.4,0.2,0.9,0.3,1.3h33.6c-0.1-0.3-0.1-0.7-0.2-1.1
	c-0.1-0.9-0.3-1.8-0.5-2.8c-0.1-0.6-0.3-1.2-0.4-1.8c0-0.2-0.1-0.4-0.2-0.7c-0.1-0.5-0.3-1.1-0.4-1.6c0-0.1-0.1-0.2-0.1-0.3
	c-0.1-0.5-0.3-1-0.5-1.5c-0.1-0.4-0.2-0.7-0.3-1.1c-0.1-0.5-0.3-0.9-0.5-1.3c0-0.1-0.1-0.2-0.1-0.3c-0.2-0.4-0.3-0.9-0.5-1.3
	c-0.2-0.5-0.4-1-0.6-1.5c-0.2-0.5-0.4-1-0.6-1.5c-0.1-0.1-0.1-0.3-0.2-0.4c-0.1-0.1-0.1-0.3-0.2-0.4c-0.2-0.3-0.3-0.7-0.5-1
	c-0.4-0.9-0.9-1.7-1.3-2.5c-0.2-0.4-0.5-0.8-0.7-1.3c-0.2-0.3-0.4-0.7-0.6-1c-0.2-0.4-0.5-0.8-0.7-1.2c-1.2-1.9-2.5-3.7-3.9-5.4
	c-0.2-0.2-0.4-0.5-0.6-0.7c-0.3-0.3-0.5-0.6-0.8-1c-0.1-0.2-0.3-0.3-0.4-0.4c-0.9-1-1.8-2-2.7-2.9c-0.3-0.3-0.7-0.7-1.1-1
	c-0.3-0.3-0.7-0.7-1.1-1c-0.7-0.7-1.5-1.3-2.2-1.9c-1.9-1.6-3.9-3-6-4.4c-0.1-0.1-0.3-0.2-0.4-0.3c-0.1-0.1-0.3-0.2-0.4-0.3
	c-0.1-0.1-0.3-0.2-0.4-0.3c-0.1-0.1-0.2-0.2-0.4-0.2c-0.3-0.2-0.5-0.3-0.8-0.5c-1-0.6-2-1.2-3.1-1.7c-0.3-0.2-0.7-0.4-1-0.5l0,0
	c-0.1,0-0.2-0.1-0.3-0.1c-0.4-0.2-0.9-0.4-1.3-0.6c-0.4-0.2-0.8-0.4-1.2-0.5l0,0c-0.1,0-0.1-0.1-0.2-0.1c-0.4-0.2-0.8-0.4-1.2-0.5
	l0,0c0,0-0.1,0-0.1-0.1c-0.1,0-0.1,0-0.1-0.1c-0.4-0.2-0.8-0.3-1.1-0.5l0,0h-0.1c-0.5-0.2-0.9-0.4-1.4-0.6s-0.9-0.3-1.4-0.5l0,0l0,0
	c-0.5-0.2-1-0.3-1.5-0.5c-8-2.6-16.8-4.1-26.1-4.1c-1.3,0-2.7,0-4,0.1c-0.7,0-1.4,0.1-2.1,0.1c-0.5,0-1,0.1-1.5,0.1
	s-0.9,0.1-1.3,0.1l0,0c-0.3,0-0.7,0.1-1,0.1c-0.6,0.1-1.2,0.1-1.8,0.2c-0.6,0.1-1.3,0.2-1.9,0.3c-0.1,0-0.1,0-0.2,0s-0.2,0-0.3,0.1
	c-0.1,0-0.2,0-0.3,0c-0.3,0.1-0.7,0.1-1,0.2c-0.2,0-0.4,0.1-0.5,0.1c-0.3,0-0.5,0.1-0.8,0.2c-0.1,0-0.3,0.1-0.4,0.1s-0.1,0-0.2,0
	s-0.3,0.1-0.4,0.1c-0.3,0.1-0.6,0.1-0.9,0.2c-0.1,0-0.1,0-0.2,0H454c-0.4,0.1-0.8,0.2-1.1,0.3h-0.1c-0.3,0.1-0.6,0.1-0.8,0.2
	c-0.3,0.1-0.7,0.2-1,0.3c-0.2,0-0.3,0.1-0.5,0.2h-0.1c-0.4,0.1-0.8,0.2-1.2,0.4c-0.2,0.1-0.4,0.1-0.6,0.2c-0.3,0.1-0.5,0.2-0.8,0.3
	c-0.3,0.1-0.5,0.2-0.8,0.3c-0.2,0.1-0.4,0.1-0.6,0.2c-0.9,0.3-1.7,0.6-2.6,1c-0.5,0.2-1.1,0.4-1.6,0.7c-0.2,0.1-0.4,0.2-0.6,0.3
	c-0.6,0.2-1.1,0.5-1.7,0.8c-0.1,0-0.1,0.1-0.2,0.1c-0.4,0.2-0.8,0.4-1.3,0.6c-0.5,0.3-1.1,0.5-1.6,0.8c-0.4,0.2-0.8,0.4-1.2,0.7
	c-0.1,0.1-0.3,0.1-0.4,0.2c-1.5,0.8-3,1.8-4.5,2.7c-0.5,0.3-1.1,0.7-1.6,1.1c-1,0.7-1.9,1.3-2.8,2.1c-0.4,0.3-0.7,0.6-1.1,0.9
	c-0.1,0.1-0.1,0.1-0.2,0.2c-0.3,0.3-0.6,0.5-0.9,0.8l0,0c-0.2,0.2-0.5,0.4-0.7,0.6c-1.3,1.1-2.5,2.2-3.7,3.4
	c-0.8,0.8-1.7,1.7-2.5,2.6c-1.5,1.7-3,3.5-4.3,5.4c-0.3,0.5-0.7,1-1,1.5c-0.4,0.5-0.7,1-1,1.5c-0.2,0.3-0.4,0.7-0.6,1
	s-0.3,0.5-0.5,0.8c-0.4,0.7-0.9,1.4-1.3,2.2c-0.2,0.3-0.4,0.7-0.6,1c-0.4,0.8-0.9,1.6-1.3,2.5c-0.1,0.3-0.3,0.5-0.4,0.8
	c-0.4,0.8-0.7,1.5-1.1,2.3c-0.1,0.3-0.3,0.6-0.4,0.9c-0.2,0.5-0.4,1-0.6,1.5c-0.1,0.2-0.2,0.4-0.3,0.7c0,0.1-0.1,0.2-0.1,0.3
	s-0.1,0.2-0.1,0.3c-0.5,1.3-1,2.7-1.4,4v0.1c0,0,0,0.1-0.1,0.1c0,0.1-0.1,0.2-0.1,0.3c-0.2,0.6-0.4,1.3-0.6,2
	c-0.1,0.2-0.1,0.4-0.2,0.6v0.1c0,0.1,0,0.1,0,0.2c0,0.1,0,0.2-0.1,0.3c-0.1,0.6-0.3,1.1-0.4,1.7c-0.1,0.6-0.3,1.2-0.4,1.8
	c-0.2,0.8-0.3,1.6-0.5,2.4c0,0,0,0,0,0.1c-0.1,0.5-0.2,1-0.2,1.4c-0.1,0.5-0.1,1-0.2,1.5c0,0.2-0.1,0.5-0.1,0.7
	c-0.1,0.4-0.1,0.9-0.2,1.3c0,0,0,0.1,0,0.2c0,0.1,0,0.2,0,0.3s0,0.2,0,0.3l0,0c-0.1,0.5-0.1,0.9-0.1,1.4c0,0.2-0.1,0.5-0.1,0.7
	c0,0.1,0,0.2,0,0.3c0,0.3,0,0.5-0.1,0.8v0.1c0,0.6-0.1,1.3-0.1,1.9c0,0.8-0.1,1.5-0.1,2.3s0,1.6,0,2.4c0,0.8,0,1.7,0,2.5
	c0,0.5,0,1,0,1.5c0,0.6,0,1.2,0.1,1.7c0,0.2,0,0.3,0,0.5s0,0.4,0,0.5c0,0.6,0.1,1.2,0.1,1.8c0,0.4,0.1,0.8,0.1,1.1
	c0,0.1,0,0.2,0,0.2c0,0.4,0.1,0.8,0.1,1.2s0.1,0.8,0.1,1.1c0,0.2,0,0.4,0.1,0.6c0.1,0.6,0.1,1.2,0.2,1.8c0,0.3,0.1,0.5,0.1,0.8l0,0
	c0,0.3,0.1,0.6,0.1,0.8c0.1,0.6,0.2,1.2,0.3,1.8c0,0,0,0.1,0,0.2c0,0.3,0.1,0.7,0.2,1c0,0.3,0.1,0.6,0.2,0.9c0,0.1,0,0.2,0,0.2
	c0,0.1,0,0.2,0,0.2c0.1,0.5,0.2,0.9,0.3,1.4c0.3,1.2,0.5,2.5,0.8,3.7c0.2,0.6,0.3,1.2,0.5,1.8l0,0c0.2,0.6,0.3,1.2,0.5,1.7
	c0.3,1.2,0.7,2.3,1.1,3.5c0,0.1,0.1,0.2,0.1,0.3c0.2,0.5,0.3,0.9,0.5,1.4c0.4,1.1,0.9,2.2,1.3,3.3c0.2,0.4,0.3,0.8,0.5,1.2
	c0.1,0.3,0.3,0.6,0.4,0.8c1.2,2.5,2.4,4.9,3.9,7.2c0.6,1,1.2,1.9,1.9,2.8c0.6,0.9,1.3,1.8,2,2.7c1.4,1.8,2.8,3.4,4.4,5
	c0.8,0.8,1.5,1.5,2.4,2.3c1.6,1.5,3.3,2.9,5.1,4.2c0.1,0.1,0.2,0.2,0.3,0.3c0.3,0.2,0.7,0.5,1,0.7c0.2,0.2,0.5,0.3,0.7,0.5
	c0.7,0.5,1.4,0.9,2.1,1.3c0.2,0.1,0.5,0.3,0.7,0.4s0.5,0.3,0.7,0.4s0.4,0.2,0.6,0.3c0.4,0.2,0.8,0.4,1.1,0.6
	c0.2,0.1,0.4,0.2,0.7,0.4c0.3,0.1,0.5,0.3,0.8,0.4c0.5,0.2,0.9,0.4,1.4,0.7c0.3,0.1,0.5,0.2,0.8,0.3h0.1c0.2,0.1,0.4,0.2,0.5,0.2
	c0.6,0.3,1.2,0.5,1.8,0.7c0.5,0.2,1.1,0.4,1.6,0.6l0,0c0.4,0.2,0.9,0.3,1.3,0.5c0.1,0,0.2,0.1,0.4,0.1c0.2,0.1,0.4,0.2,0.7,0.2
	c0.1,0,0.2,0.1,0.3,0.1c0.3,0.1,0.7,0.2,1,0.3l0,0c0.2,0.1,0.4,0.1,0.6,0.2c1.4,0.4,2.9,0.8,4.4,1.1c1,0.2,2,0.4,3,0.6
	c4.6,0.8,9.5,1.3,14.6,1.3c40.7,0,59-29.8,59.2-76.2h8.4l-6.3,23.1v51h33.6v-64.7C561.4,206,561.4,205.7,561.4,205.3z M847.6,74.7
	L897.8,5h-38.6l-40.1,56.7L779.2,5h-38.7l50,69.7v8.4l-50,69.9h38.7l21.8-31l3.9-5.5l14.3-20.3l15.3,21.7l0.9,1.2l1.3,1.9l2.2,3.1
	l0,0l20.4,29h38.6l-50.2-69.9v-8.5H847.6z M728,34.4V5H622.4v148H728v-29.4h-72v-30h61.5V64.2H656V34.4H728z M522.8,5h-54.6v148
	h54.6c1,0,2,0,3,0h0.2c0.9,0,1.7,0,2.6-0.1c0.8,0,1.6,0,2.5-0.1c0.3,0,0.7,0,1,0c0.8,0,1.5-0.1,2.3-0.1l0,0c0.5,0,0.9,0,1.4-0.1
	c0.2,0,0.4,0,0.6,0c0.4,0,0.8-0.1,1.2-0.1l0,0c0.8-0.1,1.5-0.1,2.3-0.2c0,0,0,0,0.1,0s0.1,0,0.2,0c0.6-0.1,1.2-0.1,1.8-0.2
	c0.3,0,0.7-0.1,1.1-0.1c0.1,0,0.1,0,0.2,0c0.7-0.1,1.5-0.2,2.2-0.3c0.5-0.1,0.9-0.1,1.4-0.2c0.5-0.1,0.9-0.2,1.4-0.2h0.2
	c0.3,0,0.6-0.1,0.9-0.2c0.5-0.1,1-0.2,1.4-0.3c0.1,0,0.2,0,0.3-0.1c0.1,0,0.1,0,0.2,0c0.3-0.1,0.6-0.1,0.9-0.2c0.1,0,0.1,0,0.2,0
	c0.5-0.1,1-0.2,1.6-0.3c0.5-0.1,1-0.2,1.4-0.3c0.2,0,0.4-0.1,0.7-0.2h0.1h0.1c0.1,0,0.2,0,0.3-0.1c2-0.5,4-1.1,5.9-1.8
	c0.5-0.2,1.1-0.4,1.6-0.6c0.5-0.2,0.9-0.3,1.4-0.5c0.3-0.1,0.6-0.2,0.9-0.4c0.1,0,0.2-0.1,0.2-0.1c0.1,0,0.2-0.1,0.2-0.1
	c0.3-0.1,0.6-0.2,0.9-0.4c0.4-0.2,0.7-0.3,1.1-0.5c0.4-0.1,0.7-0.3,1-0.5c0,0,0,0,0.1,0c0.3-0.2,0.7-0.3,1-0.5
	c0.4-0.2,0.9-0.5,1.3-0.7c0.1,0,0.2-0.1,0.3-0.1s0.1-0.1,0.2-0.1c0.3-0.2,0.6-0.3,1-0.5c0.9-0.5,1.8-1,2.6-1.6l0,0
	c0.3-0.2,0.5-0.3,0.8-0.5c0.5-0.3,1-0.7,1.5-1c0.1-0.1,0.2-0.2,0.3-0.2c0.3-0.2,0.7-0.5,1-0.7c0.2-0.2,0.5-0.3,0.7-0.5
	c0.1-0.1,0.3-0.2,0.4-0.3c0.3-0.2,0.5-0.4,0.8-0.6c0,0,0.1,0,0.1-0.1c0.5-0.4,0.9-0.8,1.4-1.2c0.3-0.3,0.6-0.5,0.9-0.8
	c0.5-0.5,1.1-1,1.6-1.5c0.3-0.3,0.5-0.5,0.8-0.8c0,0,0-0.1,0.1-0.1c0.3-0.4,0.7-0.7,1-1.1c0.3-0.4,0.7-0.8,1-1.2s0.6-0.8,0.9-1.1
	c0.3-0.3,0.6-0.7,0.8-1.1c0.2-0.3,0.4-0.6,0.7-0.9c0,0,0,0,0-0.1c0.2-0.3,0.5-0.7,0.7-1c0.1-0.1,0.1-0.2,0.2-0.3
	c0.3-0.4,0.5-0.8,0.8-1.2c0.3-0.4,0.5-0.9,0.8-1.3c0.2-0.3,0.4-0.6,0.5-0.9c0.6-1,1.1-2,1.6-3c0.2-0.4,0.4-0.8,0.6-1.2
	c0.2-0.4,0.4-0.8,0.6-1.2c0.2-0.5,0.4-1,0.6-1.4v-0.1c0.2-0.5,0.4-1,0.6-1.5c0.1-0.3,0.2-0.5,0.3-0.8l0,0c0.9-2.4,1.7-5,2.4-7.7
	c0.1-0.3,0.2-0.7,0.3-1.1s0.2-0.8,0.3-1.2c0.1-0.3,0.1-0.6,0.2-0.9c0.1-0.6,0.3-1.3,0.4-2c0.1-0.6,0.2-1.2,0.3-1.9
	c0.1-0.4,0.1-0.8,0.2-1.2v-0.1c0-0.1,0-0.2,0-0.3c0.1-0.5,0.2-1,0.2-1.5c0.2-1.5,0.4-3,0.5-4.6l0,0c0-0.4,0.1-0.9,0.1-1.3
	c0-0.1,0-0.2,0-0.3c0-0.3,0-0.6,0.1-0.9c0,0,0-0.1,0-0.2c0-0.4,0.1-0.8,0.1-1.3c0,0,0-0.1,0-0.2c0-0.3,0.1-0.7,0.1-1.1
	c0-0.2,0-0.4,0-0.6s0-0.4,0-0.6c0-0.1,0-0.1,0-0.2c0-0.7,0.1-1.3,0.1-2c0-0.1,0-0.3,0-0.5c0-0.9,0-1.9,0-2.9
	C603.4,15.3,562.3,5,522.8,5z M522.8,123.6L522.8,123.6l-21,0.1V34.4h21c26.2,0,47,2.1,47,44.5C569.8,121.5,549.1,123.6,522.8,123.6
	z M413.3,5v118.7l3.9,13.1l1.6,5.2l0,0l0.8,2.6h-8.4l-0.3-1.1L366.5,5h-66.1v148.1H334V34.4l-6.3-21h8.4l44.7,139.7h66.1V5H413.3z
	 M285.6,153.1L242.8,5h-69.3l-42.6,148h34l13.2-47.5h60.1l13.4,47.5v0.1H285.6z M186.3,76.1l17.6-62.7h8.4L230,76.1H186.3z M115.9,5
	L84.2,66.7v18.9h-8.4V66.7L44.3,5H8.4l54.8,100.4v47.7h33.6v-47.7L151.8,5H115.9z M69.7,195.2l129.6,20.3l2.6,0.4l1.2,0.2l0.4,0.1
	l0.3,0.1l1.6,0.3l132.5,20.7 M69.7,237.1l130.1-20.3l2.1-0.3l1.2-0.2l0.7-0.1l0.3-0.1l1.7-0.3l132-20.6 M34.5,271.3L200.2,217
	l1.7-0.5l0.9-0.3l0.1-0.1l0.2-0.1l1.9-0.6L371.1,161 M34.5,161l165.3,54.2l2.1,0.7l0.8,0.3l0.2,0.1l0.3,0.1l1.6,0.5l0,0l166.4,54.5
	 M4.2,216.1h194.2h4.3h0.3h0.5h0.6h1.9h188.2h5.1h0.9"/>
<path class="st1" d="M543.4,188.5h-77.2v25.2h34.2c0,20-12.6,30-32.8,30c-24.4,0-36.3-14.1-36.3-46.8c0-32.5,15.1-46.6,40.9-46.6
	c22.3,0,33.4,8.2,36.8,25.6h33.6c-4.4-32.3-33.2-55-70.4-55c-42.8,0-74.5,30.9-74.5,76c0,45.4,24.4,76.2,68.7,76.2
	c40.7,0,59-29.8,59.2-76.2h8.4l-6.3,23.1v51h33.6v-64.7C561.3,194.8,555,188.5,543.4,188.5z"/>
<path class="st2" d="M543.4,183.5h-77.2h-5v5v25.2v5h5h28.9c-2.3,16.4-15.9,20-27.4,20c-15.5,0-31.3-5-31.3-41.8
	c0-14.5,3.2-25.3,9.5-32.1c5.8-6.3,14.7-9.5,26.5-9.5c19.7,0,28.9,6.2,31.8,21.6l0.8,4.1h4.1h33.6h5.7l-0.8-5.7
	c-4.8-34.9-35.7-59.3-75.3-59.3c-22.2,0-42.4,8-56.9,22.6c-14.6,14.7-22.7,35.5-22.7,58.5c0,50.1,28.2,81.2,73.7,81.2
	c27.2,0,46.4-12.6,56.3-36.2v29.1v5h5h33.6h5v-5v-64.7C566.3,192,557.7,183.5,543.4,183.5z M561.3,271h-33.6v-51l6.3-23.1h-8.4
	c-0.2,46.4-18.5,76.2-59.2,76.2c-44.3,0-68.7-30.9-68.7-76.2c0-45.2,31.7-76,74.5-76c37.2,0,65.9,22.7,70.4,55H509
	c-3.4-17.4-14.5-25.6-36.8-25.6c-25.8,0-40.9,14.1-40.9,46.6c0,32.8,12,46.8,36.3,46.8c20.2,0,32.8-10.1,32.8-30h-34.2v-25.2h77.3
	c11.5,0,17.9,6.3,17.9,17.9V271H561.3z"/>
<path class="st0" d="M848.5,175.9c-2.8-7.1-7.7-13.6-16-17.3C840.8,162.4,845.6,168.9,848.5,175.9z"/>
<path class="st0" d="M848.5,176c0.3,0.8,0.6,1.5,0.8,2.3C849,177.5,848.7,176.7,848.5,176z"/>
<path class="st0" d="M850.5,182.8c-0.4-1.5-0.8-3-1.3-4.6C849.8,179.7,850.2,181.2,850.5,182.8z"/>
<path class="st1" d="M724.9,195c0-0.5,0-1,0-1.5c0-0.4,0-0.7,0-1c0-1.1-0.1-2.2-0.2-3.3c0-0.3,0-0.6-0.1-0.8c0-0.5-0.1-1-0.1-1.4
	c-0.1-0.6-0.1-1.2-0.2-1.8c-0.1-1.1-0.3-2.3-0.5-3.4c-0.1-0.4-0.1-0.8-0.2-1.1c-0.3-1.5-0.6-3.1-1-4.6c-0.1-0.5-0.2-0.9-0.3-1.4
	s-0.2-0.9-0.4-1.4c-0.5-1.7-1-3.3-1.5-5c-0.1-0.3-0.3-0.7-0.4-1c-0.5-1.4-1-2.7-1.6-4c-0.2-0.4-0.3-0.8-0.5-1.1
	c-0.5-1.1-1-2.2-1.6-3.2c-0.2-0.3-0.4-0.7-0.5-1c-0.1-0.1-0.1-0.2-0.2-0.4c-0.2-0.4-0.4-0.7-0.6-1c-0.4-0.8-0.9-1.6-1.4-2.4
	c-0.2-0.4-0.5-0.8-0.7-1.2c-0.3-0.5-0.6-0.9-0.9-1.3c-0.3-0.4-0.6-0.9-0.9-1.3c-0.3-0.4-0.6-0.9-0.9-1.3c-0.3-0.4-0.6-0.8-1-1.3
	c-1.3-1.7-2.7-3.3-4.1-4.8c-0.3-0.3-0.5-0.5-0.8-0.8s-0.6-0.6-0.9-0.9c-0.3-0.3-0.7-0.7-1-1s-0.6-0.6-1-0.9
	c-0.3-0.2-0.5-0.5-0.8-0.7c-0.3-0.3-0.7-0.6-1.1-0.9c-0.4-0.3-0.7-0.6-1.1-0.9c-1-0.8-2-1.6-3.1-2.3c-0.5-0.3-1-0.7-1.5-1
	s-1-0.7-1.5-1c-1.3-0.8-2.5-1.6-3.8-2.3c-0.4-0.2-0.8-0.5-1.2-0.7c-3.5-1.8-7.3-3.4-11.2-4.7c-0.4-0.1-0.7-0.2-1-0.3
	c-0.8-0.3-1.6-0.5-2.4-0.7c-0.4-0.1-0.8-0.2-1.2-0.3c-0.7-0.2-1.4-0.4-2.1-0.5c-0.5-0.1-1-0.2-1.6-0.4c-0.8-0.2-1.6-0.3-2.4-0.5
	c-0.5-0.1-1-0.2-1.4-0.2c-0.7-0.1-1.4-0.2-2.1-0.3c-1.3-0.2-2.5-0.3-3.8-0.4c-0.7-0.1-1.4-0.1-2.1-0.2l0,0c-0.7,0-1.4-0.1-2.1-0.1
	c-0.6,0-1.3,0-1.9-0.1c-0.1,0-0.3,0-0.4,0c-0.7,0-1.3,0-2,0c-0.6,0-1.2,0-1.8,0c-0.5,0-0.9,0-1.3,0c-0.4,0-0.8,0-1.2,0
	c-0.7,0-1.4,0.1-2.1,0.1c-0.6,0-1.2,0.1-1.7,0.1c-0.4,0-0.8,0.1-1.3,0.1c-1,0.1-2,0.2-3,0.3c-0.6,0.1-1.1,0.2-1.7,0.3
	c-0.6,0.1-1.1,0.2-1.7,0.3c-0.5,0.1-1.1,0.2-1.6,0.3h-0.1c-0.5,0.1-1.1,0.2-1.6,0.3c-0.5,0.1-1.1,0.2-1.6,0.4
	c-0.6,0.1-1.2,0.3-1.7,0.4s-1,0.3-1.5,0.4c-0.4,0.1-0.8,0.2-1.2,0.4c-0.1,0-0.3,0.1-0.4,0.1c-0.4,0.1-0.8,0.2-1.1,0.4
	c-0.1,0-0.2,0.1-0.3,0.1c-1,0.3-1.9,0.6-2.8,1c-0.6,0.2-1.1,0.4-1.7,0.7c-0.4,0.2-0.8,0.3-1.1,0.5c-0.3,0.1-0.6,0.3-0.9,0.4
	c-0.4,0.2-0.9,0.4-1.3,0.6c-0.3,0.1-0.5,0.2-0.8,0.4c-0.8,0.4-1.5,0.7-2.3,1.1c-0.3,0.2-0.6,0.3-0.9,0.5c-1.5,0.8-2.9,1.7-4.3,2.5
	c-0.5,0.3-0.9,0.6-1.3,0.9c-1,0.7-2,1.4-2.9,2.1c-0.4,0.3-0.8,0.6-1.3,1c-0.1,0-0.1,0.1-0.2,0.1c-0.5,0.4-0.9,0.8-1.4,1.1
	c-0.5,0.4-0.9,0.8-1.3,1.2c-0.5,0.4-0.9,0.8-1.3,1.2c-0.4,0.4-0.9,0.8-1.3,1.2c-0.4,0.4-0.8,0.8-1.1,1.1c-0.5,0.5-0.9,0.9-1.3,1.4
	c-0.8,0.9-1.6,1.8-2.3,2.7c-0.4,0.5-0.8,1-1.1,1.4c-0.3,0.5-0.7,0.9-1,1.4s-0.7,0.9-1,1.4c0,0,0,0.1-0.1,0.1c-0.3,0.5-0.7,1-1,1.5
	s-0.6,0.9-0.9,1.4c-1,1.6-1.9,3.2-2.8,4.9c-0.3,0.5-0.5,1-0.7,1.5c-0.3,0.5-0.5,1.1-0.8,1.6c-0.2,0.5-0.4,0.9-0.6,1.4
	c-0.3,0.7-0.6,1.5-0.9,2.2c-0.2,0.4-0.3,0.8-0.5,1.3c-0.6,1.6-1.2,3.3-1.7,5c-0.1,0.4-0.2,0.7-0.3,1.1c-0.1,0.5-0.3,0.9-0.4,1.4
	c-0.1,0.5-0.3,0.9-0.4,1.4c-0.1,0.3-0.2,0.7-0.3,1.1c-0.1,0.4-0.2,0.8-0.3,1.1c-0.1,0.4-0.2,0.8-0.3,1.2c-0.4,2-0.7,4-1,6
	c-0.1,0.6-0.2,1.2-0.2,1.7c-0.2,1.8-0.3,3.6-0.4,5.4c0,0.4,0,0.8,0,1.2c0,0.5,0,1-0.1,1.5c0,0.7,0,1.3,0,2c0,0.9,0,1.8,0,2.7
	c0,0.7,0,1.4,0.1,2.1l0,0c0,0.4,0,0.8,0.1,1.2c0,0.8,0.1,1.5,0.2,2.3c0.1,0.8,0.1,1.5,0.2,2.3c0,0.4,0.1,0.9,0.1,1.3
	c0,0.3,0.1,0.7,0.1,1.1c0,0.1,0,0.2,0,0.2c0.1,0.5,0.1,0.9,0.2,1.4c0.1,0.4,0.1,0.9,0.2,1.3c0,0,0,0,0,0.1c0.1,0.3,0.1,0.7,0.2,1
	c0,0.2,0.1,0.3,0.1,0.5v0.1c0,0.1,0,0.1,0,0.2l0,0c0.1,0.3,0.1,0.6,0.2,0.9c0.1,0.4,0.2,0.9,0.3,1.3c0.2,0.8,0.4,1.6,0.6,2.4
	c0.2,0.7,0.3,1.3,0.5,1.9c0.1,0.2,0.1,0.5,0.2,0.7c0.1,0.4,0.2,0.7,0.3,1.1c0.2,0.8,0.5,1.6,0.8,2.4c0,0.1,0,0.1,0.1,0.2
	c0.1,0.3,0.2,0.5,0.3,0.8s0.2,0.5,0.3,0.8c0.2,0.6,0.4,1.1,0.7,1.7l0,0c0.1,0.2,0.2,0.5,0.3,0.7c0,0.1,0.1,0.3,0.2,0.4
	c0.1,0.3,0.3,0.6,0.4,0.9c0.1,0.2,0.2,0.5,0.3,0.7s0.2,0.4,0.3,0.7c0.6,1.4,1.3,2.7,2,4c0.1,0.3,0.3,0.5,0.4,0.8
	c0.3,0.5,0.6,1,0.9,1.6c0.9,1.5,1.8,3,2.8,4.5c0.1,0.1,0.1,0.2,0.2,0.3c0.3,0.4,0.5,0.8,0.8,1.1c0,0,0,0.1,0.1,0.1
	c0.1,0.2,0.3,0.4,0.4,0.5c0.2,0.3,0.4,0.6,0.6,0.9c0.2,0.3,0.4,0.5,0.6,0.8c0.2,0.2,0.4,0.5,0.5,0.7c0.1,0.1,0.1,0.2,0.2,0.2
	c0.1,0.1,0.1,0.1,0.2,0.2c0.1,0.2,0.3,0.3,0.4,0.5c0.1,0.1,0.2,0.3,0.4,0.4c1.3,1.5,2.7,3,4.2,4.4c0.1,0.1,0.1,0.1,0.2,0.2
	c0.1,0.1,0.3,0.3,0.4,0.4l0,0c0.4,0.4,0.9,0.8,1.3,1.2c0.9,0.8,1.8,1.5,2.7,2.3l0,0c0.5,0.4,0.9,0.7,1.4,1.1
	c0.2,0.2,0.5,0.4,0.7,0.5c0.2,0.2,0.4,0.3,0.6,0.5c0.3,0.3,0.7,0.5,1.1,0.8c0.1,0,0.1,0.1,0.2,0.1c0.1,0.1,0.2,0.1,0.3,0.2
	c0.2,0.1,0.4,0.3,0.7,0.4c0.6,0.4,1.1,0.7,1.7,1.1c0.3,0.2,0.6,0.4,0.9,0.6c0.4,0.3,0.9,0.5,1.3,0.8c1.1,0.6,2.2,1.2,3.3,1.8
	c0.5,0.3,1.1,0.5,1.6,0.8c0.3,0.1,0.6,0.3,0.9,0.4c0.3,0.2,0.6,0.3,1,0.4c0.1,0,0.2,0.1,0.3,0.1c0.4,0.2,0.8,0.3,1.2,0.5
	c0.1,0,0.2,0.1,0.3,0.1c0.5,0.2,0.9,0.4,1.4,0.5c0.1,0,0.2,0.1,0.3,0.1c0.5,0.2,1,0.4,1.5,0.5l0,0c0.6,0.2,1.2,0.4,1.8,0.6
	s1.2,0.4,1.8,0.6s1.3,0.4,1.9,0.5c0.4,0.1,0.7,0.2,1.1,0.3c0.3,0.1,0.7,0.2,1.1,0.3c0.6,0.1,1.1,0.3,1.7,0.4
	c0.6,0.1,1.1,0.2,1.7,0.3c0.1,0,0.2,0,0.3,0c0.6,0.1,1.2,0.2,1.8,0.3c0.1,0,0.3,0,0.4,0.1c0.5,0.1,1.1,0.2,1.7,0.3
	c0.6,0.1,1.2,0.2,1.9,0.2c0.3,0,0.6,0.1,0.9,0.1c0.3,0,0.6,0.1,0.9,0.1c0.3,0,0.6,0.1,0.9,0.1c0.5,0,0.9,0.1,1.4,0.1
	c0.2,0,0.3,0,0.5,0c0.6,0,1.3,0.1,1.9,0.1c1.5,0.1,3,0.1,4.5,0.1s2.9,0,4.3-0.1c1.4-0.1,2.8-0.2,4.2-0.3c0.8-0.1,1.6-0.1,2.4-0.3
	c0.7-0.1,1.4-0.2,2.1-0.3c0.4-0.1,0.8-0.1,1.2-0.2c0.6-0.1,1.2-0.2,1.7-0.3c0.1,0,0.3,0,0.4-0.1c0.8-0.1,1.6-0.3,2.3-0.5
	c1.9-0.4,3.8-0.9,5.7-1.4c0.6-0.2,1.2-0.4,1.8-0.6s1.2-0.4,1.9-0.6c0.5-0.2,0.9-0.3,1.3-0.5c0.2-0.1,0.4-0.2,0.7-0.2
	c0.5-0.2,1-0.4,1.5-0.6c1.2-0.5,2.3-1,3.4-1.5c0.1,0,0.2-0.1,0.3-0.1c0.5-0.2,0.9-0.4,1.3-0.7c0.5-0.3,1.1-0.5,1.6-0.8
	c15-8,26-21,32-37.1c0.2-0.6,0.4-1.1,0.6-1.7s0.4-1.2,0.6-1.8c0.2-0.6,0.4-1.2,0.6-1.9c0.2-0.6,0.3-1.2,0.5-1.8
	c0.1-0.3,0.2-0.7,0.3-1c0.2-0.6,0.3-1.2,0.4-1.8c0-0.1,0-0.1,0-0.2c0-0.1,0-0.1,0-0.2c0.2-0.8,0.3-1.5,0.5-2.3
	c0.1-0.6,0.3-1.3,0.3-1.9c0-0.1,0-0.2,0-0.2c0-0.1,0-0.1,0-0.2c0.1-0.5,0.2-1,0.2-1.4c0-0.1,0-0.2,0-0.3c0.1-0.5,0.2-1.1,0.2-1.6
	c0.1-0.5,0.1-1,0.2-1.6c0-0.3,0.1-0.6,0.1-0.9c0-0.2,0.1-0.5,0.1-0.7v-0.1c0-0.5,0.1-1,0.1-1.5c0-0.1,0-0.2,0-0.3
	c0-0.4,0.1-0.9,0.1-1.3c0-0.4,0.1-0.8,0.1-1.2c0-0.7,0-1.3,0.1-2c0-0.8,0-1.5,0-2.3C724.9,196.3,724.9,195.6,724.9,195z
	 M649.5,243.7c-0.5,0-1.1,0-1.6,0c-0.4,0-0.9,0-1.3,0c-0.6,0-1.2-0.1-1.8-0.1c-0.5,0-1-0.1-1.5-0.1c-0.4,0-0.8-0.1-1.2-0.2
	c-0.4,0-0.8-0.1-1.2-0.2c-0.4-0.1-0.8-0.1-1.2-0.2c-0.4-0.1-0.8-0.1-1.1-0.2c-0.4-0.1-0.9-0.2-1.3-0.3c-0.2-0.1-0.5-0.1-0.7-0.2
	c-0.1,0-0.2,0-0.2-0.1l0,0c-0.7-0.2-1.4-0.4-2.1-0.6c-0.3-0.1-0.7-0.2-1-0.3s-0.7-0.2-1-0.4c-0.7-0.3-1.4-0.5-2-0.8l0,0
	c-0.2-0.1-0.4-0.2-0.7-0.3c-0.3-0.2-0.7-0.3-1-0.5c0,0-0.1-0.1-0.2-0.1c-0.6-0.3-1.2-0.7-1.8-1c-6.2-3.7-10.8-9-14-15.7
	c-0.9-1.9-1.7-4-2.3-6.1c-0.1-0.4-0.2-0.7-0.3-1.1c-0.2-0.7-0.4-1.5-0.6-2.2c-0.1-0.3-0.2-0.7-0.2-1c0-0.2-0.1-0.4-0.1-0.6
	c0-0.1,0-0.2-0.1-0.3c0-0.1,0-0.2-0.1-0.3c-0.1-0.4-0.1-0.8-0.2-1.1c0-0.2-0.1-0.4-0.1-0.6c0-0.2-0.1-0.4-0.1-0.6c0-0.1,0-0.2,0-0.3
	c0-0.3-0.1-0.6-0.1-0.9c0,0,0,0,0-0.1c0-0.4-0.1-0.8-0.1-1.2l0,0c0-0.4-0.1-0.7-0.1-1.1c-0.1-1.3-0.2-2.7-0.3-4.1c0-0.3,0-0.5,0-0.8
	c0-0.4,0-0.8,0-1.3s0-1.1,0-1.7c0-0.5,0-1.1,0-1.6c0-0.3,0-0.5,0-0.8c0-0.5,0-1.1,0.1-1.6c0-0.6,0.1-1.2,0.1-1.8
	c0-0.7,0.1-1.3,0.2-1.9c0.1-0.8,0.2-1.6,0.3-2.4c0.1-0.6,0.2-1.3,0.3-1.9c0-0.2,0.1-0.4,0.1-0.5c0.1-0.8,0.3-1.5,0.5-2.3
	c0.1-0.4,0.2-0.8,0.3-1.1c3.3-13.6,11.1-23.5,23.5-28c0.8-0.3,1.7-0.6,2.5-0.8c0.4-0.1,0.7-0.2,1.1-0.3c0.4-0.1,0.7-0.2,1.1-0.3
	c1.1-0.3,2.2-0.5,3.4-0.7c0.4-0.1,0.8-0.1,1.2-0.2c0.5-0.1,1-0.1,1.5-0.2c0.4,0,0.8-0.1,1.2-0.1s0.8-0.1,1.2-0.1c0.2,0,0.5,0,0.7,0
	c0.4,0,0.8,0,1.2,0h0.1c0.5,0,1.1,0,1.6,0s1.1,0,1.6,0l0,0c0.4,0,0.9,0,1.3,0c0.6,0,1.2,0.1,1.8,0.1c0.5,0,1,0.1,1.5,0.1
	c0.4,0,0.8,0.1,1.2,0.1c0.4,0.1,0.8,0.1,1.2,0.2c0.4,0.1,0.8,0.1,1.2,0.2c0.4,0.1,0.8,0.1,1.1,0.2c0.6,0.1,1.1,0.3,1.7,0.4
	c0.5,0.1,1.1,0.3,1.6,0.4c0.3,0.1,0.7,0.2,1,0.3c0.5,0.2,1,0.3,1.4,0.5c0,0,0,0,0.1,0h0.1c0.2,0.1,0.4,0.1,0.5,0.2
	c0.3,0.1,0.6,0.2,0.9,0.4c0.3,0.1,0.6,0.2,0.8,0.3c0,0,0.1,0,0.1,0.1c0.1,0,0.1,0.1,0.2,0.1c0.3,0.1,0.6,0.3,0.9,0.4
	c0.4,0.2,0.8,0.4,1.1,0.6c0.3,0.2,0.7,0.4,1,0.6c0.5,0.2,0.9,0.5,1.3,0.8c1,0.6,2,1.3,2.9,2.1c0.3,0.3,0.6,0.5,0.9,0.8
	c0.6,0.5,1.2,1.1,1.8,1.7c0.2,0.2,0.5,0.4,0.7,0.7c0.1,0.1,0.3,0.3,0.4,0.4c0.2,0.2,0.5,0.5,0.7,0.7c0.3,0.3,0.6,0.6,0.8,1
	c0.3,0.3,0.6,0.7,0.8,1.1c0.2,0.3,0.4,0.5,0.6,0.8c1.3,1.9,2.5,4,3.5,6.2c0.2,0.5,0.5,1,0.7,1.6c0.1,0.2,0.2,0.5,0.3,0.7
	c0.1,0.3,0.2,0.5,0.3,0.8c0,0.1,0.1,0.3,0.2,0.4c0.1,0.3,0.2,0.6,0.3,0.9c0.1,0.3,0.2,0.5,0.3,0.8c0.1,0.2,0.2,0.5,0.2,0.7
	c0.3,0.8,0.5,1.7,0.7,2.5c0.1,0.5,0.2,0.9,0.3,1.4s0.2,0.9,0.3,1.4c0,0.2,0.1,0.5,0.1,0.7c0.1,0.6,0.2,1.2,0.3,1.9l0,0
	c0.1,0.4,0.1,0.7,0.2,1.1v0.1c0,0.1,0,0.2,0,0.3c0,0.3,0.1,0.6,0.1,0.9c0,0.3,0.1,0.6,0.1,0.9c0,0.1,0,0.2,0,0.3l0,0
	c0.1,0.8,0.2,1.7,0.2,2.5c0,0.4,0,0.9,0.1,1.3c0,0.1,0,0.1,0,0.2c0,0.3,0,0.5,0,0.8c0,0.4,0,0.8,0,1.3s0,1.1,0,1.6
	C691.3,225.4,677.4,243.7,649.5,243.7z"/>
<path class="st2" d="M718.7,153c-2.9-5-6.3-9.6-10.3-13.7c-6.3-6.6-13.7-11.9-21.9-15.7c-9.2-4.3-19.4-6.8-30.5-7.5
	c-2.1-0.1-4.3-0.2-6.5-0.2c-9.7,0-18.7,1.3-27.1,3.9c-12.4,3.8-23.2,10.4-32,19.5c-13.9,14.5-21.5,35-21.5,57.6
	c0,22.7,7.7,43.2,21.5,57.8c14.6,15.3,35,23.4,59.1,23.4c23.9,0,44.3-8.1,58.9-23.4c13.9-14.6,21.5-35.1,21.5-57.8
	C729.9,180.7,726,165.6,718.7,153z M724.8,201.1c0,0.4,0,0.8-0.1,1.2c0,0.4,0,0.9-0.1,1.3c0,0.1,0,0.2,0,0.3c0,0.5-0.1,1-0.1,1.5
	c0,0.1,0,0.1,0,0.1c0,0.3,0,0.5-0.1,0.7c0,0.3,0,0.6-0.1,0.9c0,0.5-0.1,1-0.2,1.6l0,0c-0.1,0.5-0.1,1.1-0.2,1.6c0,0.1,0,0.2,0,0.3
	c-0.1,0.5-0.2,1.1-0.3,1.6c0,0.1,0,0.2,0,0.2c-0.1,0.6-0.2,1.3-0.3,1.9c-0.2,0.8-0.3,1.6-0.5,2.4c-0.2,0.8-0.4,1.6-0.6,2.4
	c-0.2,0.8-0.4,1.6-0.6,2.4c-0.2,0.8-0.5,1.6-0.7,2.3s-0.5,1.4-0.7,2.1c0,0.1-0.1,0.3-0.2,0.4c-0.2,0.6-0.5,1.3-0.7,1.9
	c0,0.1-0.1,0.3-0.1,0.4c-0.3,0.7-0.5,1.3-0.8,2c-0.3,0.6-0.5,1.2-0.8,1.9c-0.1,0.2-0.2,0.4-0.3,0.7c-0.3,0.6-0.6,1.2-0.9,1.8
	c-0.3,0.6-0.7,1.3-1,1.9c-0.1,0.1-0.1,0.2-0.2,0.3c-0.3,0.5-0.6,1.1-0.9,1.6c-0.3,0.5-0.6,1.1-1,1.6c-0.2,0.3-0.4,0.6-0.5,0.9
	c-0.9,1.3-1.8,2.6-2.7,3.9c-0.3,0.4-0.6,0.8-0.9,1.2c-0.2,0.2-0.3,0.5-0.5,0.7c-0.4,0.5-0.9,1.1-1.3,1.6c-0.5,0.5-0.9,1-1.4,1.6
	c0,0.1-0.1,0.1-0.2,0.2c-0.4,0.4-0.8,0.9-1.3,1.3c-0.3,0.4-0.7,0.7-1,1c-0.7,0.7-1.4,1.3-2.1,2c-0.1,0.1-0.2,0.2-0.2,0.2
	c-0.4,0.4-0.9,0.8-1.3,1.1c-0.5,0.4-0.9,0.8-1.4,1.1c-0.5,0.4-0.9,0.7-1.4,1.1c-0.7,0.5-1.5,1.1-2.2,1.6c-0.4,0.3-0.7,0.5-1.1,0.8
	c-0.2,0.2-0.4,0.3-0.7,0.4c-0.4,0.3-0.8,0.5-1.2,0.8c-0.3,0.1-0.5,0.3-0.8,0.5c-0.6,0.4-1.2,0.7-1.8,1c-0.6,0.4-1.3,0.7-2,1.1
	c-0.1,0.1-0.2,0.1-0.4,0.2c-0.6,0.3-1.2,0.6-1.8,0.9c-0.1,0-0.2,0.1-0.3,0.1c-0.7,0.3-1.3,0.6-2,0.9h-0.1c-0.5,0.2-1.1,0.5-1.6,0.7
	c-0.1,0-0.2,0.1-0.3,0.1c-0.3,0.1-0.5,0.2-0.8,0.3c-0.6,0.2-1.2,0.5-1.9,0.7c0,0-0.1,0-0.2,0.1c-0.8,0.3-1.5,0.5-2.3,0.8
	c-1.2,0.4-2.5,0.8-3.7,1.1c-1.3,0.3-2.5,0.6-3.8,0.9c-0.8,0.2-1.6,0.3-2.3,0.5c-0.1,0-0.3,0-0.4,0.1c-0.6,0.1-1.1,0.2-1.7,0.3
	c-0.4,0.1-0.8,0.1-1.2,0.2c-0.7,0.1-1.4,0.2-2.1,0.3c-0.8,0.1-1.6,0.2-2.4,0.3c-1.4,0.1-2.8,0.2-4.2,0.3c-1.4,0.1-2.9,0.1-4.3,0.1
	c-1.5,0-3,0-4.5-0.1c-0.6,0-1.3-0.1-1.9-0.1c-0.2,0-0.4,0-0.5,0c-0.5,0-0.9-0.1-1.4-0.1c-0.3,0-0.6,0-0.9-0.1
	c-0.3,0-0.6-0.1-0.9-0.1c-0.3,0-0.6-0.1-0.9-0.1c-0.6-0.1-1.2-0.1-1.9-0.2c-0.6-0.1-1.1-0.2-1.7-0.3c-0.1,0-0.3,0-0.4-0.1
	c-0.6-0.1-1.2-0.2-1.8-0.3c-0.1,0-0.2,0-0.3,0c-0.6-0.1-1.1-0.2-1.7-0.3c-0.6-0.1-1.1-0.3-1.7-0.4c-0.4-0.1-0.7-0.2-1.1-0.3
	c-0.4-0.1-0.7-0.2-1.1-0.3c-0.6-0.2-1.3-0.3-1.9-0.5c-0.6-0.2-1.2-0.4-1.8-0.6s-1.2-0.4-1.8-0.6l0,0c-0.5-0.2-1-0.3-1.5-0.5
	c-0.1,0-0.2-0.1-0.3-0.1c-0.5-0.2-0.9-0.3-1.4-0.5c-0.1,0-0.2-0.1-0.3-0.1c0,0-0.1,0-0.2-0.1c-0.3-0.1-0.7-0.3-1-0.4
	c-0.1,0-0.2-0.1-0.3-0.1c-0.3-0.1-0.6-0.3-1-0.4c-0.3-0.1-0.6-0.3-1-0.4c-0.5-0.3-1-0.5-1.6-0.8c-1.1-0.6-2.2-1.1-3.3-1.8
	c-0.5-0.3-0.9-0.5-1.3-0.8c-0.3-0.2-0.6-0.4-0.9-0.6c-0.6-0.4-1.2-0.7-1.7-1.1c-0.2-0.1-0.4-0.3-0.7-0.4c-0.2-0.1-0.3-0.2-0.5-0.3
	c-0.4-0.2-0.7-0.5-1.1-0.8c-0.2-0.2-0.4-0.3-0.6-0.5c-0.2-0.2-0.5-0.3-0.7-0.5c-0.5-0.4-1-0.7-1.4-1.1l0,0c-0.9-0.7-1.8-1.5-2.7-2.3
	c-0.4-0.4-0.9-0.8-1.3-1.2l0,0c-0.2-0.2-0.4-0.4-0.7-0.6c-1.5-1.4-2.9-2.9-4.2-4.4c-0.1-0.1-0.3-0.3-0.4-0.4
	c-0.2-0.2-0.3-0.3-0.4-0.5c-0.1-0.1-0.1-0.1-0.2-0.2c-0.1-0.1-0.1-0.2-0.2-0.2c-0.2-0.2-0.4-0.5-0.5-0.7c-0.2-0.3-0.4-0.5-0.6-0.8
	c-0.2-0.3-0.4-0.6-0.6-0.9c-0.1-0.2-0.3-0.4-0.4-0.6c0,0,0,0,0-0.1c-0.3-0.4-0.5-0.8-0.8-1.1c-0.1-0.1-0.1-0.2-0.2-0.3
	c-1-1.4-2-2.9-2.8-4.5c-0.3-0.5-0.6-1-0.9-1.6c-0.1-0.3-0.3-0.5-0.4-0.8c-0.7-1.3-1.4-2.7-2-4c-0.1-0.2-0.2-0.4-0.3-0.7
	c-0.1-0.2-0.2-0.4-0.3-0.7s-0.3-0.6-0.4-0.9c-0.1-0.1-0.1-0.3-0.2-0.4c0-0.1-0.1-0.2-0.1-0.3c-0.1-0.1-0.1-0.3-0.2-0.4l0,0
	c-0.2-0.6-0.5-1.1-0.7-1.7c-0.1-0.3-0.2-0.5-0.3-0.8s-0.2-0.5-0.3-0.8c0-0.1-0.1-0.1-0.1-0.2c-0.3-0.8-0.5-1.6-0.8-2.4
	c-0.1-0.3-0.2-0.6-0.3-0.9c0-0.1,0-0.1-0.1-0.2c-0.1-0.2-0.1-0.5-0.2-0.7c-0.2-0.6-0.4-1.3-0.5-1.9c-0.2-0.8-0.4-1.6-0.6-2.4
	c-0.1-0.5-0.2-0.9-0.3-1.3c-0.1-0.3-0.1-0.6-0.2-0.9l0,0c0-0.1,0-0.2-0.1-0.3c0-0.2-0.1-0.3-0.1-0.5c-0.1-0.3-0.1-0.7-0.2-1v-0.1
	c-0.1-0.4-0.2-0.9-0.2-1.3c-0.1-0.5-0.1-0.9-0.2-1.4c0-0.1,0-0.2,0-0.2c0-0.4-0.1-0.7-0.1-1.1c-0.1-0.4-0.1-0.9-0.1-1.3
	c-0.1-0.8-0.2-1.5-0.2-2.3c-0.1-0.7-0.1-1.5-0.2-2.3c0-0.4,0-0.8-0.1-1.2l0,0c0-0.7-0.1-1.4-0.1-2.1c0-0.9,0-1.8,0-2.7
	c0-0.7,0-1.3,0-2c0-0.5,0-1,0.1-1.5c0-0.4,0-0.8,0-1.2c0.1-1.8,0.2-3.6,0.4-5.4c0.1-0.6,0.1-1.2,0.2-1.7c0.3-2,0.6-4,1-6
	c0.1-0.4,0.2-0.8,0.3-1.2s0.2-0.8,0.3-1.1c0.1-0.4,0.2-0.7,0.3-1.1c0.1-0.5,0.2-1,0.4-1.4c0.1-0.5,0.3-1,0.4-1.4
	c0.1-0.4,0.2-0.7,0.3-1.1c0.5-1.7,1.1-3.4,1.7-5c0.2-0.4,0.3-0.8,0.5-1.3c0.3-0.7,0.6-1.5,0.9-2.2c0.2-0.5,0.4-0.9,0.6-1.4
	c0.3-0.5,0.5-1.1,0.8-1.6c0.2-0.5,0.5-1,0.7-1.5c0.9-1.7,1.8-3.3,2.8-4.9c0.3-0.5,0.6-0.9,0.9-1.4c0.3-0.5,0.7-1,1-1.5
	c0,0,0-0.1,0.1-0.1c0.3-0.5,0.6-0.9,1-1.4c0.3-0.5,0.7-0.9,1-1.4c0.4-0.5,0.7-1,1.1-1.4c0.7-0.9,1.5-1.8,2.3-2.7
	c0.4-0.5,0.9-0.9,1.3-1.4c0.4-0.4,0.8-0.8,1.1-1.1c0.4-0.4,0.8-0.8,1.3-1.2c0.4-0.4,0.9-0.8,1.3-1.2c0.4-0.4,0.9-0.8,1.3-1.2
	c0.5-0.4,0.9-0.8,1.4-1.1c0.1,0,0.1-0.1,0.2-0.1c0.4-0.3,0.8-0.6,1.3-1c0.9-0.7,1.9-1.4,2.9-2.1c0.4-0.3,0.9-0.6,1.3-0.9
	c1.4-0.9,2.8-1.8,4.3-2.5c0.3-0.2,0.6-0.3,0.9-0.5c0.7-0.4,1.5-0.8,2.3-1.1c0.2-0.1,0.5-0.2,0.8-0.4c0.4-0.2,0.9-0.4,1.3-0.6
	c0.3-0.1,0.6-0.3,0.9-0.4c0.4-0.2,0.8-0.3,1.1-0.5c0.6-0.2,1.1-0.5,1.7-0.7c0.9-0.4,1.9-0.7,2.8-1c0.1,0,0.2-0.1,0.3-0.1
	c0.4-0.1,0.8-0.3,1.1-0.4c0.1,0,0.3-0.1,0.4-0.1c0.4-0.1,0.8-0.3,1.2-0.4c0.5-0.2,1-0.3,1.5-0.4c0.6-0.1,1.2-0.3,1.7-0.4
	s1.1-0.3,1.6-0.4s1.1-0.2,1.6-0.3c0,0,0,0,0.1,0c0.5-0.1,1.1-0.2,1.6-0.3c0.5-0.1,1.1-0.2,1.7-0.3c0.6-0.1,1.1-0.2,1.7-0.3
	c1-0.1,2-0.3,3-0.3c0.4,0,0.8-0.1,1.3-0.1c0.6,0,1.1-0.1,1.7-0.1c0.7,0,1.4-0.1,2.1-0.1c0.4,0,0.8,0,1.2,0s0.9,0,1.3,0
	c0.6,0,1.2,0,1.8,0c0.7,0,1.3,0,2,0c0.1,0,0.3,0,0.4,0c0.6,0,1.3,0,1.9,0.1c0.7,0,1.4,0.1,2.1,0.1l0,0c0.7,0,1.4,0.1,2.1,0.2
	c1.3,0.1,2.6,0.3,3.8,0.4c0.7,0.1,1.4,0.2,2.1,0.3c0.5,0.1,0.9,0.2,1.4,0.2c0.8,0.1,1.6,0.3,2.4,0.5c0.5,0.1,1.1,0.2,1.6,0.4
	c0.7,0.2,1.4,0.3,2.1,0.5c0.4,0.1,0.8,0.2,1.2,0.3c0.8,0.2,1.6,0.5,2.4,0.7c0.4,0.1,0.7,0.2,1,0.3c4,1.3,7.7,2.9,11.2,4.7
	c0.4,0.2,0.8,0.5,1.2,0.7c1.3,0.7,2.6,1.5,3.8,2.3c0.5,0.3,1,0.7,1.5,1s1,0.7,1.5,1c1,0.8,2.1,1.5,3.1,2.3c0.4,0.3,0.7,0.6,1.1,0.9
	c0.4,0.3,0.7,0.6,1.1,0.9c0.3,0.2,0.5,0.5,0.8,0.7c0.3,0.3,0.7,0.6,1,0.9c0.3,0.3,0.7,0.6,1,1c0.3,0.3,0.6,0.6,0.9,0.9
	c0.3,0.3,0.5,0.5,0.8,0.8c1.4,1.5,2.8,3.1,4.1,4.8c0.3,0.4,0.7,0.8,1,1.3c0.3,0.4,0.6,0.9,0.9,1.3c0.3,0.4,0.6,0.9,0.9,1.3
	c0.3,0.4,0.6,0.9,0.9,1.3c0.3,0.4,0.5,0.8,0.7,1.2c0.5,0.8,1,1.6,1.4,2.4c0.2,0.3,0.4,0.7,0.6,1c0.1,0.1,0.1,0.2,0.2,0.4
	c0.2,0.3,0.4,0.7,0.5,1c0.5,1.1,1.1,2.1,1.6,3.2c0.2,0.4,0.3,0.7,0.5,1.1c0.6,1.3,1.1,2.7,1.6,4c0.1,0.4,0.3,0.7,0.4,1
	c0.6,1.6,1.1,3.3,1.5,5c0.1,0.5,0.3,0.9,0.4,1.4c0.1,0.5,0.2,0.9,0.3,1.4c0.4,1.5,0.7,3,1,4.6c0.1,0.4,0.1,0.8,0.2,1.1
	c0.2,1.1,0.4,2.3,0.5,3.4c0.1,0.6,0.2,1.2,0.2,1.8c0,0.5,0.1,0.9,0.1,1.4c0,0.3,0,0.5,0.1,0.8c0.1,1.1,0.2,2.2,0.2,3.3
	c0,0.3,0,0.7,0,1c0,0.5,0,1,0,1.5c0,0.6,0,1.3,0,1.9c0,0.8,0,1.5,0,2.3C724.9,199.8,724.9,200.5,724.8,201.1z"/>
<path class="st2" d="M691.3,195.2c0-0.4,0-0.9,0-1.3c0-0.3,0-0.5,0-0.8c0-0.1,0-0.1,0-0.2c0-0.4,0-0.9-0.1-1.3
	c-0.1-0.8-0.1-1.7-0.2-2.5l0,0c0-0.1,0-0.2,0-0.3c0-0.3-0.1-0.6-0.1-0.9c0-0.3-0.1-0.6-0.1-0.9c0-0.1,0-0.2,0-0.3
	c0-0.2,0-0.3-0.1-0.5c0-0.1,0-0.3-0.1-0.4c0-0.1,0-0.2,0-0.3l0,0c-0.1-0.6-0.2-1.3-0.3-1.9c0-0.3-0.1-0.5-0.1-0.7
	c-0.1-0.5-0.2-1-0.3-1.4c0-0.1,0-0.1,0-0.2c-0.1-0.3-0.1-0.6-0.2-0.8c0-0.1,0-0.2-0.1-0.3c-0.2-0.8-0.4-1.7-0.7-2.5
	c0-0.1,0-0.1-0.1-0.2c-0.1-0.3-0.2-0.6-0.3-0.8s-0.1-0.3-0.2-0.5c-0.1-0.4-0.3-0.8-0.4-1.3c0-0.1-0.1-0.2-0.1-0.3
	c-0.1-0.2-0.1-0.3-0.2-0.5c-3.6-9.2-9.8-16.1-18.5-20c0,0-0.1,0-0.1-0.1c0,0,0,0-0.1,0c-0.3-0.1-0.6-0.3-0.9-0.4
	c-0.1,0-0.2-0.1-0.3-0.1c-0.2-0.1-0.4-0.2-0.6-0.2c-0.2-0.1-0.4-0.2-0.6-0.2c-0.5-0.2-1-0.4-1.5-0.5c-0.4-0.1-0.7-0.2-1-0.3
	c-0.5-0.1-1.1-0.3-1.6-0.4c-0.5-0.1-1.1-0.3-1.7-0.4c-0.4-0.1-0.8-0.2-1.1-0.2c-0.5-0.1-1-0.2-1.5-0.3c-0.2,0-0.4-0.1-0.5-0.1
	c-0.5-0.1-1-0.1-1.5-0.2c-0.5-0.1-1-0.1-1.5-0.1c-0.6,0-1.2-0.1-1.8-0.1c-0.4,0-0.9,0-1.3,0l0,0c-0.5,0-1.1,0-1.6,0s-1.1,0-1.6,0
	h-0.1c-0.4,0-0.8,0-1.2,0c-0.2,0-0.5,0-0.7,0c-0.4,0-0.8,0-1.2,0.1c-0.4,0-0.8,0.1-1.2,0.1c-0.5,0-1,0.1-1.5,0.2
	c-0.4,0.1-0.8,0.1-1.2,0.2c-1.2,0.2-2.3,0.4-3.4,0.7c-0.4,0.1-0.7,0.2-1.1,0.3c-0.4,0.1-0.7,0.2-1.1,0.3c-0.9,0.3-1.7,0.5-2.5,0.8
	c-12.4,4.5-20.2,14.3-23.5,28c-0.1,0.4-0.2,0.8-0.3,1.1c-0.2,0.8-0.3,1.5-0.5,2.3c0,0.2,0,0.3-0.1,0.5c-0.1,0.6-0.2,1.3-0.3,1.9
	c-0.1,0.8-0.2,1.6-0.3,2.4c-0.1,0.6-0.1,1.3-0.2,1.9c0,0.6-0.1,1.2-0.1,1.8c0,0.5,0,1.1-0.1,1.6c0,0.3,0,0.5,0,0.8c0,0.5,0,1,0,1.6
	s0,1.1,0,1.7c0,0.4,0,0.9,0,1.3c0,0.3,0,0.6,0,0.8c0.1,1.4,0.2,2.8,0.3,4.1c0,0.4,0.1,0.8,0.1,1.1l0,0c0,0.4,0.1,0.8,0.1,1.2
	c0,0,0,0,0,0.1c0,0.3,0.1,0.6,0.1,0.9c0,0.1,0,0.2,0,0.3c0,0.2,0.1,0.4,0.1,0.6c0,0.2,0.1,0.4,0.1,0.6c0.1,0.4,0.1,0.8,0.2,1.2
	c0,0.1,0,0.2,0.1,0.3c0,0.1,0,0.2,0.1,0.3c0.1,0.5,0.2,1,0.3,1.5c0,0.1,0,0.1,0,0.2c0.1,0.6,0.3,1.1,0.4,1.7
	c0.1,0.4,0.2,0.8,0.4,1.2c0.1,0.5,0.3,1,0.5,1.5c0.2,0.6,0.4,1.2,0.6,1.8c0.1,0.4,0.3,0.8,0.5,1.2c0.2,0.5,0.4,0.9,0.6,1.4
	c0.2,0.4,0.4,0.9,0.6,1.3c0.5,0.9,0.9,1.8,1.5,2.7c0.2,0.4,0.5,0.8,0.7,1.1l0.1,0.1c0.2,0.3,0.5,0.7,0.7,1c0.3,0.5,0.7,1,1.1,1.5
	c0.5,0.7,1,1.3,1.6,1.9l0,0c0.3,0.3,0.5,0.6,0.8,0.9c0.1,0.1,0.2,0.2,0.2,0.2c0.3,0.3,0.6,0.6,0.9,0.9c0.3,0.3,0.7,0.6,1,1
	c0.3,0.3,0.7,0.6,1,0.8l0.1,0.1c0.4,0.3,0.7,0.6,1.1,0.8c0.4,0.3,0.8,0.6,1.2,0.8l0,0c0.4,0.3,0.8,0.5,1.1,0.7
	c0.4,0.3,0.8,0.5,1.2,0.7l0,0c0.4,0.2,0.8,0.5,1.3,0.7c0.3,0.1,0.6,0.3,0.9,0.4c0.2,0.1,0.3,0.1,0.5,0.2c0.1,0,0.2,0.1,0.3,0.2l0,0
	c0.8,0.3,1.5,0.7,2.3,1c0.1,0,0.1,0.1,0.2,0.1c0.3,0.1,0.6,0.2,1,0.3c0.2,0.1,0.4,0.1,0.6,0.2c0.5,0.1,0.9,0.3,1.4,0.4
	c0.2,0.1,0.5,0.1,0.7,0.2h0.1c0.2,0,0.4,0.1,0.6,0.1c0.1,0,0.3,0.1,0.4,0.1c0.4,0.1,0.8,0.2,1.2,0.3s0.8,0.1,1.1,0.2
	c0.5,0.1,1,0.2,1.5,0.3c0.2,0,0.3,0,0.5,0.1c0.5,0.1,1,0.1,1.5,0.2c0.5,0.1,1,0.1,1.5,0.1c0.6,0,1.2,0.1,1.8,0.1c0.4,0,0.9,0,1.3,0
	c0.5,0,1.1,0,1.6,0c27.9,0,41.8-18.3,41.8-46.8C691.3,196.3,691.3,195.8,691.3,195.2z M649.5,238.7c-32.2,0-37-26.2-37-41.8
	c0-15.5,4.8-41.6,37-41.6c32,0,36.8,26.1,36.8,41.6C686.3,216,679.9,238.7,649.5,238.7z"/>
<path class="st1" d="M889,179.4c-0.5-2.4-1.1-4.8-1.7-7.1c-0.1-0.4-0.3-0.9-0.4-1.3c-0.1-0.4-0.3-0.9-0.4-1.3
	c-0.1-0.4-0.3-0.9-0.4-1.3c-0.2-0.4-0.3-0.8-0.5-1.3c-0.2-0.6-0.4-1.1-0.6-1.7c-0.1-0.1-0.1-0.3-0.2-0.4c-0.2-0.4-0.3-0.8-0.5-1.2
	l0,0c-0.2-0.5-0.5-1.1-0.7-1.6c-0.1-0.3-0.2-0.5-0.4-0.8c-0.3-0.6-0.6-1.3-0.9-1.9c0-0.1-0.1-0.1-0.1-0.2c-0.2-0.3-0.3-0.7-0.5-1
	c-0.6-1.1-1.1-2.1-1.8-3.2c0-0.1-0.1-0.1-0.1-0.2l-0.1-0.1c-0.4-0.6-0.7-1.3-1.1-1.9c-8.9-13.9-22.4-24.2-39.7-29l0,0
	c-1.6-0.5-3.3-0.9-4.9-1.2c-3.3-0.7-6.6-1.2-10.1-1.5c-1.4-0.1-2.8-0.2-4.2-0.3c-1.4-0.1-2.9-0.1-4.3-0.1c-5,0-9.7,0.4-14.2,1.1
	c-21.9,3.4-38.8,14.8-49.2,31c-7.9,12.3-12.1,27.3-12.1,43.9c0,3.6,0.2,7,0.6,10.5c0.1,0.9,0.2,1.7,0.3,2.5c0.2,1.3,0.4,2.5,0.6,3.7
	c0.1,0.3,0.1,0.5,0.2,0.8l0,0l0,0l0,0c0,0.2,0.1,0.4,0.1,0.5c0.2,1,0.4,2,0.7,3c0.1,0.4,0.2,0.8,0.3,1.1c0.3,1,0.5,2,0.8,3
	c0.1,0.5,0.3,0.9,0.4,1.4c0.3,0.9,0.6,1.9,1,2.8c0.2,0.5,0.4,0.9,0.5,1.4c0.3,0.8,0.6,1.5,0.9,2.3c0.1,0.3,0.2,0.5,0.3,0.8
	c0.2,0.4,0.4,0.9,0.6,1.3c0.1,0.2,0.2,0.5,0.3,0.7s0.2,0.4,0.3,0.6c0.2,0.4,0.4,0.8,0.6,1.2c0.1,0.2,0.2,0.5,0.4,0.7
	c0.3,0.5,0.6,1.1,0.8,1.6c0.2,0.4,0.5,0.8,0.7,1.3c0.2,0.4,0.4,0.8,0.7,1.1c0.4,0.6,0.7,1.2,1.1,1.8c0.1,0.1,0.1,0.2,0.2,0.3
	c0.5,0.7,0.9,1.4,1.4,2.1c0.4,0.6,0.9,1.2,1.3,1.8c0.2,0.2,0.3,0.4,0.5,0.6c0.2,0.3,0.4,0.5,0.6,0.8c2.4,3,5,5.8,7.9,8.3
	c0.9,0.8,1.8,1.5,2.7,2.3l0,0c0.5,0.4,0.9,0.7,1.4,1.1c1.6,1.2,3.2,2.3,4.9,3.4c0.9,0.5,1.8,1.1,2.6,1.6c0.6,0.3,1.2,0.6,1.8,1
	c0.2,0.1,0.4,0.2,0.6,0.3c0.3,0.2,0.6,0.3,0.9,0.5c0.2,0.1,0.4,0.2,0.5,0.3c0.2,0.1,0.4,0.2,0.5,0.3c0.1,0.1,0.3,0.1,0.4,0.2
	c0.5,0.3,1.1,0.5,1.6,0.8c0.4,0.2,0.9,0.4,1.3,0.5c0.5,0.2,1,0.4,1.5,0.6s1,0.4,1.5,0.6c0.2,0.1,0.5,0.2,0.7,0.3
	c0.1,0,0.3,0.1,0.4,0.2c0.2,0.1,0.3,0.1,0.5,0.2c0,0,0.1,0,0.2,0.1c0.4,0.1,0.8,0.3,1.1,0.4c0.1,0,0.3,0.1,0.4,0.1
	c0.5,0.2,1,0.3,1.4,0.4c0.5,0.1,1,0.3,1.5,0.4c0.1,0,0.3,0.1,0.4,0.1c0.6,0.2,1.3,0.3,1.9,0.5c0.7,0.1,1.3,0.3,1.9,0.4
	c3.4,0.7,6.8,1.2,10.4,1.5c1.3,0.1,2.5,0.2,3.8,0.3c1.5,0.1,3,0.1,4.5,0.1s2.9,0,4.3-0.1c1.4-0.1,2.8-0.2,4.2-0.3
	c3.5-0.3,6.8-0.8,10.1-1.5c0.6-0.1,1.3-0.3,1.9-0.4c0.6-0.2,1.3-0.3,1.9-0.5c0.6-0.2,1.3-0.3,1.9-0.5c0.6-0.2,1.2-0.4,1.8-0.6
	c0.8-0.3,1.6-0.5,2.4-0.8c0.8-0.3,1.6-0.6,2.3-0.9c0.8-0.3,1.5-0.6,2.3-0.9s1.5-0.7,2.2-1c14.6-7,25.6-18.4,32.4-32.7
	c0.3-0.7,0.7-1.4,1-2.2c0.2-0.6,0.5-1.1,0.7-1.7c0.1-0.3,0.3-0.7,0.4-1c0.1-0.3,0.2-0.6,0.3-0.8c0.2-0.4,0.3-0.8,0.5-1.3
	c1.3-3.7,2.4-7.5,3.1-11.5c1.1-5.6,1.7-11.5,1.7-17.6C890.6,190.8,890.1,185,889,179.4z M815.2,243.7c-2.2,0-4.3-0.1-6.3-0.3
	c-1.2-0.1-2.4-0.3-3.5-0.5c-0.4-0.1-0.8-0.1-1.1-0.2c-0.5-0.1-1-0.2-1.6-0.4c-0.7-0.2-1.3-0.3-2-0.5c-0.2-0.1-0.5-0.1-0.7-0.2
	c-0.5-0.1-0.9-0.3-1.4-0.5c-0.6-0.2-1.2-0.4-1.8-0.7c-0.4-0.2-0.9-0.4-1.3-0.6c-5.4-2.5-9.8-6.1-13.3-10.7c-0.9-1.1-1.7-2.3-2.4-3.6
	c-0.3-0.4-0.5-0.9-0.7-1.3c-0.2-0.4-0.5-0.9-0.7-1.3c-0.2-0.5-0.4-0.9-0.6-1.4c-0.2-0.3-0.3-0.7-0.4-1c-0.1-0.3-0.2-0.5-0.3-0.8
	s-0.2-0.5-0.3-0.8c-0.2-0.6-0.4-1.1-0.6-1.7c-0.1-0.4-0.3-0.8-0.4-1.2c0-0.1-0.1-0.2-0.1-0.3c-0.3-1-0.6-2-0.8-3.1
	c-0.3-1.1-0.5-2.1-0.7-3.3c-0.7-3.9-1-8.1-1-12.6c0-2.7,0.1-5.2,0.4-7.7c0.1-0.8,0.2-1.6,0.3-2.4c0.1-0.8,0.2-1.6,0.4-2.4
	c0.2-1.1,0.4-2.2,0.7-3.2c3.2-13.7,11-23.6,23.3-28.1c0.9-0.3,1.9-0.7,2.9-1s2-0.5,3.1-0.8c0.4-0.1,0.8-0.2,1.1-0.2
	c1.1-0.2,2.3-0.4,3.5-0.5c2-0.2,4.1-0.3,6.3-0.3s4.3,0.1,6.3,0.3c1.2,0.1,2.4,0.3,3.5,0.5c0.4,0.1,0.8,0.1,1.1,0.2
	c1.1,0.2,2.2,0.5,3.3,0.8c0.4,0.1,0.7,0.2,1.1,0.3c0.9,0.3,1.8,0.6,2.6,0.9c0.4,0.1,0.7,0.3,1.1,0.5c0.1,0,0.1,0,0.2,0.1
	c0.4,0.2,0.8,0.4,1.2,0.6c0.3,0.2,0.7,0.3,1,0.5c0.2,0.1,0.4,0.2,0.6,0.3c0.1,0,0.1,0.1,0.2,0.1c0.1,0,0.1,0.1,0.2,0.1
	c0.2,0.1,0.4,0.2,0.6,0.3c0.1,0,0.1,0.1,0.2,0.1c0.2,0.1,0.5,0.3,0.7,0.4c0.3,0.2,0.6,0.4,0.9,0.6c0.4,0.2,0.7,0.5,1.1,0.8
	c0.3,0.3,0.7,0.5,1,0.8c0.4,0.3,0.8,0.6,1.1,1c0.1,0.1,0.2,0.2,0.3,0.3c0.2,0.2,0.4,0.4,0.6,0.6c0.2,0.2,0.4,0.4,0.6,0.6
	c0.1,0.1,0.3,0.3,0.4,0.4c0.1,0.1,0.3,0.3,0.4,0.4c0.2,0.2,0.4,0.4,0.6,0.7c0.2,0.2,0.4,0.4,0.5,0.6c0.1,0.1,0.2,0.2,0.2,0.3
	c0.4,0.5,0.8,1,1.2,1.5c0,0.1,0.1,0.1,0.1,0.2c0.4,0.5,0.7,1,1.1,1.5c0.1,0.2,0.3,0.4,0.4,0.7c0.1,0.2,0.2,0.4,0.4,0.6
	c0.1,0.2,0.3,0.5,0.4,0.7c0.2,0.3,0.3,0.6,0.5,0.9c0.2,0.3,0.3,0.7,0.5,1c0.1,0.2,0.2,0.4,0.3,0.6c0.2,0.3,0.3,0.7,0.5,1
	c0.1,0.2,0.2,0.4,0.3,0.6c0.3,0.7,0.6,1.4,0.9,2c0.1,0.3,0.2,0.5,0.3,0.8c0.1,0.2,0.2,0.5,0.2,0.7c0.1,0.4,0.3,0.8,0.4,1.1
	c0.1,0.5,0.3,0.9,0.4,1.4c0.1,0.5,0.3,0.9,0.4,1.4c0.1,0.5,0.2,0.9,0.3,1.4c0.2,1,0.4,2,0.6,3c0.7,3.9,1,8.1,1,12.5
	C857,225.4,843.1,243.7,815.2,243.7z"/>
<path class="st2" d="M884.4,153c-2.9-5-6.3-9.6-10.3-13.7c-10.6-11.1-24.1-18.3-39.7-21.5c-6.1-1.2-12.5-1.9-19.2-1.9
	c-3.5,0-7,0.2-10.4,0.5c-19.5,2-36.2,9.8-48.7,22.9c-3.9,4.1-7.4,8.7-10.3,13.7c-7.3,12.6-11.2,27.7-11.2,43.9
	c0,22.7,7.7,43.2,21.5,57.8c14.6,15.3,35,23.4,59.1,23.4c23.9,0,44.3-8.1,58.9-23.4c13.9-14.6,21.5-35.1,21.5-57.8
	C895.6,180.7,891.7,165.6,884.4,153z M885.8,226c-0.2,0.4-0.3,0.9-0.5,1.3c-0.1,0.3-0.2,0.6-0.3,0.8c-0.1,0.3-0.3,0.7-0.4,1
	c-0.2,0.6-0.5,1.1-0.7,1.7c-0.3,0.7-0.6,1.5-1,2.2c-6.8,14.3-17.8,25.7-32.4,32.7c-0.7,0.3-1.5,0.7-2.2,1c-0.8,0.3-1.5,0.6-2.3,0.9
	s-1.5,0.6-2.3,0.9s-1.6,0.5-2.4,0.8c-0.6,0.2-1.2,0.4-1.8,0.6s-1.3,0.4-1.9,0.5c-0.6,0.2-1.3,0.3-1.9,0.5c-0.6,0.1-1.3,0.3-1.9,0.4
	c-3.3,0.7-6.6,1.2-10.1,1.5c-1.4,0.1-2.8,0.2-4.2,0.3c-1.4,0.1-2.9,0.1-4.3,0.1c-1.5,0-3,0-4.5-0.1c-1.3,0-2.6-0.1-3.8-0.3
	c-3.6-0.3-7.1-0.8-10.4-1.5c-0.6-0.1-1.3-0.3-1.9-0.4c-0.6-0.2-1.3-0.3-1.9-0.5c-0.1,0-0.3-0.1-0.4-0.1c-1-0.3-2-0.5-2.9-0.8
	c-0.1,0-0.3-0.1-0.4-0.1c-0.4-0.1-0.8-0.2-1.1-0.4c-0.1,0-0.1,0-0.2-0.1c-0.3-0.1-0.6-0.2-1-0.3c-0.2-0.1-0.5-0.2-0.7-0.3
	c-0.5-0.2-1-0.4-1.5-0.6s-1-0.4-1.5-0.6c-1-0.4-2-0.9-2.9-1.3c-0.1-0.1-0.3-0.1-0.4-0.2c-0.2-0.1-0.4-0.2-0.5-0.3
	c-0.5-0.2-1-0.5-1.4-0.7c-0.2-0.1-0.4-0.2-0.6-0.3c-10.4-5.5-18.8-13.3-25.1-22.9c0-0.1-0.1-0.2-0.2-0.3c-0.4-0.6-0.7-1.2-1.1-1.8
	c-0.2-0.4-0.4-0.8-0.7-1.1c-0.7-1.2-1.3-2.4-1.9-3.6c-0.2-0.4-0.4-0.8-0.6-1.2c-0.1-0.2-0.2-0.4-0.3-0.6c-0.4-0.9-0.8-1.9-1.2-2.8
	c-0.3-0.8-0.6-1.5-0.9-2.3c-0.2-0.5-0.4-0.9-0.5-1.4c-0.3-0.9-0.6-1.9-1-2.8c-0.1-0.5-0.3-0.9-0.4-1.4c-0.3-1-0.6-2-0.8-3
	c-0.1-0.4-0.2-0.8-0.3-1.1c-0.2-1-0.5-2-0.7-3c0-0.2-0.1-0.4-0.1-0.6l0,0c-0.1-0.3-0.1-0.5-0.2-0.8c-0.2-1.2-0.4-2.5-0.6-3.7
	c-0.1-0.8-0.2-1.7-0.3-2.5c-0.4-3.4-0.6-6.9-0.6-10.5c0-16.5,4.2-31.6,12.1-43.9c10.4-16.3,27.3-27.6,49.2-31
	c4.5-0.7,9.3-1.1,14.2-1.1c1.5,0,2.9,0,4.3,0.1c1.4,0.1,2.8,0.1,4.2,0.3c3.5,0.3,6.8,0.8,10.1,1.5c1.7,0.4,3.3,0.8,4.9,1.2l0,0
	c17.3,4.8,30.8,15.1,39.7,29c0.4,0.6,0.8,1.2,1.2,1.9c0.1,0.1,0.1,0.2,0.2,0.3c0,0.1,0.1,0.1,0.1,0.2c0.4,0.7,0.8,1.4,1.2,2.1
	c0.2,0.3,0.3,0.6,0.5,0.9c0.2,0.4,0.4,0.8,0.6,1.2c0.1,0.3,0.3,0.5,0.4,0.8c0.2,0.4,0.4,0.7,0.5,1.1c0.4,0.8,0.7,1.6,1.1,2.4
	c0.2,0.4,0.3,0.8,0.5,1.2c0.4,0.9,0.7,1.9,1.1,2.8c0.1,0.3,0.2,0.6,0.3,1c0.2,0.6,0.4,1.1,0.6,1.7c0.2,0.6,0.4,1.1,0.5,1.7
	c0.7,2.3,1.3,4.7,1.7,7.1c1.1,5.6,1.7,11.4,1.7,17.5s-0.6,12-1.7,17.6C888.2,218.4,887.1,222.3,885.8,226z"/>
<path class="st2" d="M856,184.4c-0.2-1-0.4-2-0.6-3c-0.1-0.4-0.2-0.8-0.3-1.3c-0.3-1.2-0.7-2.5-1-3.6c-0.1-0.4-0.3-0.8-0.4-1.2
	c-0.1-0.4-0.3-0.8-0.4-1.1c-0.3-0.8-0.6-1.5-0.9-2.2c0,0,0-0.1-0.1-0.1c-0.2-0.3-0.3-0.7-0.5-1c0,0,0-0.1-0.1-0.1
	c-0.1-0.2-0.2-0.3-0.3-0.5c-0.4-0.9-0.9-1.7-1.4-2.5c-0.1-0.1-0.2-0.3-0.3-0.4l-0.1-0.1c-0.5-0.8-1-1.5-1.5-2.2
	c0-0.1-0.1-0.1-0.1-0.2c-0.4-0.5-0.8-1-1.2-1.5c0,0,0,0,0-0.1c-0.1-0.1-0.1-0.2-0.2-0.2c-0.5-0.6-1-1.2-1.6-1.7l-0.1-0.1
	c-0.1-0.1-0.2-0.2-0.3-0.3c-0.5-0.5-1-1-1.5-1.4c-0.1-0.1-0.1-0.1-0.2-0.2c-0.3-0.3-0.6-0.5-0.9-0.7c0,0,0,0-0.1,0
	c-0.3-0.2-0.6-0.5-0.9-0.7c-0.2-0.1-0.3-0.2-0.5-0.4l-0.1-0.1c-0.4-0.3-0.8-0.5-1.2-0.8c-0.3-0.2-0.6-0.4-1-0.6
	c-0.3-0.2-0.5-0.3-0.8-0.5c0,0,0,0-0.1,0l-0.1-0.1c0,0-0.1-0.1-0.2-0.1c-0.3-0.2-0.6-0.3-0.9-0.5c-0.3-0.2-0.7-0.4-1-0.5
	c-0.4-0.2-0.7-0.3-1.1-0.5c-0.4-0.2-0.7-0.3-1.1-0.5c-0.8-0.3-1.7-0.6-2.6-0.9c-0.4-0.1-0.7-0.2-1.1-0.3c-1.1-0.3-2.2-0.6-3.3-0.8
	c-0.4-0.1-0.8-0.2-1.1-0.2c-1.2-0.2-2.3-0.4-3.5-0.5c-2-0.2-4.1-0.3-6.3-0.3s-4.3,0.1-6.3,0.3c-1.2,0.1-2.4,0.3-3.5,0.5
	c-0.4,0.1-0.8,0.1-1.1,0.2c-1.1,0.2-2.1,0.5-3.1,0.8s-2,0.6-2.9,1c-12.3,4.5-20.1,14.4-23.3,28.1c-0.2,1-0.5,2.1-0.7,3.2
	c-0.1,0.8-0.3,1.6-0.4,2.4c-0.1,0.8-0.2,1.6-0.3,2.4c-0.3,2.5-0.4,5-0.4,7.7c0,4.5,0.3,8.7,1,12.6c0.2,1.1,0.4,2.2,0.7,3.3
	c0.3,1,0.5,2.1,0.8,3.1c0,0.1,0,0.2,0.1,0.3c0.1,0.3,0.2,0.7,0.3,1c0,0.1,0,0.2,0.1,0.3c0.2,0.7,0.5,1.4,0.7,2
	c0.2,0.7,0.5,1.3,0.8,1.9c0.3,0.6,0.6,1.3,0.9,1.9c0.3,0.6,0.6,1.2,1,1.8c0.3,0.6,0.7,1.2,1,1.7c0.3,0.6,0.7,1.1,1.1,1.7
	c0.2,0.2,0.3,0.4,0.5,0.7s0.4,0.6,0.7,0.9c0.4,0.5,0.8,1,1.3,1.5c0.2,0.3,0.5,0.6,0.8,0.8c0.2,0.2,0.3,0.3,0.5,0.5
	c0.6,0.6,1.2,1.2,1.9,1.8c0.2,0.2,0.4,0.4,0.7,0.6c0.1,0.1,0.3,0.2,0.5,0.4c0.3,0.3,0.7,0.6,1.1,0.8c0.4,0.3,0.7,0.5,1.1,0.8
	c0.3,0.2,0.7,0.5,1.1,0.7c0.2,0.1,0.4,0.3,0.6,0.4c0.1,0.1,0.2,0.1,0.4,0.2c0.2,0.1,0.4,0.3,0.7,0.4c0.3,0.2,0.7,0.4,1,0.5
	c0.4,0.2,0.8,0.4,1.3,0.6c0,0,0.1,0,0.1,0.1c0.4,0.2,0.9,0.4,1.3,0.6c0.5,0.2,0.9,0.4,1.4,0.5c0.5,0.2,1,0.3,1.4,0.5
	c0.1,0,0.2,0.1,0.4,0.1c0.2,0.1,0.5,0.1,0.7,0.2c0.6,0.2,1.3,0.4,2,0.5c0.5,0.1,1,0.2,1.6,0.4c0.4,0.1,0.8,0.1,1.1,0.2
	c1.2,0.2,2.3,0.4,3.5,0.5c2,0.2,4.1,0.3,6.3,0.3c27.9,0,41.8-18.3,41.8-46.8C857,192.5,856.7,188.3,856,184.4z M815.2,238.7
	c-32.2,0-37-26.2-37-41.8c0-15.5,4.8-41.6,37-41.6c4,0,7.6,0.4,10.8,1.2c0.8,0.2,1.6,0.4,2.3,0.6c1.5,0.5,2.9,1,4.2,1.6
	c8.3,3.8,13.1,10.3,16,17.3l0,0c0.3,0.8,0.6,1.5,0.8,2.3c0.5,1.5,0.9,3,1.3,4.6l0,0c0.2,0.8,0.3,1.5,0.5,2.3
	c0.1,0.8,0.3,1.5,0.4,2.3c0.5,3.4,0.6,6.7,0.6,9.6C852,216,845.6,238.7,815.2,238.7z"/>
<path class="st1" d="M1051,188.5h-77.3v25.2h34.2c0,20-12.6,30-32.8,30c-24.4,0-36.3-14.1-36.3-46.8c0-32.5,15.1-46.6,40.9-46.6
	c22.3,0,33.4,8.2,36.8,25.6h33.6c-4.4-32.3-33.2-55-70.4-55c-42.8,0-74.5,30.9-74.5,76c0,45.4,24.4,76.2,68.7,76.2
	c40.7,0,59-29.8,59.2-76.2h8.4l-6.3,23.1v51h33.6v-64.7C1068.9,194.8,1062.6,188.5,1051,188.5z"/>
<path class="st2" d="M1051,183.5h-77.3h-5v5v25.2v5h5h28.9c-2.3,16.4-15.9,20-27.4,20c-15.5,0-31.3-5-31.3-41.8
	c0-14.5,3.2-25.3,9.5-32.1c5.8-6.3,14.7-9.5,26.5-9.5c19.7,0,28.9,6.2,31.8,21.6l0.8,4.1h4.1h33.6h5.7l-0.8-5.7
	c-4.8-34.9-35.7-59.3-75.3-59.3c-22.2,0-42.4,8-56.9,22.6c-14.6,14.7-22.7,35.5-22.7,58.5c0,50.1,28.2,81.2,73.7,81.2
	c27.2,0,46.4-12.6,56.3-36.2v29.1v5h5h33.6h5v-5v-64.7C1073.9,192,1065.3,183.5,1051,183.5z M1068.9,271h-33.6v-51l6.3-23.1h-8.4
	c-0.2,46.4-18.5,76.2-59.2,76.2c-44.3,0-68.7-30.9-68.7-76.2c0-45.2,31.7-76,74.5-76c37.2,0,65.9,22.7,70.4,55h-33.6
	c-3.4-17.4-14.5-25.6-36.8-25.6c-25.8,0-40.9,14.1-40.9,46.6c0,32.8,12,46.8,36.3,46.8c20.2,0,32.8-10.1,32.8-30h-34.2v-25.2h77.3
	c11.5,0,17.8,6.3,17.8,17.9L1068.9,271L1068.9,271z"/>
<path class="st1" d="M1119.2,123h-33.6v132.5c0,11.4,6.3,17.6,17.5,17.6c0.2,0,0.4,0,0.6,0l87.6-2.1v-29.4l-72,2.1L1119.2,123
	L1119.2,123z"/>
<path class="st2" d="M1124.2,238.6V123v-5h-5h-33.6h-5v5v132.5c0,14.2,8.4,22.6,22.5,22.6c0.2,0,0.4,0,0.6,0l87.6-2.1l4.9-0.1V271
	v-29.4v-5.1l-5.1,0.2L1124.2,238.6z M1191.2,271l-87.6,2.1c-0.2,0-0.4,0-0.6,0c-11.2,0-17.5-6.3-17.5-17.6V123h33.6v120.7l72-2.1
	L1191.2,271L1191.2,271z"/>
<polygon class="st1" points="1313.6,152.4 1313.6,123 1208,123 1208,271 1313.6,271 1313.6,241.6 1241.6,241.6 1241.6,211.6 
	1303.1,211.6 1303.1,182.2 1241.6,182.2 1241.6,152.4 "/>
</svg>
