<svg width="40" height="40" viewBox="0 0 40 40" fill="none" xmlns="http://www.w3.org/2000/svg">
<path fill-rule="evenodd" clip-rule="evenodd" d="M28.3761 0.000488281H11.4688C5.14525 0.000488281 0 5.14511 0 11.4693V28.5317C0 34.8552 5.14462 40.0005 11.4688 40.0005H28.3761C34.7003 40.0005 39.8449 34.8552 39.8449 28.5317V11.4693C39.8449 5.14574 34.7003 0.000488281 28.3761 0.000488281ZM36.0494 28.5317C36.0494 32.7627 32.607 36.2049 28.3761 36.2049H11.4688C7.23791 36.2049 3.79555 32.7627 3.79555 28.5317V11.4693C3.79555 7.2384 7.23791 3.79604 11.4688 3.79604H28.3761C32.607 3.79604 36.0494 7.2384 36.0494 11.4693V28.5317ZM19.9541 9.63674C14.2197 9.63674 9.55346 14.2528 9.55346 19.9273C9.55346 25.601 14.2191 30.217 19.9541 30.217C25.6885 30.217 30.3547 25.601 30.3547 19.9273C30.3547 14.2528 25.6885 9.63674 19.9541 9.63674ZM19.9541 26.4287C16.3078 26.4287 13.3418 23.5116 13.3418 19.9273C13.3418 16.3422 16.3078 13.4258 19.9541 13.4258C23.5997 13.4258 26.5664 16.3422 26.5664 19.9273C26.5664 23.5123 23.6004 26.4287 19.9541 26.4287ZM32.9881 9.2163C32.9881 10.5678 31.8925 11.6635 30.541 11.6635C29.1894 11.6635 28.0938 10.5678 28.0938 9.2163C28.0938 7.86484 29.1894 6.76919 30.541 6.76919C31.8925 6.76919 32.9881 7.86484 32.9881 9.2163Z" fill="black"/>
</svg>
