<svg width="249" height="313" viewBox="0 0 249 313" fill="none" xmlns="http://www.w3.org/2000/svg">
<g clip-path="url(#clip0_346_933)">
<path d="M135.558 222.146C145.137 222.146 152.903 130.023 152.903 16.3839C152.903 -97.2551 145.137 -189.378 135.558 -189.378C125.979 -189.378 118.214 -97.2551 118.214 16.3839C118.214 130.023 125.979 222.146 135.558 222.146Z" stroke="#99FF00" stroke-width="1.5" stroke-linecap="round" stroke-linejoin="round"/>
<path d="M231.949 58.2458C306.007 -27.9466 360.154 -102.88 352.889 -109.123C345.623 -115.365 279.697 -50.5533 205.638 35.6391C131.579 121.832 77.4328 196.765 84.6983 203.008C91.9637 209.25 157.89 144.438 231.949 58.2458Z" stroke="#99FF00" stroke-width="1.5" stroke-linecap="round" stroke-linejoin="round"/>
<path d="M264.633 141.523C376.977 124.412 466.88 102.865 465.437 93.3948C463.995 83.925 371.754 90.1192 259.41 107.23C147.067 124.341 57.1634 145.888 58.6057 155.358C60.048 164.828 152.29 158.634 264.633 141.523Z" stroke="#99FF00" stroke-width="1.5" stroke-linecap="round" stroke-linejoin="round"/>
<path d="M420.016 319.757C425.093 311.615 350.904 256.189 254.311 195.961C157.718 135.732 75.2978 93.5076 70.2209 101.65C65.144 109.792 139.333 165.218 235.926 225.446C332.519 285.675 414.939 327.899 420.016 319.757Z" stroke="#99FF00" stroke-width="1.5" stroke-linecap="round" stroke-linejoin="round"/>
</g>
<defs>
<clipPath id="clip0_346_933">
<rect width="524" height="524" fill="white" transform="translate(0 -196)"/>
</clipPath>
</defs>
</svg>
