<svg width="318" height="181" viewBox="0 0 318 181" fill="none" xmlns="http://www.w3.org/2000/svg">
<path d="M314.105 159.254L313.628 171.072C313.474 172.849 312.967 174.578 312.137 176.156C312.415 172.563 312.558 168.93 312.566 165.257C312.574 161.584 312.442 157.939 312.169 154.321C313.036 152.673 313.548 150.861 313.671 149.003C313.639 148.315 313.608 147.675 313.576 147.075C313.525 149.105 313.007 151.097 312.061 152.894C311.47 145.742 310.358 138.643 308.734 131.652C309.875 129.507 310.369 127.077 310.157 124.656C310.03 124.068 309.911 123.515 309.796 122.99C310.085 125.506 309.601 128.051 308.408 130.285C306.739 123.402 304.581 116.648 301.953 110.072C303.345 107.504 303.727 104.508 303.022 101.673C302.816 101.143 302.621 100.65 302.438 100.194C303.217 103.079 302.857 106.153 301.432 108.78C298.762 102.271 295.649 95.9535 292.115 89.8708C292.918 88.3937 293.367 86.7505 293.428 85.0704C293.489 83.3902 293.159 81.7188 292.465 80.1877C292.198 79.7385 291.94 79.3052 291.69 78.8918C292.417 80.4299 292.77 82.1178 292.722 83.8184C292.674 85.5189 292.225 87.1841 291.411 88.6783C287.826 82.6348 283.842 76.837 279.486 71.3234C280.262 69.8936 280.673 68.2944 280.683 66.6677C280.693 65.041 280.301 63.4371 279.542 61.9981C283.405 66.583 286.973 71.4091 290.223 76.4472C289.885 75.8907 289.571 75.3779 289.269 74.889L289.968 75.9344L289.05 74.5313C286.498 70.4291 285.075 68.5091 281.498 63.8981C282.412 65.1741 283.429 66.5852 284.475 68.048C282.782 65.7743 281.021 63.5523 279.192 61.382C279.025 61.0918 278.842 60.8016 278.652 60.5114L277.733 59.4223C277.944 59.7323 278.131 60.0464 278.322 60.3564C273.915 55.2401 269.15 50.4435 264.063 46.0027C263.423 44.9031 262.647 43.8881 261.754 42.9817C261.432 42.7074 261.11 42.4292 260.788 42.1589C261.664 43.0515 262.426 44.0504 263.054 45.1322C257.895 40.7139 252.431 36.6665 246.701 33.0203C245.731 31.3111 244.089 29.6098 241.76 27.9443C244.86 29.9834 247.058 31.4383 248.843 32.6626C246.45 30.9215 243.846 29.1606 240.885 27.3202C240.477 27.0552 240.048 26.7902 239.597 26.5252L239.995 26.7836L239.247 26.3264C242.34 28.2821 244.443 30.3014 245.607 32.3207C239.777 28.6848 233.696 25.4676 227.41 22.6933C226.404 20.9165 224.48 19.1516 221.571 17.4463C226.341 19.6127 232.677 22.5502 237.355 25.1816C236.751 24.8239 236.143 24.4701 235.515 24.1044C232.549 22.5144 230.347 21.3696 228.507 20.4156C225.987 19.1913 223.419 18.0306 220.799 17.009C219.953 16.54 219.038 16.0868 218.077 15.6496C221.066 16.9216 223.125 17.808 224.866 18.603C222.564 17.5019 220.334 16.54 216.856 15.109L216.574 14.9937L215.592 14.5962L215.791 14.6797L215.501 14.5604L214.992 14.3736C216.589 15.0124 218.147 15.7437 219.659 16.5638C213.847 14.3337 207.865 12.5763 201.771 11.3089C199.278 9.99926 196.655 8.95475 193.944 8.19249C197.094 8.70831 200.207 9.42393 203.266 10.335C205.504 11.0545 208.274 11.9648 210.79 12.8273C206.7 11.3327 205.508 10.967 201.572 9.83814C201.27 9.75069 200.968 9.67517 200.666 9.59169L199.33 9.23792C197.361 8.74502 195.365 8.33029 193.34 7.99374C189.912 7.03875 186.43 6.28749 182.914 5.74389C183.164 5.77569 183.415 5.81544 183.665 5.85519C185.08 6.10562 186.821 6.41567 188.435 6.71777C184.583 5.96252 184.229 5.92674 181.658 5.56502L182.659 5.71607L182.178 5.64452C181.88 5.59682 181.578 5.55707 181.28 5.51334L179.988 5.33844C180.501 5.40999 181.018 5.48154 181.522 5.56104C178.102 5.1619 174.641 5.27982 171.255 5.91084C169.267 5.60477 167.113 5.37422 164.895 5.22714C166.234 4.5024 167.747 4.16128 169.267 4.24134L171.652 4.42817C169.2 4.22147 168.818 4.20159 166.954 4.10619L168.445 4.18967C167.049 4.12972 165.667 4.4808 164.47 5.19932C162.24 5.06417 159.938 5.01249 157.629 5.05224C157.203 4.28507 156.786 3.91539 156.377 3.92334C155.319 3.92334 154.739 3.95514 153.463 4.00284L155.582 3.93924C156.098 3.93924 156.631 4.29302 157.172 5.06019C154.866 5.11187 152.557 5.25497 150.307 5.49347C147.948 4.79344 145.48 4.53735 143.029 4.73822C140.95 4.94492 140.29 5.02839 138.346 5.29074L137.487 5.42589C137.96 5.35434 138.429 5.28279 138.918 5.21919C139.856 5.09199 140.8 4.97539 141.749 4.86939C144.472 4.57783 147.227 4.80579 149.866 5.54117C149.353 5.59682 148.844 5.66042 148.339 5.72799C146.642 5.95854 145.076 6.23282 143.661 6.54684C139.188 6.0951 134.679 6.16045 130.221 6.74162C131.346 6.49119 132.531 6.25667 133.755 6.03407C132.793 6.20102 131.848 6.36929 130.921 6.53889L129.362 6.86087L128.651 6.97614L127.49 7.21067C127.888 7.14309 128.285 7.07552 128.683 7.01589C125.656 7.68351 122.688 8.59272 119.807 9.73479C115.038 10.6173 110.34 11.8476 105.751 13.4156C104.745 13.7813 103.72 14.159 102.67 14.5565C108.068 12.5455 113.628 11.0003 119.29 9.93752C117.284 10.729 115.417 11.8331 113.757 13.2089C107.231 14.7408 100.83 16.7578 94.6051 19.243C96.4296 17.6132 99.0531 16.063 102.408 14.6201L101.283 15.0494C97.8884 16.5082 95.2331 18.0863 93.3808 19.7399C87.2964 22.2465 81.4065 25.2015 75.7596 28.5803C76.7878 27.6788 77.8857 26.86 79.043 26.1317L77.8147 26.875L78.9277 26.1833C78.5302 26.4218 78.1327 26.6603 77.771 26.9028C76.8964 27.4355 76.014 27.984 75.0997 28.5683L77.7113 26.9426C76.6356 27.6341 75.6137 28.4062 74.6545 29.252C72.5928 30.5161 70.5656 31.8411 68.5728 33.227C70.1866 32.0345 71.7886 30.8977 73.2951 29.8403C66.9391 34.2327 63.9976 36.3156 60.0226 39.6665L60.0743 39.6228L59.8675 39.7937C59.0527 40.4814 58.1901 41.2168 57.2401 42.0436C54.5609 44.6075 53.1299 47.2826 53.0425 49.9936C47.8793 54.62 43.0397 59.5951 38.5576 64.8839C38.6371 62.2962 39.8017 59.7363 41.988 57.248C43.6734 55.4473 45.6688 53.273 47.6444 51.2099C43.0612 55.817 41.3838 57.7925 36.8682 63.445L40.9903 58.4047C38.8796 60.8612 37.7506 63.3893 37.6711 65.9373C33.2468 71.2542 29.1996 76.874 25.5593 82.7555C25.6607 80.5873 26.3475 78.487 27.5468 76.6778C29.0494 74.4756 30.8183 71.868 32.5991 69.324C27.6343 76.2286 26.5849 77.9696 22.908 84.5801L26.3225 78.705C25.4177 80.3062 24.9042 82.0987 24.8239 83.9361C21.2286 89.8601 18.0604 96.0331 15.3436 102.408C15.4017 100.9 15.7443 99.4163 16.3532 98.0354C17.1482 96.3222 18.0863 94.3586 19.0324 92.3671C15.6457 99.2558 14.9381 101.112 12.581 107.746L15.761 99.3989C15.1817 100.751 14.8556 102.198 14.799 103.668C12.1177 110.139 9.91493 116.798 8.20845 123.591C8.23646 122.801 8.34163 122.015 8.52248 121.245C7.47308 125.093 7.0239 127.498 6.13748 132.574L8.06535 123.253C7.96302 123.811 7.90191 124.375 7.8825 124.942C7.0398 128.438 6.32828 131.978 5.74793 135.563C5.04833 140.95 4.61505 144.34 4.34873 147.043V146.912C4.34873 146.956 4.34873 146.999 4.34873 147.047C3.95123 151.022 3.91943 153.53 3.8916 158.734C3.8916 158.813 3.8916 158.889 3.8916 158.968C3.8916 155.359 4.0347 151.781 4.3209 148.236C4.45605 152.211 6.58268 156.218 10.8439 160.161C10.5789 163.789 10.4464 167.439 10.4464 171.112C10.4464 174.785 10.5709 178.414 10.82 181.999C7.15508 178.08 5.3385 176.093 4.51965 171.792C4.5435 172.129 4.56735 172.463 4.59518 172.797C5.48955 176.701 6.15338 178.76 10.9234 183.414C11.4818 190.431 12.5567 197.397 14.1392 204.255C11.3567 201.684 9.50828 199.088 8.54633 196.476C8.6934 197.033 8.8365 197.561 8.97563 198.066C9.96143 200.586 11.7581 203.103 14.4572 205.587C16.053 212.208 18.1376 218.701 20.6939 225.013C18.8084 223.338 17.2316 221.346 16.0352 219.126L16.874 220.966C18.036 222.936 19.4947 224.715 21.1988 226.241C23.757 232.387 26.7691 238.334 30.2101 244.033C28.7643 242.737 27.5031 241.248 26.4616 239.609L26.9029 240.329L28.0636 242.078C28.9119 243.189 29.8577 244.223 30.8898 245.166C34.3391 250.754 38.1988 256.078 42.4372 261.094C41.7831 260.489 41.1646 259.847 40.5848 259.17L41.5627 260.311C42.1018 260.927 42.6737 261.513 43.2759 262.068C43.8245 262.708 44.3889 263.336 44.9533 263.964L46.6149 265.729L45.3747 264.441C47.2456 266.513 49.1828 268.521 51.1861 270.463C53.1736 272.451 54.8392 273.969 57.1884 275.984C53.0902 272.109 47.7517 266.842 43.9516 262.676C45.9927 264.393 48.1944 265.909 50.5263 267.203C53.3803 268.802 56.3346 270.215 59.3707 271.433C62.9876 275.979 66.9649 280.226 71.2639 284.133C68.5911 283.064 65.9912 281.821 63.4808 280.412C61.6361 279.385 59.8821 278.203 58.2378 276.879C58.6353 277.201 59.0089 277.539 59.4303 277.888C60.9973 279.123 62.6586 280.233 64.399 281.207C66.8874 282.598 69.4618 283.829 72.1066 284.892C76.3609 288.674 80.9257 292.091 85.7527 295.108C83.6744 294.27 81.6475 293.309 79.6829 292.23L80.8198 292.914C82.7254 293.954 84.6897 294.883 86.7028 295.696C89.5533 297.435 92.4907 299.027 95.5034 300.466C94.0883 299.834 92.9236 299.306 91.8941 298.829C93.9134 299.826 95.7061 300.641 98.0832 301.647C98.8186 301.973 99.5539 302.291 100.301 302.597L99.5539 302.267L100.051 302.474L98.9776 301.981L98.4688 301.754C94.7437 300.09 91.1296 298.187 87.6488 296.058C93.1453 298.139 98.7931 299.796 104.543 301.015C108.106 303.56 111.938 305.706 115.971 307.415C112.382 306.633 108.839 305.655 105.357 304.485L106.582 304.93C105.87 304.688 105.179 304.445 104.535 304.219C105.33 304.525 106.2 304.819 107.075 305.109C111.376 306.671 112.504 307.013 116.646 308.21C113.987 307.391 110.708 306.329 107.727 305.32C110.485 306.206 113.506 307.009 116.746 307.705C119.532 308.833 122.406 309.729 125.34 310.384C123.38 309.915 120.931 309.311 118.737 308.742C123.754 310.07 124.131 310.145 127.502 310.849L126.588 310.658C123.557 310.007 120.59 309.09 117.72 307.919C122.696 308.977 128.154 309.835 133.914 310.475C136.174 311.792 138.664 312.666 141.252 313.051L140 312.904C141.757 313.131 142.325 313.186 144.054 313.353L142.675 313.214H142.532C143.414 313.31 144.312 313.393 145.215 313.469L145.839 313.524C148.788 313.767 151.801 313.922 154.894 314.009C154.972 314.029 155.052 314.041 155.132 314.045L153.658 313.993C155.697 314.073 156.114 314.077 157.808 314.089L155.923 314.065C155.858 314.061 155.794 314.048 155.733 314.025C159.982 314.112 164.299 314.025 168.568 313.783C168.449 313.783 168.329 313.81 168.206 313.818C169.601 313.747 170.194 313.699 171.712 313.572L168.973 313.775C169.12 313.775 169.264 313.751 169.411 313.731C170.412 313.667 171.41 313.593 172.404 313.508C176.776 313.111 177.106 313.055 179.686 312.713C176.434 313.151 173.091 313.476 169.713 313.691C171.44 313.354 173.043 312.554 174.352 311.378C179.157 311.068 183.915 310.607 188.542 309.986C189.912 309.798 191.249 309.602 192.553 309.398C190.287 310.423 187.923 311.214 185.497 311.759L186.738 311.537C189.117 310.982 191.439 310.206 193.674 309.219C198.691 308.421 203.652 307.307 208.529 305.884C208.103 306.043 207.67 306.186 207.241 306.341L209.125 305.713L209.359 305.63L209.542 305.57C210.263 305.324 210.993 305.069 211.732 304.807C211.267 304.962 210.794 305.113 210.309 305.264C215.124 303.383 219.749 301.05 224.123 298.296C229.226 296.706 233.496 294.945 236.89 293.069L238.289 292.25C234.795 294.237 230.339 296.078 224.989 297.743C229.41 294.881 233.566 291.628 237.407 288.025C243.89 286.009 249.264 283.763 253.446 281.362C248.882 285.231 244.027 288.743 238.925 291.868C239.446 291.554 239.983 291.232 240.515 290.898C241.048 290.565 241.501 290.278 241.99 289.964C243.815 288.728 245.377 287.667 246.76 286.721C249.328 284.866 251.824 282.921 254.249 280.885C255.306 280.255 256.331 279.57 257.318 278.834C254.519 281.033 252.46 282.646 250.823 283.895C253.16 282.217 255.12 280.715 257.54 278.691C257.874 278.437 258.192 278.182 258.502 277.928L257.763 278.508L258.657 277.757C257.547 278.604 256.39 279.387 255.191 280.102C259.909 276.028 264.308 271.597 268.348 266.85C270.829 265.408 273.12 263.663 275.169 261.654C272.963 264.008 270.423 266.695 267.903 269.243C273.468 263.821 275.177 261.893 280.17 255.783L277.022 259.587C275.158 261.758 272.514 263.876 269.143 265.904C273.197 261.04 276.876 255.876 280.15 250.457C284.546 247.813 287.81 245.027 289.869 242.169C288.434 244.276 286.816 246.657 285.174 248.998C289.213 243.473 290.529 241.418 293.419 236.377L291.24 240.038C289.253 243.266 285.731 246.398 280.798 249.372C284.095 243.789 286.973 237.97 289.408 231.961C294.909 228.65 298.769 225.14 300.848 221.531C300.478 222.393 300.089 223.244 299.703 224.099L299.051 225.502L299.345 224.906C298.996 225.669 298.63 226.424 298.264 227.179L297.386 229.059C298.411 227.04 299.388 224.993 300.315 222.918C302.168 219.062 303.026 216.793 304.887 211.732L302.219 218.581C302.084 218.911 301.929 219.241 301.762 219.567C304.422 213.18 306.603 206.605 308.289 199.895C308.633 199.217 308.926 198.514 309.164 197.792C308.766 199.14 308.369 200.598 307.923 202.093C309.911 195.626 310.348 193.519 311.569 186.988L309.772 195.487C309.507 196.547 309.121 197.573 308.619 198.543C310.282 191.649 311.425 184.64 312.038 177.575C312.638 176.043 313.117 174.465 313.469 172.857C313.957 168.401 314.045 165.368 314.109 159.254H314.105ZM311.664 153.662C309.426 157.541 305.28 161.317 299.361 164.875C298.818 157.648 297.8 150.464 296.312 143.37C302.1 139.892 306.155 136.215 308.345 132.403C309.966 139.399 311.075 146.504 311.664 153.662ZM159.986 9.84609C165.349 8.48101 170.828 7.6213 176.351 7.27824C177.685 7.65453 178.976 8.16876 180.203 8.81259C173.5 8.65596 166.795 9.02277 160.149 9.90969C160.097 9.88172 160.043 9.86035 159.986 9.84609ZM160.157 9.91367C166.892 9.07627 173.681 8.75865 180.465 8.96364C181.268 9.37375 181.952 9.98275 182.453 10.7325C175.076 9.9564 167.653 9.70269 160.24 9.97329C160.218 9.94646 160.189 9.9259 160.157 9.91367ZM150.148 270.749C149.928 265.812 149.736 260.512 149.571 254.849C162.764 255.116 176.176 254.873 189.429 254.094C188.84 259.765 188.159 265.085 187.386 270.054C175.003 270.773 162.474 270.996 150.148 270.749ZM187.234 271.02C186.439 275.929 185.581 280.468 184.635 284.606C173.433 285.266 162.097 285.469 150.947 285.246C150.682 281.128 150.43 276.623 150.191 271.731C162.454 271.966 174.9 271.743 187.223 271.02H187.234ZM149.54 253.72C149.378 248.017 149.245 241.977 149.142 235.598C162.987 235.873 177.058 235.622 190.963 234.803C190.584 241.182 190.107 247.234 189.532 252.961C176.24 253.744 162.78 254.003 149.54 253.72ZM225.462 161.922C215.159 163.305 204.558 164.334 193.845 165.026C193.447 157.716 192.97 150.462 192.37 143.303C202.618 142.643 212.758 141.657 222.616 140.333C225.531 139.939 228.381 139.521 231.166 139.081C232.482 146.165 233.551 153.359 234.406 160.614C231.499 161.075 228.518 161.511 225.462 161.922ZM234.569 162.049C235.364 169.311 235.932 176.633 236.226 183.975C233.248 184.444 230.2 184.889 227.084 185.311C216.526 186.734 205.663 187.787 194.684 188.491C194.552 181.133 194.286 173.783 193.936 166.465C204.669 165.773 215.298 164.744 225.625 163.353C228.673 162.947 231.654 162.513 234.569 162.049ZM146.145 212.706C131.982 212.348 118.077 211.454 104.837 210.059C104.749 206.524 104.708 202.92 104.713 199.247C104.719 195.574 104.773 191.9 104.876 188.224C118.117 189.619 132.022 190.514 146.185 190.872C146.156 194.552 146.137 198.229 146.129 201.902C146.121 205.575 146.126 209.176 146.145 212.706ZM67.6506 157.37C68.7 150.148 70.0356 143.001 71.6614 135.977C82.2667 138.235 93.8935 140.067 106.168 141.431C105.183 148.554 104.364 155.784 103.728 163.07C90.8964 161.643 78.7409 159.731 67.6506 157.37ZM103.604 164.525C102.988 171.811 102.555 179.153 102.317 186.503C89.1673 185.044 76.7096 183.081 65.3491 180.664C65.7466 173.338 66.4422 166.036 67.4479 158.801C78.562 161.162 90.7454 163.078 103.604 164.509V164.525ZM71.9834 134.594C73.6369 127.587 75.5569 120.718 77.7431 113.987C87.617 116.09 98.4409 117.795 109.865 119.063C108.54 125.916 107.374 132.903 106.367 140.023C94.136 138.664 82.5529 136.843 71.9834 134.594ZM104.94 186.769C105.171 179.42 105.584 172.062 106.168 164.784C119.107 166.147 132.697 167.022 146.538 167.371C146.391 174.689 146.28 182.055 146.216 189.417C132.046 189.059 118.149 188.165 104.94 186.769ZM106.288 163.345C106.9 156.055 107.678 148.837 108.621 141.693C120.967 142.997 133.938 143.831 147.151 144.161C146.916 151.336 146.721 158.607 146.57 165.924C132.737 165.579 119.179 164.704 106.268 163.345H106.288ZM108.808 140.29C109.766 133.178 110.887 126.17 112.147 119.314C123.642 120.526 135.715 121.301 148.013 121.611C147.707 128.532 147.433 135.591 147.194 142.75C134.013 142.416 121.09 141.586 108.788 140.286L108.808 140.29ZM110.147 117.72C98.7828 116.456 88.0145 114.762 78.1963 112.671C80.4064 105.978 82.8629 99.4545 85.55 93.1502C94.4818 95.0502 104.272 96.5925 114.611 97.7413C112.962 104.209 111.471 110.903 110.127 117.716L110.147 117.72ZM86.0867 91.8821C88.8003 85.6069 91.7298 79.5623 94.8754 73.7482C102.682 75.4137 111.236 76.7573 120.268 77.7629C118.368 83.7533 116.583 89.994 114.937 96.4454C104.658 95.3086 94.935 93.7782 86.0668 91.8901L86.0867 91.8821ZM128.245 59.6846C135.826 60.4796 143.788 60.9964 151.897 61.1991C151.408 66.7164 150.939 72.5239 150.498 78.5818C140.87 78.3393 131.418 77.7311 122.418 76.7811C124.231 70.8146 126.175 65.0986 128.226 59.6846H128.245ZM120.645 76.5903C111.702 75.5966 103.227 74.261 95.4995 72.6153C98.6795 66.8555 102.026 61.3581 105.568 56.1747C112.079 57.562 119.218 58.6829 126.751 59.5217C124.585 64.9277 122.545 70.6318 120.625 76.5903H120.645ZM177.814 59.6886C169.756 60.1656 161.6 60.3087 153.566 60.1497C153.964 54.6682 154.361 49.4888 154.783 44.6472C161.111 44.7744 167.546 44.6472 173.906 44.2855C175.254 49.0913 176.554 54.2429 177.794 59.6886H177.814ZM170.261 30.0947C173.644 29.8761 176.995 29.5502 180.25 29.1129C181.216 28.9817 182.158 28.8466 183.077 28.7154C186.659 32.7015 189.997 36.9015 193.07 41.2923C191.766 41.499 190.429 41.6951 189.059 41.8806C184.44 42.4848 179.67 42.93 174.86 43.256C173.378 38.5058 171.839 34.1015 170.253 30.0947H170.261ZM178.048 60.7698C179.277 66.2553 180.433 72.0389 181.542 78.073C171.851 78.6414 162.041 78.8163 152.39 78.6255C152.735 72.5636 153.105 66.7522 153.491 61.2349C161.612 61.3979 169.872 61.2508 178.04 60.7698H178.048ZM151.356 98.7827C151.654 92.2518 151.98 85.9157 152.322 79.826C162.065 80.0207 171.97 79.826 181.761 79.2655C182.846 85.3313 183.864 91.6397 184.802 98.1507C173.672 98.8026 162.419 99.0053 151.348 98.7827H151.356ZM184.989 99.4505C185.915 105.985 186.761 112.715 187.521 119.596C175.198 120.323 162.745 120.546 150.482 120.299C150.728 113.399 151.002 106.645 151.297 100.087C162.442 100.313 173.779 100.11 184.981 99.4505H184.989ZM151.996 60.098C143.99 59.8953 136.132 59.3905 128.651 58.5995C130.71 53.2253 132.872 48.1492 135.122 43.4229C141.025 44.047 147.226 44.4445 153.542 44.6154C152.986 49.457 152.469 54.6364 151.976 60.1139L151.996 60.098ZM187.684 120.939C188.431 127.84 189.091 134.888 189.671 142.035C176.419 142.83 163.007 143.052 149.814 142.79C150.001 135.635 150.211 128.567 150.462 121.647C162.752 121.909 175.298 121.687 187.664 120.955L187.684 120.939ZM189.767 143.446C190.315 150.601 190.772 157.871 191.118 165.177C177.206 165.996 163.142 166.25 149.301 165.972C149.424 158.654 149.579 151.384 149.762 144.205C162.975 144.487 176.442 144.245 189.747 143.462L189.767 143.446ZM187.211 99.2955C195.844 98.743 204.383 97.9122 212.682 96.7952C215.144 96.464 217.545 96.1142 219.885 95.7458C222.079 102.146 224.087 108.756 225.891 115.525C223.316 115.931 220.675 116.316 217.969 116.682C208.827 117.91 199.454 118.821 189.965 119.433C189.119 112.572 188.196 105.842 187.191 99.3114L187.211 99.2955ZM212.265 95.5312C204.025 96.6402 195.546 97.463 186.976 98.0156C185.959 91.5085 184.853 85.2041 183.673 79.1462C191.225 78.6613 198.675 77.9537 205.933 76.964C208.082 76.6725 210.18 76.3651 212.225 76.0418C214.797 81.9486 217.202 88.1138 219.42 94.4858C217.099 94.8568 214.714 95.2052 212.265 95.5312ZM205.508 75.7913C198.325 76.7573 190.935 77.4728 183.466 77.9537C182.274 71.9276 181.002 66.152 179.666 60.6704C185.959 60.2729 192.183 59.6608 198.233 58.8459C200.025 58.6074 201.775 58.3517 203.484 58.0787C206.39 63.3893 209.149 69.006 211.74 74.8811C209.705 75.1991 207.628 75.5025 205.508 75.7913ZM197.725 57.7925C191.762 58.5875 185.613 59.1917 179.4 59.5932C178.056 54.1514 176.641 49.0078 175.17 44.21C180.068 43.892 184.917 43.415 189.631 42.7909C191.025 42.6001 192.387 42.4 193.718 42.1907C196.898 46.8017 199.982 51.7664 202.908 57.0373C201.212 57.3049 199.479 57.5567 197.709 57.7925H197.725ZM183.856 28.5723C187.386 28.0114 190.878 27.2281 194.31 26.2271C199.462 29.7394 204.376 33.5904 209.018 37.7546C204.142 39.1773 199.182 40.2912 194.167 41.0896C190.99 36.7094 187.547 32.5291 183.856 28.5723ZM193.877 25.3923C188.776 22.063 183.435 19.1174 177.897 16.5797C179.217 16.1878 180.491 15.6548 181.697 14.9897C188.277 17.0243 194.707 19.516 200.94 22.4468C198.698 23.6747 196.33 24.657 193.877 25.3764V25.3923ZM193.308 25.5672C189.974 26.5337 186.582 27.2878 183.152 27.825C179.736 24.2331 176.046 20.9107 172.118 17.8875C173.964 17.5957 175.789 17.1868 177.583 16.6632C183.039 19.2306 188.295 22.2016 193.308 25.5513V25.5672ZM182.385 27.9522C181.495 28.0953 180.58 28.2265 179.642 28.3497C176.462 28.775 173.227 29.093 169.939 29.3037C168.496 25.6752 166.853 22.1294 165.018 18.6825C166.787 18.5712 168.536 18.4003 170.237 18.1697C170.742 18.1022 171.235 18.0306 171.712 17.9551C175.522 21.0073 179.09 24.3497 182.385 27.9522ZM173.628 43.3275C167.387 43.6972 161.071 43.8085 154.858 43.6853C155.279 38.8914 155.721 34.4474 156.17 30.3929C160.542 30.4803 164.99 30.3929 169.387 30.1424C170.85 34.1612 172.265 38.5575 173.628 43.3275ZM153.63 43.6574C147.433 43.5024 141.347 43.1089 135.552 42.4967C137.676 38.0693 140.023 33.7523 142.583 29.5621C146.662 29.9914 150.931 30.2696 155.303 30.3571C154.731 34.4275 154.17 38.8715 153.63 43.6614V43.6574ZM134.411 42.3735C128.655 41.7335 123.197 40.8749 118.221 39.8176C122.007 35.5114 126.069 31.455 130.38 27.674C133.882 28.4213 137.726 29.0255 141.78 29.4746C139.1 33.6438 136.64 37.9507 134.411 42.3775V42.3735ZM133.958 43.3275C131.6 48.0419 129.335 53.102 127.172 58.4683C119.735 57.6415 112.691 56.5325 106.268 55.1651C109.73 50.1487 113.466 45.3264 117.457 40.7199C122.514 41.7852 128.075 42.6637 133.958 43.3275ZM105.004 54.8908C99.2566 53.673 93.6114 52.0158 88.1179 49.934C92.8437 45.1787 97.8549 40.7158 103.123 36.57C107.464 38.2173 111.925 39.5276 116.468 40.4894C112.379 45.0707 108.546 49.8745 104.988 54.8789L105.004 54.8908ZM104.288 55.9084C100.663 61.0759 97.2259 66.5402 93.977 72.3013C87.0648 70.8318 80.2745 68.8386 73.6648 66.3388C77.8703 60.9341 82.3827 55.7753 87.1798 50.888C92.7414 52.9904 98.4555 54.6648 104.272 55.8965L104.288 55.9084ZM122.033 77.9657C131.123 78.9236 140.667 79.5557 150.386 79.7822C149.949 85.8719 149.54 92.2041 149.162 98.735C138.115 98.4568 127.272 97.7572 116.945 96.672C118.523 90.2325 120.224 83.9639 122.033 77.9657ZM149.253 167.431C163.126 167.709 177.229 167.459 191.162 166.636C191.5 173.95 191.73 181.308 191.845 188.665C177.599 189.504 163.178 189.763 148.991 189.48C149.063 182.119 149.138 174.753 149.257 167.431H149.253ZM190.108 120.808C199.648 120.192 209.085 119.278 218.259 118.026C220.981 117.66 223.631 117.273 226.209 116.865C227.986 123.654 229.552 130.607 230.892 137.67C228.125 138.107 225.286 138.522 222.373 138.914C212.551 140.234 202.451 141.216 192.239 141.872C191.639 134.753 190.919 127.701 190.108 120.808ZM228.439 116.523C239.569 114.679 249.447 112.445 257.91 109.905C260.526 116.511 262.839 123.301 264.819 130.221C255.764 132.936 245.206 135.333 233.281 137.3C231.894 130.245 230.272 123.305 228.439 116.523ZM228.074 115.184C226.219 108.423 224.152 101.841 221.873 95.4358C230.877 94.001 239.782 91.9975 248.533 89.4375C251.769 95.6094 254.721 101.995 257.389 108.593C247.766 111.406 237.975 113.607 228.074 115.184ZM221.408 94.1638C219.114 87.8038 216.638 81.6545 213.974 75.7595C221.842 74.5081 229.623 72.7623 237.272 70.5324C241.111 76.2508 244.653 82.1628 247.885 88.245C239.193 90.7747 230.349 92.7516 221.408 94.1638ZM213.458 74.5988C210.778 68.7397 207.928 63.1389 204.927 57.8442C211.491 56.7963 217.981 55.3359 224.361 53.4717C228.702 58.5597 232.764 63.8794 236.528 69.4075C228.955 71.6231 221.25 73.357 213.458 74.5988ZM204.315 56.8028C201.402 51.7148 198.233 46.7768 194.823 42.0078C199.934 41.195 204.988 40.0599 209.956 38.6092C214.739 42.9668 219.26 47.6045 223.494 52.4978C217.204 54.3328 210.805 55.7706 204.335 56.8028H204.315ZM209.88 37.5081C205.149 33.3608 200.148 29.5324 194.91 26.0482C197.435 25.3051 199.873 24.2922 202.18 23.0272C208.41 26.0238 214.434 29.4285 220.215 33.2191C216.934 35.0156 213.469 36.4535 209.88 37.5081ZM201.294 22.2322C195.004 19.3319 188.52 16.8734 181.888 14.8745C182.691 14.4461 183.374 13.8245 183.876 13.0658C191.035 14.5206 198.087 16.4609 204.983 18.8733C204.315 20.038 203.067 21.1669 201.294 22.2322ZM182.504 12.6683C175.154 11.2854 167.716 10.4168 160.244 10.0687C160.25 10.057 160.253 10.0441 160.253 10.0309C160.253 10.0178 160.25 10.0049 160.244 9.99317C167.676 9.76303 175.114 10.0553 182.504 10.8677C182.653 11.1444 182.731 11.4538 182.731 11.768C182.731 12.0823 182.653 12.3916 182.504 12.6683ZM182.441 12.7836C181.969 13.4961 181.329 14.0806 180.576 14.4849C173.888 12.5409 167.066 11.0901 160.165 10.1442C160.197 10.129 160.223 10.104 160.24 10.0727C167.698 10.4591 175.12 11.3649 182.453 12.7836H182.441ZM180.394 14.5922C179.258 15.2161 178.059 15.7146 176.816 16.0789C171.386 13.6591 165.763 11.6966 160.006 10.2118C160.058 10.1959 160.109 10.1745 160.157 10.1482C167.003 11.1286 173.767 12.614 180.394 14.5922ZM176.526 16.1822C174.836 16.6767 173.117 17.063 171.378 17.339C167.761 14.6034 163.88 12.2333 159.795 10.2635C159.868 10.252 159.939 10.2361 160.01 10.2158C165.672 11.7318 171.197 13.7224 176.526 16.1663V16.1822ZM170.993 17.4026C170.539 17.4741 170.074 17.5417 169.601 17.6053C168.011 17.8199 166.35 17.9789 164.684 18.0863C163.209 15.3383 161.479 12.7351 159.517 10.3112H159.724H159.779C163.743 12.2908 167.499 14.661 170.993 17.3867V17.4026ZM169.097 29.3594C164.827 29.6098 160.511 29.6853 156.261 29.6018C156.714 25.603 157.18 21.9977 157.657 18.8375C159.942 18.8852 162.268 18.8375 164.565 18.7064C166.26 22.1762 167.772 25.732 169.097 29.3594ZM155.423 29.582C151.185 29.4786 147.023 29.2083 143.06 28.787C145.311 25.1544 147.815 21.6849 150.553 18.4043C152.688 18.6269 154.926 18.77 157.207 18.8296C156.615 21.9857 156.003 25.5871 155.423 29.582ZM142.281 28.7075C138.342 28.2702 134.613 27.6819 131.211 26.9585C135.28 23.4484 139.615 20.2589 144.177 17.4185C146.01 17.816 148.017 18.126 150.14 18.3605C147.275 21.6158 144.648 25.0738 142.281 28.7075ZM130.543 26.8114C127.5 26.1652 124.51 25.2881 121.599 24.1879C127.195 21.0175 133.012 18.2556 139.006 15.9239C140.572 16.5163 142.182 16.9893 143.82 17.339C139.157 20.1504 134.718 23.3173 130.543 26.8114ZM129.692 27.5269C125.292 31.2807 121.14 35.3159 117.263 39.6069C112.805 38.6657 108.427 37.3846 104.165 35.775C109.357 31.7689 114.81 28.1119 120.486 24.8279C123.482 25.9597 126.56 26.8619 129.692 27.5269ZM103.434 35.4769C101.73 34.7898 100.073 33.9931 98.4727 33.0919C97.1643 32.3658 95.929 31.5152 94.784 30.5519C100.93 26.9987 107.304 23.8556 113.864 21.143C114.671 21.8282 115.543 22.4327 116.468 22.9477C117.594 23.5791 118.759 24.1368 119.958 24.6172C114.216 27.8692 108.696 31.497 103.434 35.4769ZM97.32 33.863C98.9525 34.7761 100.641 35.5847 102.376 36.2838C97.0363 40.3885 91.9533 44.817 87.1559 49.5444C84.9565 48.6628 82.8162 47.6404 80.7482 46.4837C79.0548 45.5477 77.4572 44.448 75.9782 43.2003C81.5749 38.8535 87.4448 34.8703 93.5517 31.2753C94.7216 32.2572 95.9835 33.1238 97.32 33.863ZM79.7107 47.378C81.8058 48.5496 83.974 49.5852 86.2019 50.4785C81.3473 55.3381 76.7765 60.473 72.512 65.8578C69.8617 64.8027 67.2831 63.5758 64.7926 62.1849C62.7599 61.0579 60.8415 59.736 59.0646 58.2377C64.0321 53.1864 69.312 48.4521 74.8732 44.0629C76.3742 45.3258 77.9944 46.4401 79.7107 47.39V47.378ZM72.8141 67.3922C78.6971 69.6977 85.6255 71.713 93.3251 73.4143C90.1133 79.1939 87.1042 85.2399 84.3257 91.5005C75.5807 89.5687 67.7063 87.2791 61.0243 84.6596C64.6352 78.6961 68.5711 72.9356 72.8141 67.4041V67.3922ZM83.7772 92.7527C81.0304 99.0451 78.5143 105.556 76.2485 112.23C66.5615 110.088 57.8443 107.552 50.4428 104.654C53.388 98.2163 56.6788 91.9426 60.3008 85.86C67.0345 88.5074 74.9646 90.8168 83.7772 92.7646V92.7527ZM75.8272 113.558C73.5972 120.26 71.6256 127.132 69.9323 134.128C59.4859 131.839 50.1049 129.108 42.1351 126.008C44.3402 119.192 46.9172 112.503 49.8545 105.97C57.3037 108.863 66.0686 111.415 75.8073 113.57L75.8272 113.558ZM69.5825 135.548C67.9249 142.563 66.5495 149.702 65.4763 156.917C54.5371 154.496 44.695 151.634 36.3395 148.363C37.7362 141.268 39.5291 134.257 41.7098 127.363C49.6876 130.471 59.1203 133.214 69.5825 135.548ZM65.2696 158.32C64.2414 165.542 63.5259 172.822 63.1231 180.163C51.9136 177.686 41.825 174.749 33.2629 171.398C33.7707 164.134 34.6998 156.906 36.0454 149.75C44.4406 153.038 54.3065 155.9 65.2696 158.32ZM65.2696 182.095C76.6381 184.516 89.1196 186.467 102.265 187.942C102.156 191.615 102.099 195.289 102.094 198.965C102.089 202.64 102.132 206.244 102.225 209.777C89.0639 208.314 76.5983 206.35 65.2298 203.929C65.0708 200.384 64.994 196.776 64.9993 193.106C65.0046 189.435 65.0973 185.765 65.2775 182.095H65.2696ZM102.261 211.168C102.476 218.204 102.873 224.947 103.453 231.397C90.5943 229.97 78.4109 228.05 67.3008 225.685C66.3203 219.176 65.6472 212.391 65.2815 205.329C76.6659 207.745 89.1236 209.709 102.269 211.168H102.261ZM103.589 232.677C104.206 239.082 105.001 245.166 105.974 250.93C93.6988 249.562 82.0719 247.75 71.4666 245.476C69.8196 239.386 68.5059 233.21 67.5313 226.977C78.6097 229.358 90.7692 231.254 103.597 232.677H103.589ZM104.869 211.45C118.097 212.845 131.99 213.74 146.145 214.097C146.179 221.117 146.26 227.838 146.387 234.259C132.542 233.913 118.96 233.038 106.017 231.675C105.463 225.233 105.083 218.498 104.876 211.47L104.869 211.45ZM146.411 235.535C146.538 241.895 146.707 247.937 146.916 253.661C133.707 253.331 120.737 252.492 108.386 251.192C107.472 245.442 106.721 239.363 106.133 232.955C119.051 234.314 132.606 235.189 146.419 235.535H146.411ZM146.968 254.798C147.182 260.458 147.433 265.772 147.715 270.698C135.42 270.391 123.344 269.612 111.849 268.4C110.611 263.399 109.521 258.041 108.577 252.325C120.884 253.605 133.803 254.452 146.968 254.798ZM147.763 271.683C148.054 276.575 148.378 281.08 148.733 285.198C137.603 284.92 126.683 284.216 116.285 283.119C114.655 278.613 113.256 274.027 112.095 269.378C123.531 270.586 135.548 271.357 147.775 271.667L147.763 271.683ZM148.045 120.26C135.81 119.954 123.797 119.178 112.365 117.974C113.649 111.137 115.072 104.459 116.627 97.9758C127.029 99.0729 137.948 99.7765 149.078 100.055C148.713 106.594 148.367 113.347 148.057 120.244L148.045 120.26ZM148.927 201.982C148.927 198.309 148.943 194.631 148.975 190.947C163.17 191.233 177.595 190.975 191.861 190.152C191.912 193.833 191.934 197.51 191.929 201.183C191.924 204.856 191.887 208.457 191.818 211.987C177.559 212.825 163.13 213.084 148.931 212.782C148.931 209.257 148.934 205.652 148.939 201.966L148.927 201.982ZM191.794 213.362C191.651 220.385 191.396 227.112 191.031 233.543C177.094 234.362 162.995 234.616 149.118 234.338C149.025 227.928 148.966 221.207 148.939 214.177C163.134 214.443 177.555 214.185 191.806 213.346L191.794 213.362ZM192.028 253.939C202.24 253.283 212.345 252.301 222.163 250.982C225.078 250.592 227.919 250.177 230.685 249.737C229.389 255.235 227.797 260.658 225.915 265.983C223.329 266.391 220.679 266.778 217.965 267.144C208.791 268.38 199.35 269.294 189.81 269.926C190.665 264.934 191.404 259.599 192.04 253.923L192.028 253.939ZM222.401 249.845C212.543 251.172 202.403 252.154 192.156 252.814C192.778 247.093 193.294 241.039 193.702 234.652C204.434 233.961 215.016 232.931 225.323 231.548C228.376 231.134 231.356 230.698 234.263 230.24C233.396 236.672 232.292 242.79 230.952 248.597C228.18 249.021 225.334 249.431 222.413 249.829L222.401 249.845ZM225.47 230.264C215.135 231.651 204.522 232.685 193.781 233.372C194.171 226.954 194.445 220.227 194.604 213.191C205.583 212.484 216.447 211.43 227.004 210.011C230.137 209.59 233.184 209.145 236.147 208.676C235.829 215.719 235.25 222.477 234.41 228.948C231.521 229.399 228.545 229.832 225.482 230.248L225.47 230.264ZM227.06 208.616C216.49 210.035 205.623 211.092 194.632 211.796C194.704 208.261 194.742 204.658 194.747 200.988C194.753 197.318 194.729 193.641 194.676 189.957C205.663 189.25 216.538 188.196 227.1 186.777C230.232 186.356 233.289 185.909 236.27 185.438C236.397 189.111 236.458 192.784 236.453 196.456C236.448 200.129 236.372 203.736 236.226 207.276C233.258 207.735 230.207 208.176 227.072 208.6L227.06 208.616ZM233.539 138.712C245.508 136.724 256.105 134.339 265.196 131.608C267.14 138.588 268.732 145.66 269.966 152.799C260.462 155.649 249.388 158.161 236.87 160.228C236.028 152.958 234.923 145.771 233.551 138.696L233.539 138.712ZM270.221 154.214C271.42 161.411 272.242 168.666 272.685 175.949C262.954 178.875 251.618 181.443 238.778 183.562C238.476 176.224 237.896 168.902 237.065 161.643C249.606 159.572 260.708 157.056 270.233 154.202L270.221 154.214ZM238.818 185.024C251.653 182.902 263.01 180.326 272.757 177.404C272.953 181.061 273.047 184.728 273.039 188.403C273.031 192.079 272.924 195.691 272.717 199.239C262.986 202.149 251.618 204.713 238.794 206.847C238.943 203.304 239.019 199.697 239.025 196.027C239.03 192.357 238.966 188.685 238.834 185.012L238.818 185.024ZM272.077 153.646C281.39 150.744 289.122 147.516 295.132 144.066C296.607 151.166 297.617 158.355 298.157 165.587C292.008 169.112 284.105 172.416 274.577 175.381C274.136 168.093 273.307 160.834 272.093 153.634L272.077 153.646ZM271.83 152.231C270.572 145.095 268.948 138.029 266.965 131.06C275.857 128.277 283.239 125.213 288.975 121.917C291.361 128.706 293.319 135.637 294.838 142.671C288.855 146.101 281.144 149.325 271.846 152.219L271.83 152.231ZM266.572 129.692C264.57 122.821 262.225 116.055 259.544 109.42C267.824 106.844 274.692 103.978 280.031 100.913C283.249 107.296 286.078 113.869 288.502 120.594C282.801 123.853 275.468 126.926 266.587 129.68L266.572 129.692ZM259.019 108.116C256.344 101.596 253.343 95.2151 250.028 88.9963C257.516 86.663 263.729 84.0673 268.563 81.2967C272.538 87.191 276.159 93.3167 279.407 99.6413C274.096 102.686 267.267 105.54 259.031 108.12L259.019 108.116ZM255.593 62.9243C259.659 60.4796 262.505 57.8879 264.043 55.2207C269.13 60.107 273.89 65.3215 278.294 70.8305C276.549 73.8595 273.309 76.793 268.694 79.5755C264.663 73.7691 260.288 68.2088 255.593 62.9243ZM267.764 80.1281C262.966 82.8827 256.797 85.4585 249.364 87.772C246.076 81.7093 242.477 75.821 238.58 70.1309C245.126 68.0957 250.556 65.826 254.778 63.4052C259.436 68.7174 263.775 74.3015 267.772 80.1281H267.764ZM237.824 69.0259C233.996 63.5107 229.866 58.2107 225.454 53.1497C230.912 51.4484 235.443 49.5722 238.969 47.537C244.23 52.1739 249.205 57.1252 253.867 62.3638C249.682 64.7647 244.304 67.0106 237.824 69.0259ZM224.588 52.1679C220.278 47.2927 215.681 42.6788 210.822 38.3508C214.476 37.2737 218.003 35.8078 221.344 33.9783C227.129 37.8448 232.666 42.0692 237.924 46.6268C234.45 48.6262 229.978 50.4825 224.588 52.1679ZM220.716 32.913C214.885 29.149 208.811 25.7749 202.534 22.8125C204.359 21.7154 205.639 20.5508 206.326 19.3543C213.104 21.7937 219.712 24.682 226.106 27.9999C225.124 29.7012 223.308 31.3548 220.716 32.913ZM205.11 18.6428C198.192 16.2657 191.12 14.3613 183.943 12.9426C184.101 12.6486 184.183 12.3202 184.183 11.9866C184.183 11.653 184.101 11.3246 183.943 11.0306C191.086 11.8906 198.159 13.2521 205.11 15.105C205.4 15.6497 205.551 16.2571 205.551 16.8739C205.551 17.4907 205.4 18.0981 205.11 18.6428ZM183.884 10.9034C183.355 10.1026 182.63 9.45103 181.777 9.01134C188.264 9.27689 194.719 10.0544 201.083 11.3367C203.035 12.4815 204.327 13.6661 205.003 14.8546C198.063 13.0421 191.005 11.7217 183.88 10.9034H183.884ZM159.485 10.2953C161.307 12.7472 162.903 15.3588 164.255 18.0982C162.093 18.2254 159.906 18.2651 157.752 18.2214C158.229 15.1169 158.718 12.4616 159.215 10.2992C159.302 10.3032 159.398 10.2992 159.485 10.2953ZM157.327 18.2095C155.18 18.1578 153.069 18.0227 151.062 17.812C153.418 15.0371 156.057 12.5152 158.936 10.2873C159.02 10.2873 159.107 10.2873 159.195 10.2873C158.563 12.4577 157.939 15.105 157.327 18.2095ZM150.653 17.7683C148.665 17.5457 146.769 17.2475 145.044 16.8818C149.37 14.2491 153.934 12.0267 158.674 10.2436L158.905 10.2833C155.901 12.4838 153.135 14.9924 150.653 17.7683ZM144.69 16.8063C143.148 16.4781 141.633 16.033 140.159 15.4747C146.105 13.2335 152.219 11.4658 158.444 10.1879C158.504 10.211 158.567 10.2296 158.63 10.2436C153.801 11.9997 149.144 14.1965 144.718 16.8063H144.69ZM139.92 15.3753C139.329 15.1391 138.754 14.8642 138.199 14.5525C137.746 14.301 137.318 14.0054 136.923 13.67C143.967 11.9771 151.123 10.7882 158.336 10.1124L158.388 10.1482L158.459 10.184C152.153 11.4245 145.954 13.1603 139.92 15.3753ZM136.788 13.5548C136.511 13.3342 136.281 13.0607 136.111 12.7501C135.941 12.4396 135.834 12.0983 135.798 11.7461C143.246 10.6546 150.761 10.0822 158.289 10.0329C158.292 10.061 158.306 10.0865 158.328 10.1045C151.079 10.7433 143.885 11.8963 136.8 13.5548H136.788ZM158.344 9.93752C151.204 9.34705 144.03 9.27929 136.879 9.73479C137.698 9.05895 138.619 8.51573 139.606 8.12492C145.93 8.18689 152.239 8.77054 158.467 9.86994C158.423 9.88497 158.381 9.90785 158.344 9.93752ZM158.344 9.93752C158.322 9.95545 158.308 9.98104 158.304 10.0091C150.78 10.0177 143.265 10.5489 135.814 11.5991C135.884 10.9214 136.217 10.298 136.74 9.86199C143.932 9.36242 151.152 9.38766 158.34 9.93752H158.344ZM136.911 14.946C137.501 15.2751 138.112 15.5659 138.739 15.8165C132.67 18.1132 126.775 20.8444 121.098 23.9891C119.933 23.5201 118.8 22.9771 117.704 22.3634C116.809 21.868 115.965 21.2862 115.184 20.6263C121.813 17.9583 128.617 15.747 135.548 14.0079C135.97 14.3654 136.426 14.6797 136.911 14.946ZM114.921 20.3957C113.645 19.2032 113.009 18.0107 112.97 16.8182C119.978 14.7121 127.124 13.0905 134.355 11.9648C134.393 12.339 134.506 12.7018 134.687 13.0316C134.868 13.3613 135.113 13.6515 135.408 13.8847C128.438 15.5836 121.593 17.7591 114.921 20.3957ZM113.614 20.9165C107.012 23.588 100.595 26.6926 94.4024 30.21C92.5381 28.4888 91.6199 26.7319 91.5483 24.9948C98.0493 21.9557 104.749 19.3619 111.602 17.2316C111.646 18.4679 112.298 19.7041 113.614 20.9165ZM93.1741 30.9295C87.0339 34.4911 81.1282 38.4424 75.4933 42.7591C73.0844 40.5371 71.884 38.2713 71.8084 36.0254C77.7197 32.1437 83.8857 28.6643 90.2644 25.6109C90.324 27.3838 91.274 29.1725 93.1741 30.9295ZM74.3843 43.6177C68.7935 47.9761 63.483 52.6826 58.4843 57.7091C55.5865 55.0339 54.1396 52.307 54.0481 49.608C59.287 44.9679 64.8327 40.6864 70.6478 36.7926C70.7272 39.0663 71.9476 41.3639 74.3843 43.6177ZM58.0868 59.2394C59.882 60.7477 61.8189 62.0789 63.8704 63.2144C66.3824 64.6201 68.9821 65.8628 71.6534 66.935C67.363 72.4444 63.3818 78.1879 59.7284 84.1388C56.6914 82.9261 53.7358 81.5187 50.8801 79.9253C48.5472 78.6309 46.3453 77.1133 44.3054 75.3938C48.562 69.723 53.1687 64.3237 58.0987 59.2275L58.0868 59.2394ZM50.0851 81.09C52.9599 82.7 55.9354 84.1234 58.9931 85.3512C55.323 91.4132 51.987 97.6712 48.9999 104.097C45.6384 102.747 42.3669 101.183 39.2055 99.4148C36.6211 97.9828 34.1822 96.3027 31.9233 94.3983C35.3854 88.1991 39.2356 82.2247 43.4508 76.5108C45.5084 78.2489 47.7303 79.7825 50.0851 81.09ZM38.5576 100.667C41.7329 102.447 45.0205 104.019 48.3997 105.373C45.4281 111.891 42.8179 118.567 40.5808 125.372C36.9663 123.919 33.4491 122.236 30.0511 120.331C27.2696 118.792 24.6455 116.984 22.2164 114.933C24.8061 108.309 27.8215 101.858 31.2436 95.6226C33.5135 97.5356 35.9629 99.2248 38.5576 100.667ZM29.5741 121.667C32.9867 123.577 36.5184 125.266 40.1476 126.723C37.9387 133.604 36.1219 140.605 34.7058 147.691C30.9113 146.169 27.2188 144.405 23.6513 142.408C20.7336 140.79 17.9805 138.892 15.431 136.74C17.0652 129.776 19.1634 122.929 21.7115 116.245C24.1494 118.304 26.7827 120.12 29.5741 121.667ZM23.3532 143.8C26.9278 145.803 30.6283 147.573 34.4315 149.098C33.06 156.247 32.1109 163.47 31.5894 170.73C27.7047 169.171 23.9246 167.362 20.2726 165.316C17.2832 163.658 14.4623 161.713 11.8496 159.509C12.4376 152.313 13.5254 145.168 15.1051 138.123C17.6642 140.278 20.4266 142.179 23.3532 143.8ZM33.1675 172.841C41.7336 176.196 51.8301 179.129 63.0476 181.61C62.8727 185.275 62.7812 188.945 62.7733 192.621C62.7653 196.296 62.8435 199.905 63.0078 203.448C51.7903 200.968 41.6939 198.031 33.1238 194.676C32.9091 191.114 32.8044 187.497 32.8097 183.824C32.815 180.151 32.9343 176.49 33.1675 172.841ZM63.0754 204.844C63.4209 211.664 64.1121 218.462 65.1464 225.212C54.1833 222.787 44.3173 219.917 35.942 216.641C34.5919 209.853 33.6811 202.985 33.2152 196.079C41.7773 199.43 51.8659 202.367 63.0754 204.844ZM65.3491 226.507C66.348 232.749 67.6923 238.93 69.3757 245.023C58.9136 242.71 49.5008 239.971 41.5031 236.842C39.3117 230.674 37.544 224.363 36.2123 217.953C44.5678 221.225 54.4099 224.087 65.3491 226.507ZM69.7216 246.18C71.3096 251.788 73.2479 257.291 75.5251 262.656C65.7863 260.502 57.0215 257.954 49.5802 255.04C46.625 249.56 44.0678 243.874 41.9284 238.027C49.8983 241.143 59.2793 243.874 69.7057 246.18H69.7216ZM71.7925 246.629C82.3581 248.879 93.9452 250.699 106.172 252.059C107.153 257.769 108.296 263.133 109.603 268.15C98.1786 266.882 87.3428 265.176 77.4808 263.077C75.2435 257.717 73.3385 252.224 71.7767 246.629H71.7925ZM109.861 269.135C111.088 273.795 112.558 278.387 114.265 282.893C103.93 281.744 94.136 280.202 85.2042 278.302C82.4384 273.743 80.0009 268.992 77.9101 264.087C87.7164 266.178 98.4807 267.871 109.845 269.135H109.861ZM114.583 283.72C116.072 287.58 117.83 291.332 119.846 294.945C110.815 293.943 102.257 292.596 94.454 290.934C91.2171 287.259 88.292 283.321 85.709 279.16C94.6051 281.033 104.308 282.579 114.568 283.72H114.583ZM116.619 283.938C126.954 285.027 137.785 285.727 148.816 286.001C149.178 290.064 149.567 293.725 149.989 296.956C140.266 296.714 130.722 296.098 121.635 295.14C119.702 291.526 118.021 287.783 116.603 283.938H116.619ZM150.088 297.588C150.509 300.768 150.963 303.511 151.44 305.801C143.327 305.598 135.369 305.085 127.784 304.286C125.585 301.651 123.651 298.806 122.009 295.792C130.992 296.738 140.441 297.33 150.072 297.588H150.088ZM151.014 286.061C162.089 286.284 173.342 286.061 184.464 285.425C183.507 289.511 182.474 293.187 181.363 296.452C171.577 297.028 161.671 297.203 151.925 297.008C151.583 293.772 151.281 290.111 150.998 286.053L151.014 286.061ZM181.145 297.088C180.182 299.94 178.997 302.713 177.599 305.379C169.434 305.86 161.17 306.007 153.042 305.844C152.672 303.559 152.322 300.812 151.992 297.64C161.628 297.827 171.434 297.652 181.129 297.08L181.145 297.088ZM183.057 296.968C190.526 296.487 197.915 295.776 205.102 294.806C207.222 294.52 209.3 294.216 211.335 293.896C208.87 297.1 206.088 300.047 203.031 302.692C201.322 302.957 199.572 303.213 197.78 303.459C191.73 304.254 185.505 304.875 179.213 305.28C180.715 302.616 181.995 299.834 183.041 296.96L183.057 296.968ZM205.551 294.146C198.301 295.12 190.844 295.847 183.291 296.332C184.602 292.712 185.724 289.026 186.654 285.29C195.224 284.737 203.699 283.914 211.943 282.809C214.384 282.478 216.769 282.13 219.098 281.764C216.99 285.772 214.566 289.606 211.848 293.228C209.789 293.546 207.685 293.853 205.535 294.15L205.551 294.146ZM212.333 281.979C204.033 283.092 195.495 283.922 186.861 284.479C187.89 280.333 188.848 275.789 189.679 270.876C199.171 270.264 208.56 269.354 217.687 268.126C220.39 267.763 223.029 267.377 225.605 266.969C223.885 271.747 221.858 276.409 219.535 280.925C217.185 281.291 214.779 281.639 212.317 281.971L212.333 281.979ZM227.811 266.615C237.711 265.039 247.5 262.841 257.123 260.033C254.521 265.112 251.539 269.987 248.203 274.617C239.45 277.162 230.546 279.154 221.543 280.579C223.93 276.064 226.019 271.396 227.795 266.607L227.811 266.615ZM228.181 265.617C230.113 260.288 231.751 254.857 233.086 249.348C245.011 247.36 255.573 244.975 264.628 242.268C262.689 248.001 260.357 253.592 257.648 259.003C247.969 261.823 238.122 264.03 228.165 265.61L228.181 265.617ZM233.348 248.203C234.729 242.399 235.867 236.275 236.763 229.831C249.28 227.764 260.355 225.251 269.859 222.401C268.637 228.725 267.016 234.965 265.005 241.084C255.915 243.815 245.317 246.219 233.333 248.195L233.348 248.203ZM236.926 228.543C237.785 222.069 238.383 215.311 238.723 208.27C251.546 206.151 262.895 203.576 272.633 200.658C272.191 207.522 271.343 214.354 270.093 221.117C260.581 223.944 249.483 226.464 236.938 228.535L236.926 228.543ZM274.537 200.058C284.077 197.092 291.968 193.789 298.113 190.263C297.566 197.218 296.53 204.125 295.013 210.933C289.002 214.384 281.271 217.611 271.958 220.509C273.228 213.747 274.093 206.915 274.549 200.05L274.537 200.058ZM274.625 198.655C274.837 195.101 274.946 191.488 274.951 187.815C274.956 184.142 274.863 180.474 274.673 176.812C284.213 173.847 292.119 170.539 298.268 167.014C298.507 170.649 298.623 174.305 298.618 177.981C298.613 181.656 298.48 185.279 298.22 188.848C292.079 192.39 284.169 195.681 274.637 198.647L274.625 198.655ZM301.571 110.807C304.191 117.396 306.343 124.161 308.011 131.052C305.825 134.84 301.778 138.525 296.006 141.999C294.471 134.975 292.495 128.054 290.092 121.277C295.625 117.934 299.496 114.408 301.583 110.787L301.571 110.807ZM291.765 90.5386C295.293 96.6377 298.398 102.971 301.059 109.495C298.98 113.105 295.124 116.615 289.619 119.926C287.173 113.212 284.322 106.653 281.08 100.285C286.224 97.1927 289.825 93.9134 291.765 90.5386ZM291.065 89.3461C289.134 92.701 285.548 95.9645 280.436 99.0371C277.158 92.7293 273.505 86.6234 269.497 80.7521C274.148 77.9696 277.411 74.9884 279.168 71.9356C283.518 77.4663 287.494 83.2814 291.069 89.3421L291.065 89.3461ZM278.679 60.9765C279.433 62.4049 279.823 63.9973 279.813 65.6124C279.803 67.2274 279.395 68.8151 278.624 70.2343C274.2 64.7462 269.42 59.5556 264.314 54.696C264.993 53.4469 265.352 52.0493 265.361 50.6276C265.369 49.206 265.026 47.8043 264.361 46.5473C269.471 51.0105 274.257 55.8311 278.683 60.9725L278.679 60.9765ZM246.975 33.4695C252.721 37.1453 258.201 41.2205 263.376 45.6648C264.032 46.91 264.371 48.2982 264.362 49.7059C264.353 51.1137 263.996 52.4974 263.324 53.7341C258.16 48.8937 252.686 44.3963 246.935 40.2707C247.501 39.228 247.801 38.0616 247.808 36.8751C247.815 35.6887 247.529 34.5188 246.975 33.4695ZM263.042 54.2588C261.519 56.8982 258.697 59.466 254.694 61.8868C249.987 56.6722 244.969 51.7462 239.669 47.1356C243.059 45.0964 245.432 42.934 246.716 40.708C252.446 44.8669 257.899 49.3933 263.042 54.2588ZM227.585 23.0272C233.887 25.8364 239.985 29.084 245.834 32.7461C246.38 33.7815 246.662 34.9355 246.655 36.1059C246.648 37.2764 246.352 38.427 245.794 39.4559C239.965 35.3506 233.873 31.6326 227.557 28.3259C227.997 27.5133 228.231 26.6044 228.235 25.68C228.24 24.7557 228.017 23.8444 227.585 23.0272ZM245.556 39.8931C244.292 42.0873 241.946 44.2219 238.599 46.2531C233.294 41.7135 227.711 37.5103 221.881 33.6683C224.52 32.0783 226.368 30.3968 227.37 28.6637C233.671 32.0052 239.746 35.7564 245.556 39.8931ZM226.289 27.662C219.876 24.3747 213.251 21.5196 206.458 19.1158C206.762 18.5551 206.923 17.9278 206.927 17.2898C206.93 16.6518 206.776 16.0228 206.477 15.4588C213.247 17.3272 219.876 19.6689 226.317 22.4667C226.74 23.2681 226.959 24.1616 226.954 25.0679C226.949 25.9742 226.721 26.8653 226.289 27.662ZM226.134 22.1249C219.711 19.357 213.1 17.0483 206.35 15.2163C205.655 13.992 204.323 12.7717 202.312 11.5911C208.475 12.9017 214.524 14.7014 220.402 16.9733C223.256 18.6507 225.148 20.3838 226.134 22.1249ZM200.563 11.0426C194.271 9.80344 187.891 9.07102 181.483 8.85234C180.178 8.16789 178.806 7.62167 177.388 7.22259C182.588 6.97243 187.8 7.23873 192.947 8.01759C195.585 8.75517 198.137 9.76911 200.563 11.0426ZM182.238 5.65247C185.654 6.18238 189.036 6.91373 192.366 7.84269C187.309 7.09 182.188 6.85161 177.082 7.13117C175.291 6.6266 173.471 6.2284 171.633 5.93867C175.135 5.32827 178.708 5.23186 182.238 5.65247ZM176.049 7.19079C170.619 7.56336 165.236 8.45112 159.974 9.84212C159.905 9.82117 159.835 9.80523 159.763 9.79442C163.312 8.09075 167.063 6.84328 170.925 6.08177C172.653 6.35226 174.364 6.72255 176.049 7.19079ZM164.565 5.38217C166.652 5.51732 168.671 5.73594 170.559 6.02612C166.811 6.80966 163.181 8.07634 159.759 9.79442C159.676 9.78079 159.593 9.7715 159.509 9.76659C160.92 8.01588 162.632 6.53112 164.565 5.38217ZM164.148 5.35434C162.629 6.27654 161.075 7.73934 159.493 9.76659C159.406 9.76659 159.314 9.76659 159.223 9.76659C158.881 8.20191 158.372 6.67861 157.704 5.22317C159.867 5.16752 162.037 5.22714 164.136 5.35434H164.148ZM157.275 5.22317C158.11 6.64623 158.759 8.17048 159.207 9.75864C159.115 9.75864 159.024 9.75864 158.936 9.77852C156.457 7.98747 153.716 6.58786 150.812 5.62862C152.914 5.40602 155.093 5.27087 157.263 5.22317H157.275ZM148.959 5.85122C149.432 5.78762 149.913 5.73197 150.394 5.67632C153.421 6.60932 156.29 7.99219 158.905 9.77852H158.845L158.662 9.81032C154.08 8.25522 149.346 7.18929 144.539 6.63032C145.883 6.32822 147.345 6.06984 148.947 5.85122H148.959ZM144.213 6.70187C149.125 7.23876 153.967 8.28449 158.662 9.82224C158.6 9.83615 158.539 9.85476 158.479 9.87789C152.33 8.74728 146.096 8.13299 139.845 8.04144C141.258 7.47697 142.715 7.02895 144.201 6.70187H144.213ZM129.533 6.87279C134.092 6.26861 138.704 6.1806 143.283 6.61044C141.701 6.95777 140.15 7.43234 138.644 8.02952C132.702 8.01253 126.769 8.5086 120.912 9.51219C123.707 8.40535 126.586 7.52277 129.521 6.87279H129.533ZM120.443 9.70697C126.367 8.66502 132.37 8.13307 138.386 8.11697C137.337 8.52898 136.362 9.10602 135.496 9.82622C128.621 10.3318 121.793 11.3482 115.068 12.8671C116.682 11.5376 118.496 10.4711 120.443 9.70697ZM114.822 13.1175C121.582 11.5674 128.447 10.5178 135.361 9.97727C134.794 10.4409 134.432 11.1093 134.355 11.8376C127.123 12.9348 119.975 14.5286 112.962 16.6076C113.009 15.4071 113.637 14.2345 114.822 13.1175ZM94.2553 19.565C100.513 17.0429 106.949 14.9875 113.51 13.4156C112.29 14.5763 111.642 15.8006 111.602 16.9931C104.751 19.0841 98.0509 21.6407 91.5483 24.645C91.6 22.9278 92.5261 21.2106 94.2553 19.565ZM75.3064 29.0175C80.9799 25.601 86.899 22.6102 93.0151 20.0698C91.2542 21.7472 90.3121 23.4962 90.2564 25.2611C83.8782 28.288 77.7109 31.7408 71.7965 35.5961C71.88 33.3423 73.0685 31.1282 75.3064 29.0175ZM58.2577 41.1731C59.9192 39.7792 61.6179 38.425 63.3536 37.1106L64.2957 36.3991C67.4757 34.0141 70.7749 31.7775 74.1935 29.6893C71.9317 31.8437 70.7233 34.0896 70.6478 36.3593C64.8337 40.2196 59.2878 44.4694 54.0481 49.0793C54.1356 46.3803 55.5706 43.725 58.2577 41.1572V41.1731ZM53.0226 50.5421C53.114 53.269 54.5768 56.0197 57.5024 58.7227C52.5442 63.7874 47.9095 69.1589 43.6257 74.8055C40.3026 71.7368 38.641 68.6085 38.5377 65.508C43.0214 60.192 47.8608 55.1866 53.0226 50.5262V50.5421ZM37.6513 66.5534C37.7546 69.6738 39.4281 72.826 42.7751 75.9185C38.5367 81.6046 34.6613 87.5524 31.172 93.7265C27.4912 90.3279 25.6547 86.8617 25.5394 83.4313C29.1803 77.5312 33.2273 71.8916 37.6513 66.5534ZM24.8239 84.5999C24.9432 88.0502 26.8114 91.5323 30.4923 94.9349C27.0483 101.153 24.0142 107.589 21.4094 114.202C17.4344 110.541 15.4708 106.816 15.3436 103.123C18.0609 96.7321 21.229 90.542 24.8239 84.5999ZM14.8149 104.403C14.9381 108.112 16.9256 111.853 20.9006 115.533C18.3379 122.201 16.2277 129.033 14.5843 135.985C10.4265 132.145 8.35155 128.237 8.22435 124.362C9.93021 117.557 12.133 110.886 14.8149 104.403ZM4.4481 146.825C5.06918 139.713 6.21848 132.658 7.88648 125.717C8.01765 129.597 10.1006 133.516 14.2465 137.364C12.6535 144.402 11.5525 151.543 10.9512 158.734C6.70988 154.802 4.58325 150.796 4.4481 146.825ZM11.3129 171.895C11.3129 168.222 11.4454 164.57 11.7104 160.94C14.3299 163.148 17.159 165.094 20.1573 166.751C23.8153 168.801 27.6021 170.612 31.494 172.173C31.2635 175.817 31.1442 179.478 31.1362 183.156C31.1283 186.834 31.2343 190.452 31.4542 194.008C27.5614 192.446 23.7733 190.635 20.1136 188.586C17.1228 186.928 14.3005 184.983 11.6866 182.778C11.4322 179.198 11.3076 175.57 11.3129 171.895ZM11.7899 184.19C14.4037 186.395 17.2245 188.342 20.2129 190.005C23.8704 192.049 27.6558 193.855 31.5457 195.411C32.0242 202.322 32.9537 209.195 34.3282 215.986C30.5169 214.456 26.8085 212.682 23.226 210.675C20.3024 209.054 17.5439 207.152 14.9898 204.995C13.4167 198.147 12.3472 191.193 11.7899 184.19ZM15.3038 206.35C17.8535 208.501 20.6066 210.398 23.5241 212.015C27.0928 214.013 30.7866 215.779 34.5826 217.301C35.9355 223.723 37.7285 230.043 39.9488 236.218C36.3177 234.763 32.7845 233.074 29.3713 231.162C26.58 229.615 23.9454 227.801 21.5048 225.744C18.961 219.442 16.8883 212.959 15.3038 206.35ZM22.0057 226.973C24.4356 229.022 27.0595 230.83 29.8404 232.371C33.2414 234.275 36.7612 235.958 40.3781 237.411C42.5476 243.274 45.1381 248.974 48.1294 254.464C44.7502 253.11 41.4626 251.537 38.2873 249.757C35.6897 248.314 33.2376 246.624 30.9653 244.709C27.5456 239.026 24.5509 233.097 22.0057 226.973ZM49.7432 266.253C47.3935 264.95 45.1757 263.422 43.1209 261.69C38.9059 256.691 35.0688 251.386 31.6411 245.818C33.9005 247.718 36.3394 249.394 38.9233 250.823C42.0817 252.594 45.3521 254.158 48.7137 255.505C51.6411 260.747 54.9632 265.758 58.6512 270.495C55.5938 269.272 52.6184 267.854 49.7432 266.249V266.253ZM50.1407 256.097C57.5422 258.995 66.2594 261.531 75.9504 263.674C78.0941 268.597 80.5889 273.359 83.4155 277.924C74.6068 275.976 66.6767 273.671 59.9431 271.035C56.3057 266.312 53.0353 261.316 50.1606 256.093L50.1407 256.097ZM60.6546 271.946C67.3366 274.561 75.2111 276.851 83.96 278.787C86.6063 282.968 89.5966 286.92 92.8998 290.604C85.2002 288.903 78.2718 286.888 72.3888 284.586C68.1504 280.693 64.2329 276.465 60.6745 271.942L60.6546 271.946ZM86.6869 295.482C81.9189 292.487 77.4137 289.094 73.2196 285.337C79.8299 287.84 86.6217 289.833 93.5358 291.3C96.6571 294.694 100.1 297.779 103.815 300.51C97.9922 299.272 92.2726 297.59 86.7067 295.478L86.6869 295.482ZM95.0344 291.63C102.766 293.276 111.24 294.607 120.184 295.605C121.915 298.641 123.944 301.498 126.242 304.131C118.69 303.293 111.566 302.172 105.059 300.784C101.439 298.064 98.0936 294.997 95.0702 291.626L95.0344 291.63ZM116.917 307.633C112.985 305.942 109.254 303.82 105.791 301.305C112.218 302.672 119.262 303.781 126.699 304.608C128.669 306.805 130.945 308.706 133.457 310.253C127.598 309.585 122.033 308.71 116.953 307.629L116.917 307.633ZM128.138 304.755C135.619 305.55 143.478 306.051 151.483 306.25C151.835 308.055 152.34 309.826 152.994 311.545C146.678 311.386 140.477 310.988 134.574 310.352C132.18 308.805 130.024 306.919 128.174 304.751L128.138 304.755ZM141.518 313.131H141.717H141.745H141.518ZM142.019 313.174C139.541 312.798 137.162 311.935 135.019 310.634C140.814 311.246 146.896 311.64 153.097 311.795C153.626 313.019 154.178 313.759 154.747 313.989C150.418 313.874 146.133 313.6 142.055 313.17L142.019 313.174ZM168.822 313.759C164.43 314.017 159.982 314.097 155.609 314.009C155.164 313.783 154.735 313.043 154.321 311.823C160.538 311.946 166.855 311.823 173.095 311.465C171.928 312.614 170.459 313.408 168.858 313.755L168.822 313.759ZM173.366 311.211C167.006 311.584 160.57 311.7 154.242 311.572C153.726 309.839 153.327 308.073 153.049 306.286C161.071 306.449 169.228 306.286 177.297 305.829C176.267 307.801 174.954 309.613 173.401 311.207L173.366 311.211ZM193.185 309.112C191.86 309.321 190.498 309.521 189.099 309.712C184.384 310.344 179.539 310.813 174.638 311.131C176.323 309.552 177.763 307.73 178.911 305.725C185.124 305.328 191.265 304.731 197.24 303.929C199.007 303.69 200.73 303.437 202.407 303.169C199.595 305.53 196.497 307.527 193.185 309.112ZM209.459 305.534C204.49 306.981 199.436 308.115 194.326 308.929C197.742 307.334 200.946 305.32 203.866 302.935C210.345 301.907 216.752 300.469 223.049 298.63C218.758 301.36 214.215 303.672 209.483 305.534H209.459ZM223.912 298.085C217.533 299.951 211.042 301.411 204.478 302.458C207.629 299.803 210.504 296.837 213.06 293.605C220.846 292.369 228.546 290.643 236.115 288.438C232.344 292.012 228.26 295.241 223.912 298.085ZM236.878 287.707C229.232 289.945 221.452 291.698 213.585 292.958C216.387 289.322 218.891 285.467 221.074 281.43C230.012 280.001 238.852 278.01 247.539 275.468C244.33 279.835 240.765 283.929 236.878 287.707ZM254.368 280.579C250.147 283.004 244.717 285.27 238.174 287.309C242.118 283.523 245.744 279.419 249.014 275.038C256.447 272.725 262.616 270.149 267.414 267.398C263.423 272.121 259.072 276.528 254.4 280.579H254.368ZM268.205 266.452C263.372 269.235 257.159 271.822 249.67 274.152C253.069 269.512 256.112 264.622 258.773 259.524C267.005 256.96 273.838 254.11 279.148 251.061C275.899 256.46 272.245 261.606 268.217 266.452H268.205ZM279.761 249.98C274.418 253.045 267.549 255.914 259.273 258.49C262.025 253.071 264.396 247.468 266.369 241.72C275.229 238.961 282.583 235.892 288.295 232.609C285.888 238.602 283.039 244.409 279.772 249.98H279.761ZM288.776 231.409C283.04 234.7 275.658 237.769 266.766 240.551C268.813 234.423 270.462 228.169 271.703 221.829C281.001 218.939 288.712 215.715 294.711 212.289C293.199 218.796 291.22 225.186 288.788 231.409H288.776ZM301.194 220.903L301.234 220.815C301.377 220.533 301.512 220.247 301.631 219.961L301.194 220.903ZM301.369 220.287C299.282 223.908 295.406 227.442 289.889 230.753C292.345 224.518 294.344 218.114 295.871 211.589C301.647 208.115 305.693 204.434 307.876 200.642C306.203 207.343 304.032 213.909 301.381 220.287H301.369ZM308.21 199.291C306.019 203.087 301.965 206.78 296.177 210.262C297.71 203.442 298.76 196.523 299.318 189.556C305.232 185.998 309.378 182.222 311.616 178.342C311.008 185.4 309.873 192.402 308.222 199.291H308.21ZM311.72 176.923C309.482 180.811 305.332 184.587 299.397 188.149C299.662 184.574 299.795 180.951 299.795 177.281C299.795 173.611 299.678 169.955 299.445 166.314C305.364 162.737 309.513 158.972 311.767 155.089C312.032 158.706 312.165 162.352 312.165 166.028C312.165 169.703 312.02 173.335 311.731 176.923H311.72Z" fill="#99FF00"/>
</svg>
