<svg width="60" height="237" viewBox="0 0 60 237" fill="none" xmlns="http://www.w3.org/2000/svg">
<rect y="237" width="3.43478" height="60" transform="rotate(-90 0 237)" fill="#CAC7C7"/>
<rect y="230.13" width="8.58694" height="60" transform="rotate(-90 0 230.13)" fill="#CAC7C7"/>
<rect y="218.109" width="17.1739" height="60" transform="rotate(-90 0 218.109)" fill="#CAC7C7"/>
<rect y="197.5" width="8.58694" height="60" transform="rotate(-90 0 197.5)" fill="#CAC7C7"/>
<rect y="185.479" width="3.43478" height="60" transform="rotate(-90 0 185.479)" fill="#CAC7C7"/>
<rect y="178.609" width="54.9564" height="60" transform="rotate(-90 0 178.609)" fill="#CAC7C7"/>
<rect y="120.218" width="1.71739" height="60" transform="rotate(-90 0 120.218)" fill="#CAC7C7"/>
<rect y="115.065" width="8.58694" height="60" transform="rotate(-90 0 115.065)" fill="#CAC7C7"/>
<rect y="103.044" width="1.71739" height="60" transform="rotate(-90 0 103.044)" fill="#CAC7C7"/>
<rect y="97.8916" width="1.71739" height="60" transform="rotate(-90 0 97.8916)" fill="#CAC7C7"/>
<rect y="92.7393" width="8.58694" height="60" transform="rotate(-90 0 92.7393)" fill="#CAC7C7"/>
<rect y="80.7178" width="18.8913" height="60" transform="rotate(-90 0 80.7178)" fill="#CAC7C7"/>
<rect y="58.3916" width="27.4782" height="60" transform="rotate(-90 0 58.3916)" fill="#CAC7C7"/>
<rect y="27.4785" width="27.4782" height="60" transform="rotate(-90 0 27.4785)" fill="#CAC7C7"/>
</svg>
