<?xml version="1.0" encoding="utf-8"?>
<!-- Generator: Adobe Illustrator 24.1.2, SVG Export Plug-In . SVG Version: 6.00 Build 0)  -->
<svg version="1.1" id="Слой_1" xmlns="http://www.w3.org/2000/svg" xmlns:xlink="http://www.w3.org/1999/xlink" x="0px" y="0px"
	 viewBox="0 0 200 28.2" style="enable-background:new 0 0 200 28.2;" xml:space="preserve">
<g>
	<path d="M6.4,0.3c2.2,0,3.8,0.6,4.9,1.7c1.1,1.2,1.6,2.8,1.6,5.1v3.6c0,2.2-0.5,3.9-1.6,5.1c-1.1,1.2-2.7,1.7-4.9,1.7h-2v10.3H0
		V0.3H6.4z M4.3,4.2v9.3h2c0.7,0,1.2-0.2,1.6-0.6c0.4-0.4,0.6-1,0.6-2V6.8c0-1-0.2-1.7-0.6-2C7.6,4.4,7,4.2,6.4,4.2H4.3z"/>
	<path d="M22.6,7.9v19.9h-3.9V0.3h5.4l4.4,16.5V0.3h3.9v27.5H28L22.6,7.9z"/>
	<path d="M43.8,27.8h-4.3V0.3h4.3v11.8h4.9V0.3h4.4v27.5h-4.4V16h-4.9V27.8z"/>
	<path d="M60.2,0.3H67c2.2,0,3.8,0.6,4.9,1.7c1.1,1.2,1.6,2.8,1.6,5.1V21c0,2.2-0.5,3.9-1.6,5.1c-1.1,1.2-2.7,1.7-4.9,1.7h-6.8V0.3z
		 M64.5,4.2v19.6h2.4c0.7,0,1.2-0.2,1.6-0.6c0.4-0.4,0.6-1.1,0.6-2.1V6.9c0-1-0.2-1.7-0.6-2.1c-0.4-0.4-0.9-0.6-1.6-0.6H64.5z"/>
	<path d="M80.1,20.3v-3.1l8.8-3.1l-8.8-3.1V7.8l12.8,4.7v3.1L80.1,20.3z"/>
	<path d="M99.1,6.9c0-2.2,0.5-3.9,1.6-5.1c1.1-1.2,2.7-1.8,4.8-1.8s3.7,0.6,4.8,1.8c1.1,1.2,1.6,2.9,1.6,5.1V8h-4.1V6.6
		c0-1-0.2-1.7-0.6-2.1c-0.4-0.4-0.9-0.6-1.6-0.6c-0.7,0-1.2,0.2-1.6,0.6c-0.4,0.4-0.6,1.1-0.6,2.1c0,0.9,0.2,1.8,0.6,2.5
		c0.4,0.7,0.9,1.4,1.6,2c0.6,0.6,1.3,1.3,2,1.9c0.7,0.6,1.4,1.3,2,2.1c0.6,0.8,1.2,1.6,1.6,2.6c0.4,1,0.6,2.1,0.6,3.4
		c0,2.2-0.5,3.9-1.6,5.1c-1.1,1.2-2.7,1.8-4.8,1.8c-2.1,0-3.7-0.6-4.8-1.8c-1.1-1.2-1.6-2.9-1.6-5.1v-1.9h4.1v2.2
		c0,1,0.2,1.7,0.6,2.1c0.4,0.4,0.9,0.6,1.6,0.6c0.7,0,1.2-0.2,1.6-0.6c0.4-0.4,0.6-1.1,0.6-2.1c0-0.9-0.2-1.8-0.6-2.5
		c-0.4-0.7-0.9-1.4-1.6-2c-0.6-0.6-1.3-1.3-2-1.9c-0.7-0.6-1.4-1.3-2-2.1c-0.6-0.8-1.2-1.6-1.6-2.6C99.3,9.4,99.1,8.2,99.1,6.9z"/>
	<path d="M117.1,0.3h13.4v3.9h-4.5v23.6h-4.3V4.2h-4.5V0.3z"/>
	<path d="M140.4,0.3v21.2c0,1,0.2,1.7,0.6,2.1c0.4,0.4,0.9,0.6,1.6,0.6c0.7,0,1.2-0.2,1.6-0.6c0.4-0.4,0.6-1.1,0.6-2.1V0.3h4.1v20.9
		c0,2.2-0.5,3.9-1.6,5.1c-1.1,1.2-2.7,1.8-4.8,1.8c-2.1,0-3.7-0.6-4.8-1.8c-1.1-1.2-1.6-2.9-1.6-5.1V0.3H140.4z"/>
	<path d="M155.9,0.3h6.8c2.2,0,3.8,0.6,4.9,1.7c1.1,1.2,1.6,2.8,1.6,5.1V21c0,2.2-0.5,3.9-1.6,5.1c-1.1,1.2-2.7,1.7-4.9,1.7h-6.8
		V0.3z M160.2,4.2v19.6h2.4c0.7,0,1.2-0.2,1.6-0.6c0.4-0.4,0.6-1.1,0.6-2.1V6.9c0-1-0.2-1.7-0.6-2.1c-0.4-0.4-0.9-0.6-1.6-0.6H160.2
		z"/>
	<path d="M175.8,0.3h4.3v27.5h-4.3V0.3z"/>
	<path d="M186.9,6.9c0-2.2,0.6-3.9,1.7-5.1c1.1-1.2,2.8-1.8,4.9-1.8c2.1,0,3.7,0.6,4.9,1.8c1.1,1.2,1.7,2.9,1.7,5.1v14.3
		c0,2.2-0.6,3.9-1.7,5.1c-1.1,1.2-2.8,1.8-4.9,1.8c-2.1,0-3.7-0.6-4.9-1.8c-1.1-1.2-1.7-2.9-1.7-5.1V6.9z M191.2,21.5
		c0,1,0.2,1.7,0.6,2.1c0.4,0.4,0.9,0.6,1.6,0.6s1.2-0.2,1.6-0.6c0.4-0.4,0.6-1.1,0.6-2.1V6.6c0-1-0.2-1.7-0.6-2.1
		c-0.4-0.4-0.9-0.6-1.6-0.6s-1.2,0.2-1.6,0.6c-0.4,0.4-0.6,1.1-0.6,2.1V21.5z"/>
</g>
</svg>
