<svg width="519" height="512" viewBox="0 0 519 512" fill="none" xmlns="http://www.w3.org/2000/svg">
<path d="M371.861 547.979C387.609 534.397 389.349 510.601 375.746 494.828C362.144 479.056 338.351 477.28 322.602 490.861C306.854 504.443 305.115 528.239 318.717 544.012C332.32 559.784 356.113 561.56 371.861 547.979Z" stroke="url(#paint0_linear_346_661)"/>
<path d="M364.85 538.3C385.21 520.741 387.459 489.976 369.873 469.585C352.287 449.193 321.525 446.897 301.165 464.456C280.805 482.015 278.556 512.78 296.142 533.171C313.728 553.563 344.489 555.859 364.85 538.3Z" stroke="url(#paint1_linear_346_661)"/>
<path d="M355.929 530.263C380.901 508.726 383.659 470.992 362.09 445.982C340.52 420.971 302.791 418.154 277.819 439.691C252.846 461.227 250.088 498.961 271.658 523.972C293.227 548.983 330.957 551.799 355.929 530.263Z" stroke="url(#paint2_linear_346_661)"/>
<path d="M348.927 520.587C378.512 495.072 381.78 450.367 356.226 420.736C330.672 391.105 285.972 387.768 256.387 413.283C226.801 438.798 223.533 483.503 249.087 513.134C274.642 542.765 319.341 546.102 348.927 520.587Z" stroke="url(#paint3_linear_346_661)"/>
<path d="M334.171 505.594C368.415 476.062 372.197 424.319 342.619 390.022C313.042 355.726 261.305 351.864 227.061 381.396C192.817 410.928 189.035 462.672 218.613 496.968C248.19 531.264 299.928 535.127 334.171 505.594Z" stroke="url(#paint4_linear_346_661)"/>
<path d="M320.452 487.947C359.353 454.398 363.65 395.616 330.049 356.654C296.448 317.692 237.673 313.305 198.772 346.854C159.87 380.404 155.573 439.186 189.174 478.148C222.775 517.109 281.55 521.497 320.452 487.947Z" stroke="url(#paint5_linear_346_661)"/>
<path d="M306.735 470.301C350.295 432.734 355.107 366.913 317.482 323.286C279.857 279.659 214.044 274.746 170.485 312.313C126.925 349.88 122.113 415.701 159.738 459.328C197.362 502.955 263.175 507.868 306.735 470.301Z" stroke="url(#paint6_linear_346_661)"/>
<path d="M290.843 454.184C339.008 412.646 344.328 339.867 302.726 291.628C261.124 243.389 188.354 237.956 140.189 279.495C92.0247 321.033 86.7046 393.812 128.307 442.051C169.908 490.29 242.679 495.722 290.843 454.184Z" stroke="url(#paint7_linear_346_661)"/>
<path d="M276.834 436.197C329.657 390.642 335.492 310.824 289.866 257.92C244.241 205.016 164.433 199.058 111.61 244.614C58.7872 290.169 52.9525 369.986 98.5778 422.891C144.203 475.795 224.011 481.753 276.834 436.197Z" stroke="url(#paint8_linear_346_661)"/>
<path d="M261.207 420.193C318.687 370.62 325.037 283.764 275.388 226.194C225.739 168.624 138.893 162.141 81.4124 211.714C23.9315 261.287 17.5823 348.143 67.2311 405.713C116.88 463.282 203.726 469.765 261.207 420.193Z" stroke="url(#paint9_linear_346_661)"/>
<path d="M247.49 402.542C309.629 348.952 316.493 255.058 262.821 192.823C209.149 130.588 115.265 123.579 53.126 177.169C-9.01307 230.759 -15.8768 324.654 37.7953 386.889C91.4675 449.124 185.351 456.132 247.49 402.542Z" stroke="url(#paint10_linear_346_661)"/>
<path d="M231.859 386.535C298.656 328.928 306.034 227.995 248.338 161.095C190.643 94.1944 89.7215 86.6608 22.9244 144.268C-43.8727 201.875 -51.251 302.808 6.44461 369.709C64.1402 436.609 165.061 444.142 231.859 386.535Z" stroke="url(#paint11_linear_346_661)"/>
<path d="M218.143 368.886C289.598 307.262 297.491 199.29 235.772 127.724C174.053 56.1588 66.0941 48.0999 -5.36108 109.724C-76.8163 171.349 -84.7091 279.32 -22.9901 350.886C38.7289 422.451 146.688 430.51 218.143 368.886Z" stroke="url(#paint12_linear_346_661)"/>
<path d="M204.423 351.238C280.536 285.596 288.943 170.586 223.201 94.3552C157.459 18.1243 42.4619 9.53995 -33.6514 75.1815C-109.765 140.823 -118.172 255.833 -52.4297 332.064C13.3127 408.295 128.309 416.88 204.423 351.238Z" stroke="url(#paint13_linear_346_661)"/>
<path d="M188.795 335.232C269.567 265.574 278.488 143.525 208.723 62.6286C138.957 -18.2675 16.9224 -27.3772 -63.849 42.2816C-144.62 111.94 -153.542 233.989 -83.7765 314.885C-14.0108 395.782 108.024 404.891 188.795 335.232Z" stroke="url(#paint14_linear_346_661)"/>
<defs>
<linearGradient id="paint0_linear_346_661" x1="368.653" y1="550.656" x2="310.035" y2="470.515" gradientUnits="userSpaceOnUse">
<stop stop-color="#99FF00"/>
<stop offset="1" stop-color="#99FF00" stop-opacity="0"/>
</linearGradient>
<linearGradient id="paint1_linear_346_661" x1="360.701" y1="541.761" x2="284.917" y2="438.15" gradientUnits="userSpaceOnUse">
<stop stop-color="#99FF00"/>
<stop offset="1" stop-color="#99FF00" stop-opacity="0"/>
</linearGradient>
<linearGradient id="paint2_linear_346_661" x1="350.841" y1="534.508" x2="257.889" y2="407.427" gradientUnits="userSpaceOnUse">
<stop stop-color="#99FF00"/>
<stop offset="1" stop-color="#99FF00" stop-opacity="0"/>
</linearGradient>
<linearGradient id="paint3_linear_346_661" x1="342.899" y1="525.616" x2="232.776" y2="375.058" gradientUnits="userSpaceOnUse">
<stop stop-color="#99FF00"/>
<stop offset="1" stop-color="#99FF00" stop-opacity="0"/>
</linearGradient>
<linearGradient id="paint4_linear_346_661" x1="327.194" y1="511.416" x2="199.733" y2="337.153" gradientUnits="userSpaceOnUse">
<stop stop-color="#99FF00"/>
<stop offset="1" stop-color="#99FF00" stop-opacity="0"/>
</linearGradient>
<linearGradient id="paint5_linear_346_661" x1="312.526" y1="494.561" x2="167.726" y2="296.593" gradientUnits="userSpaceOnUse">
<stop stop-color="#99FF00"/>
<stop offset="1" stop-color="#99FF00" stop-opacity="0"/>
</linearGradient>
<linearGradient id="paint6_linear_346_661" x1="297.86" y1="477.706" x2="135.721" y2="256.033" gradientUnits="userSpaceOnUse">
<stop stop-color="#99FF00"/>
<stop offset="1" stop-color="#99FF00" stop-opacity="0"/>
</linearGradient>
<linearGradient id="paint7_linear_346_661" x1="281.03" y1="462.372" x2="101.751" y2="217.265" gradientUnits="userSpaceOnUse">
<stop stop-color="#99FF00"/>
<stop offset="1" stop-color="#99FF00" stop-opacity="0"/>
</linearGradient>
<linearGradient id="paint8_linear_346_661" x1="266.072" y1="445.177" x2="69.4543" y2="176.366" gradientUnits="userSpaceOnUse">
<stop stop-color="#99FF00"/>
<stop offset="1" stop-color="#99FF00" stop-opacity="0"/>
</linearGradient>
<linearGradient id="paint9_linear_346_661" x1="249.495" y1="429.964" x2="35.5393" y2="137.448" gradientUnits="userSpaceOnUse">
<stop stop-color="#99FF00"/>
<stop offset="1" stop-color="#99FF00" stop-opacity="0"/>
</linearGradient>
<linearGradient id="paint10_linear_346_661" x1="234.83" y1="413.106" x2="3.53539" y2="96.8853" gradientUnits="userSpaceOnUse">
<stop stop-color="#99FF00"/>
<stop offset="1" stop-color="#99FF00" stop-opacity="0"/>
</linearGradient>
<linearGradient id="paint11_linear_346_661" x1="218.249" y1="397.891" x2="-30.3836" y2="57.9656" gradientUnits="userSpaceOnUse">
<stop stop-color="#99FF00"/>
<stop offset="1" stop-color="#99FF00" stop-opacity="0"/>
</linearGradient>
<linearGradient id="paint12_linear_346_661" x1="203.585" y1="381.034" x2="-62.3865" y2="17.4036" gradientUnits="userSpaceOnUse">
<stop stop-color="#99FF00"/>
<stop offset="1" stop-color="#99FF00" stop-opacity="0"/>
</linearGradient>
<linearGradient id="paint13_linear_346_661" x1="188.915" y1="364.177" x2="-94.3943" y2="-23.1574" gradientUnits="userSpaceOnUse">
<stop stop-color="#99FF00"/>
<stop offset="1" stop-color="#99FF00" stop-opacity="0"/>
</linearGradient>
<linearGradient id="paint14_linear_346_661" x1="172.339" y1="348.964" x2="-128.309" y2="-62.0756" gradientUnits="userSpaceOnUse">
<stop stop-color="#99FF00"/>
<stop offset="1" stop-color="#99FF00" stop-opacity="0"/>
</linearGradient>
</defs>
</svg>
