<svg width="166" height="30" viewBox="0 0 166 30" fill="none" xmlns="http://www.w3.org/2000/svg">
<path d="M15 0L18.3677 10.3647H29.2658L20.4491 16.7705L23.8168 27.1353L15 20.7295L6.18322 27.1353L9.55093 16.7705L0.734152 10.3647H11.6323L15 0Z" fill="#99FF00"/>
<path d="M49 0L52.3677 10.3647H63.2658L54.4491 16.7705L57.8168 27.1353L49 20.7295L40.1832 27.1353L43.5509 16.7705L34.7342 10.3647H45.6323L49 0Z" fill="#99FF00"/>
<path d="M83 0L86.3677 10.3647H97.2658L88.4491 16.7705L91.8168 27.1353L83 20.7295L74.1832 27.1353L77.5509 16.7705L68.7342 10.3647H79.6323L83 0Z" fill="#99FF00"/>
<path d="M117 0L120.368 10.3647H131.266L122.449 16.7705L125.817 27.1353L117 20.7295L108.183 27.1353L111.551 16.7705L102.734 10.3647H113.632L117 0Z" fill="#99FF00"/>
<path d="M151 0L154.368 10.3647H165.266L156.449 16.7705L159.817 27.1353L151 20.7295L142.183 27.1353L145.551 16.7705L136.734 10.3647H147.632L151 0Z" fill="#99FF00"/>
</svg>
