<svg width="40" height="34" viewBox="0 0 40 34" fill="none" xmlns="http://www.w3.org/2000/svg">
<path d="M36.448 0.292623C36.448 0.292623 40.1339 -1.14458 39.8268 2.34591C39.7244 3.7832 38.8029 8.81362 38.0862 14.2547L35.6289 30.3727C35.6289 30.3727 35.4242 32.7339 33.5812 33.1445C31.7381 33.5552 28.9737 31.7073 28.4617 31.2966C28.0522 30.9887 20.7827 26.3688 18.223 24.1102C17.5063 23.4943 16.6872 22.2623 18.3253 20.825L29.0761 10.5589C30.3048 9.32698 31.5334 6.45241 26.414 9.9429L12.0798 19.6958C12.0798 19.6958 10.4415 20.7224 7.36998 19.7985L0.714767 17.7453C0.714767 17.7453 -1.74255 16.2053 2.45535 14.6653C12.6941 9.84018 25.2878 4.9124 36.448 0.292623Z" fill="black"/>
</svg>
