<svg width="38" height="40" viewBox="0 0 38 40" fill="none" xmlns="http://www.w3.org/2000/svg">
<path fill-rule="evenodd" clip-rule="evenodd" d="M18.6627 0.000488281C23.6136 0.00241685 28.2606 2.02977 31.7546 5.70963C35.2493 9.38949 37.1723 14.2801 37.1692 19.4826C37.1649 30.2155 28.862 38.9491 18.6621 38.9491H18.6547C15.5577 38.9478 12.5139 38.1306 9.81085 36.5794L0 39.2862L2.62579 29.1983C1.00657 26.2466 0.154418 22.8974 0.155641 19.4663C0.159308 8.73278 8.46217 0.000488281 18.6627 0.000488281ZM18.6572 35.6609H18.6633C27.1415 35.6609 34.0419 28.4026 34.0451 19.48C34.0463 15.1564 32.4481 11.0913 29.5438 8.03313C26.6395 4.97492 22.7774 3.28927 18.6689 3.28799C10.1845 3.28799 3.28346 10.5457 3.2804 19.467C3.27911 22.5246 4.09242 25.5016 5.63199 28.0778L5.99759 28.6903L4.44384 34.6612L10.266 33.0548L10.8279 33.4056C13.1894 34.8795 15.8967 35.6596 18.6572 35.6609ZM23.9403 21.9601C24.3646 22.1225 26.6378 23.2989 27.1003 23.5425C27.1897 23.5896 27.2733 23.6321 27.3509 23.6716C27.6747 23.8363 27.8933 23.9475 27.9865 24.1115C28.1019 24.3142 28.1019 25.2886 27.7166 26.4246C27.3313 27.5608 25.4842 28.5975 24.5955 28.7371C23.7983 28.8625 22.7905 28.9145 21.6826 28.5442C21.0107 28.3201 20.1499 28.0213 19.0463 27.5198C14.7095 25.5498 11.7791 21.1278 11.2271 20.2948C11.1887 20.2368 11.1618 20.1962 11.1468 20.1751L11.145 20.1726C10.9071 19.8396 9.2583 17.5319 9.2583 15.1435C9.2583 12.9039 10.3037 11.73 10.7856 11.1888C10.8188 11.1514 10.8495 11.1171 10.8768 11.0856C11.3011 10.5983 11.8019 10.4769 12.1101 10.4769C12.4182 10.4769 12.727 10.4795 12.9963 10.4938C13.0295 10.4956 13.0642 10.4953 13.0999 10.4951C13.3695 10.4933 13.7053 10.4913 14.0368 11.3285C14.1648 11.6518 14.3523 12.1319 14.5499 12.6378C14.9473 13.6553 15.3856 14.7774 15.4627 14.9401C15.5782 15.1837 15.6554 15.4676 15.501 15.7924C15.4775 15.8416 15.4559 15.8881 15.4352 15.9326C15.3196 16.1802 15.2344 16.363 15.0385 16.6037C14.9616 16.6982 14.8821 16.8001 14.8026 16.9019C14.6432 17.1061 14.4838 17.3103 14.345 17.4559C14.1134 17.6983 13.8726 17.9613 14.1424 18.4485C14.4123 18.9351 15.3404 20.5278 16.7151 21.8178C18.1924 23.2044 19.4765 23.7902 20.1277 24.0873C20.2551 24.1454 20.3583 24.1925 20.4339 24.2323C20.8959 24.4759 21.1658 24.4356 21.4356 24.1108C21.7055 23.7861 22.5916 22.6909 22.8998 22.2037C23.208 21.7165 23.5167 21.7977 23.9403 21.9601Z" fill="black"/>
</svg>
